{
.appVersion = "1286";
classes = (
{
automatic = 1;
code = "A Aacute Abreve Acircumflex Adieresis Agrave Amacron Aogonek Aring Atilde AE B C Cacute Ccaron Ccedilla Cdotaccent D Eth Dcaron Dcroat E Eacute Ecaron Ecircumflex Edieresis Edotaccent Egrave Emacron Eogonek F G Gbreve Gcommaaccent Gdotaccent H Hbar I IJ Iacute Icircumflex Idieresis Idotaccent Igrave Imacron Iogonek J K Kcommaaccent L Lacute Lcaron Lcommaaccent Ldot Lslash M N Nacute Ncaron Ncommaaccent Eng Ntilde O Oacute Ocircumflex Odieresis Ograve Ohungarumlaut Omacron Oslash Otilde OE P Thorn Q R Racute Rcaron Rcommaaccent S Sacute Scaron Scedilla Scommaaccent T Tbar Tcaron Tcedilla Tcommaaccent U Uacute Ucircumflex Udieresis Ugrave Uhungarumlaut Umacron Uogonek Uring V W Wacute Wcircumflex Wdieresis Wgrave X Y Yacute Ycircumflex Ydieresis Ygrave Z Zacute Zcaron Zdotaccent Q.ss01 Delta Omega";
name = Uppercase;
}
);
copyright = "Copyright © 2019 by Lucas Descroix. All rights reserved.";
date = "2019-06-14 20:25:11 +0000";
designer = "Lucas Descroix";
designerURL = www.lucasdescroix.fr;
familyName = Syne;
featurePrefixes = (
{
automatic = 1;
code = "languagesystem DFLT dflt;\012languagesystem latn dflt;\012languagesystem latn CAT;\012languagesystem latn ROM;\012languagesystem latn MOL;\012languagesystem latn KAZ;\012languagesystem latn TAT;\012languagesystem latn TRK;\012languagesystem latn CRT;\012languagesystem latn AZE;\012";
name = Languagesystems;
}
);
features = (
{
automatic = 1;
code = "feature ccmp;\012feature locl;\012feature numr;\012feature dnom;\012feature frac;\012feature lnum;\012feature pnum;\012feature tnum;\012feature onum;\012feature case;\012feature salt;\012feature ss01;\012feature ordn;\012";
name = aalt;
},
{
automatic = 1;

glyphs = (
{
glyphname = A;
lastChange = "2020-07-29 06:26:09 +0000";
layers = (
{
anchors = (
{
name = bottom;
position = "{258.3, 0}";
},
{
name = ogonek;
position = "{544.3, 10}";
},
{
name = top;
position = "{246.664, 629.608}";
}
);
background = {
paths = (
{
closed = 1;
nodes = (
"412.3 170 LINE",
"412.3 246 LINE",
"100.3 247 LINE",
"100.3 170 LINE"
);
},
{
closed = 1;
nodes = (
"52.3 0 LINE",
"257.3 554 LINE",
"462.3 0 LINE",
"548.3 0 LINE",
"299.3 650 LINE",
"215.3 650 LINE",
"-31.7 0 LINE"
);
}
);
};
layerId = "BC735296-CD3A-4FA4-9AA9-EE2D747BC69E";
paths = (
{
closed = 1;
nodes = (
"34.93 -8.575 OFFCURVE",
"49.861 31.131 OFFCURVE",
"97.885 156.731 CURVE SMOOTH",
"157.889 313.665 OFFCURVE",
"181.837 472.596 OFFCURVE",
"271.874 607.345 CURVE",
"218.671 648.791 LINE",
"121.495 503.357 OFFCURVE",
"95.802 334.782 OFFCURVE",
"37.501 182.302 CURVE SMOOTH",
"35.338 176.644 OFFCURVE",
"-17.117 37.623 OFFCURVE",
"-20.194 34.596 CURVE",
"23.906 -19.424 LINE"
);
},
{
closed = 1;
nodes = (
"521.479 51.198 OFFCURVE",
"451.479 69.946 OFFCURVE",
"451.479 16.331 CURVE SMOOTH",
"451.479 -12.827 OFFCURVE",
"468.26 -35.228 OFFCURVE",
"492.436 -35.228 CURVE SMOOTH",
"505.406 -35.228 OFFCURVE",
"517.817 -28.336 OFFCURVE",
"533.062 -14.159 CURVE SMOOTH",
"553.284 4.648 OFFCURVE",
"542.721 27.471 OFFCURVE",
"523.123 65.54 CURVE SMOOTH",
"503.692 103.286 OFFCURVE",
"489.763 140.472 OFFCURVE",
"475.039 178.944 CURVE SMOOTH",
"449.359 246.048 OFFCURVE",
"422.285 309.405 OFFCURVE",
"398.967 370.752 CURVE SMOOTH",
"380.378 419.658 OFFCURVE",
"371.373 474.975 OFFCURVE",
"349.402 527.682 CURVE SMOOTH",
"329.771 574.776 OFFCURVE",
"308.775 614.84 OFFCURVE",
"299.206 655.655 CURVE",
"234.054 637.394 LINE",
"246.664 583.608 OFFCURVE",
"270.474 538.444 OFFCURVE",
"287.791 496.902 CURVE SMOOTH",
"307.702 449.135 OFFCURVE",
"316.505 395.207 OFFCURVE",
"336.534 342.329 CURVE SMOOTH",
"362.322 274.249 OFFCURVE",
"389.474 210.945 OFFCURVE",
"412.663 150.351 CURVE SMOOTH",
"428.47 109.047 OFFCURVE",
"444.048 67.458 OFFCURVE",
"463.886 28.923 CURVE SMOOTH",
"491.432 -24.585 OFFCURVE",
"459.157 20.025 OFFCURVE",
"485.391 44.423 CURVE",
"477.24 36.842 OFFCURVE",
"481.063 44.772 OFFCURVE",
"492.436 44.772 CURVE SMOOTH",
"506.704 44.772 OFFCURVE",
"521.479 30.411 OFFCURVE",
"521.479 16.331 CURVE"
);
},
{
closed = 1;
nodes = (
"371.915 268.123 OFFCURVE",
"358.175 264.719 OFFCURVE",
"345.479 263.475 CURVE SMOOTH",
"339.799 262.918 OFFCURVE",
"332.505 262.572 OFFCURVE",
"324.205 262.572 CURVE SMOOTH",
"303.626 262.572 OFFCURVE",
"280.783 264.629 OFFCURVE",
"258.089 264.629 CURVE SMOOTH",
"246.035 264.629 OFFCURVE",
"235.196 264.053 OFFCURVE",
"224.24 262.693 CURVE SMOOTH",
"197.211 259.338 OFFCURVE",
"176.297 260.534 OFFCURVE",
"156.796 260.534 CURVE SMOOTH",
"140.487 260.534 OFFCURVE",
"122.019 253.423 OFFCURVE",
"102.628 253.423 CURVE",
"102.628 189.423 LINE",
"118.665 189.423 OFFCURVE",
"137.133 186.534 OFFCURVE",
"156.796 186.534 CURVE SMOOTH",
"187.14 186.534 OFFCURVE",
"211.645 196.669 OFFCURVE",
"232.862 199.302 CURVE SMOOTH",
"239.592 200.138 OFFCURVE",
"248.046 200.629 OFFCURVE",
"258.089 200.629 CURVE SMOOTH",
"278.665 200.629 OFFCURVE",
"301.508 198.572 OFFCURVE",
"324.205 198.572 CURVE SMOOTH",
"334.098 198.572 OFFCURVE",
"343.006 198.945 OFFCURVE",
"352.305 199.856 CURVE SMOOTH",
"367.248 201.32 OFFCURVE",
"378.09 204.123 OFFCURVE",
"389.16 204.123 CURVE",
"389.16 268.123 LINE"
);
}
);
width = 592.48;
}
);
leftKerningGroup = A;
rightKerningGroup = A;
unicode = 0041;
},
{
glyphname = AE;
lastChange = "2020-07-29 06:26:09 +0000";
layers = (
{
anchors = (
{
name = bottom;
position = "{392.32, 0}";
},
{
name = top;
position = "{392.32, 680}";
}
);
background = {
components = (
{
name = E;
transform = "{1, 0, 0, 1, 257.32, 0}";
}
);
paths = (
{
closed = 1;
nodes = (
"-42.68 0 LINE",
"41.32 0 LINE",
"397.32 640 LINE",
"313.32 640 LINE"
);
},
{
closed = 1;
nodes = (
"371.32 170 LINE",
"371.32 250 LINE",
"99.32 251 LINE",
"99.32 170 LINE"
);
}
);
};
layerId = "BC735296-CD3A-4FA4-9AA9-EE2D747BC69E";
paths = (
{
closed = 1;
nodes = (
"684.985 656.105 OFFCURVE",
"626.532 661.832 OFFCURVE",
"568.821 661.832 CURVE SMOOTH",
"507.142 661.832 OFFCURVE",
"461.539 658.903 OFFCURVE",
"424.42 652.468 CURVE SMOOTH",
"403.227 648.795 OFFCURVE",
"382.757 647.114 OFFCURVE",
"358.954 644.842 CURVE SMOOTH",
"356.37 644.596 OFFCURVE",
"336.019 651.519 OFFCURVE",
"320.282 635.198 CURVE SMOOTH",
"305.256 619.614 OFFCURVE",
"292.607 579.652 OFFCURVE",
"287.41 572.51 CURVE SMOOTH",
"216.042 474.422 OFFCURVE",
"154.251 376.569 OFFCURVE",
"96.365 267.684 CURVE SMOOTH",
"92.657 260.709 OFFCURVE",
"76.203 244.622 OFFCURVE",
"65.442 229.124 CURVE SMOOTH",
"31.974 180.921 OFFCURVE",
"-12.478 80.243 OFFCURVE",
"-23.566 13.338 CURVE",
"45.492 0.257 LINE",
"52.261 41.104 OFFCURVE",
"80.227 121.977 OFFCURVE",
"122.941 183.498 CURVE SMOOTH",
"126.577 188.734 OFFCURVE",
"145.859 206.966 OFFCURVE",
"158.174 230.131 CURVE SMOOTH",
"226.501 358.655 OFFCURVE",
"283.298 441.997 OFFCURVE",
"344.013 525.443 CURVE SMOOTH",
"345.597 527.619 OFFCURVE",
"370.454 579.442 OFFCURVE",
"370.674 579.67 CURVE",
"365.604 565.204 LINE",
"388.069 567.348 OFFCURVE",
"410.844 569.218 OFFCURVE",
"436.375 573.644 CURVE SMOOTH",
"467.962 579.119 OFFCURVE",
"511.331 581.832 OFFCURVE",
"568.821 581.832 CURVE SMOOTH",
"625.936 581.832 OFFCURVE",
"683.729 579.384 OFFCURVE",
"732.779 579.384 CURVE",
"732.779 659.384 LINE"
);
},
{
closed = 1;
nodes = (
"695.438 90.32 OFFCURVE",
"671.363 94.288 OFFCURVE",
"648.233 94.288 CURVE SMOOTH",
"635.743 94.288 OFFCURVE",
"625.621 93.166 OFFCURVE",
"615.568 90.615 CURVE SMOOTH",
"573.796 80.014 OFFCURVE",
"519.346 74.399 OFFCURVE",
"455.526 74.399 CURVE SMOOTH",
"446.671 74.399 OFFCURVE",
"409.289 73.435 OFFCURVE",
"384.995 73.435 CURVE",
"382.84 64.835 LINE",
"390.875 44.606 LINE",
"390.875 84.349 OFFCURVE",
"402.224 130 OFFCURVE",
"402.224 177.876 CURVE SMOOTH",
"402.224 311.572 OFFCURVE",
"399.544 407.655 OFFCURVE",
"399.544 546.364 CURVE",
"329.544 546.364 LINE",
"329.544 413.402 OFFCURVE",
"332.224 310.659 OFFCURVE",
"332.224 177.876 CURVE SMOOTH",
"332.224 140.148 OFFCURVE",
"320.875 96.496 OFFCURVE",
"320.875 46.606 CURVE",
"320.875 59.439 OFFCURVE",
"308.101 35.992 OFFCURVE",
"332.928 10.744 CURVE SMOOTH",
"346.396 -2.952 OFFCURVE",
"355.916 -4.565 OFFCURVE",
"384.995 -4.565 CURVE SMOOTH",
"410.063 -4.565 OFFCURVE",
"447.445 -3.601 OFFCURVE",
"455.526 -3.601 CURVE SMOOTH",
"524.091 -3.601 OFFCURVE",
"583.955 2.68 OFFCURVE",
"632.787 15.073 CURVE SMOOTH",
"635.607 15.789 OFFCURVE",
"641.194 16.288 OFFCURVE",
"648.233 16.288 CURVE SMOOTH",
"667.76 16.288 OFFCURVE",
"691.835 12.32 OFFCURVE",
"713.285 12.32 CURVE",
"713.285 90.32 LINE"
);
},
{
closed = 1;
nodes = (
"588.892 382.383 OFFCURVE",
"489.281 384.695 OFFCURVE",
"391.178 384.695 CURVE",
"391.178 310.695 LINE",
"488.585 310.695 OFFCURVE",
"588.196 308.383 OFFCURVE",
"685.455 308.383 CURVE",
"685.455 382.383 LINE"
);
},
{
closed = 1;
nodes = (
"338.827 222.086 LINE",
"321.689 220.481 OFFCURVE",
"314.357 233.429 OFFCURVE",
"290.205 240.053 CURVE SMOOTH",
"267.628 246.245 OFFCURVE",
"242.895 249.039 OFFCURVE",
"211.403 249.039 CURVE SMOOTH",
"180.511 249.039 OFFCURVE",
"148.804 246.429 OFFCURVE",
"121.299 246.429 CURVE",
"121.299 176.429 LINE",
"151.323 176.429 OFFCURVE",
"181.709 179.039 OFFCURVE",
"211.403 179.039 CURVE SMOOTH",
"237.196 179.039 OFFCURVE",
"256.715 177.009 OFFCURVE",
"271.69 172.902 CURVE SMOOTH",
"294.832 166.555 OFFCURVE",
"312.689 159.376 OFFCURVE",
"345.352 162.434 CURVE",
"367.604 178.225 LINE"
);
}
);
width = 773.42;
}
);
leftKerningGroup = A;
leftMetricsKey = A;
rightMetricsKey = E;
unicode = 00C6;
},
{
glyphname = B;
lastChange = "2020-07-29 06:26:09 +0000";
layers = (
{
anchors = (
{
name = bottom;
position = "{368.5, 0}";
},
{
name = top;
position = "{368.5, 680}";
}
);
background = {
components = (
{
name = "fut-v";
transform = "{1, 0, 0, 1, 78.5, 0}";
}
);
paths = (
{
closed = 1;
nodes = (
"469.139 572 OFFCURVE",
"527.5 545.478 OFFCURVE",
"527.5 473 CURVE SMOOTH",
"527.5 399 OFFCURVE",
"472.5 361 OFFCURVE",
"382.5 361 CURVE",
"382.5 322 LINE",
"512.5 322 OFFCURVE",
"606.5 353 OFFCURVE",
"606.5 476 CURVE SMOOTH",
"606.5 585.328 OFFCURVE",
"526.684 650 OFFCURVE",
"392.5 650 CURVE",
"392.5 572 LINE"
);
},
{
closed = 1;
nodes = (
"188.5 572 LINE",
"392.5 572 LINE",
"392.5 650 LINE",
"188.5 650 LINE"
);
},
{
closed = 1;
nodes = (
"188.5 283 LINE",
"382.5 283 LINE",
"382.5 361 LINE",
"188.5 361 LINE"
);
},
{
closed = 1;
nodes = (
"462.5 283 OFFCURVE",
"547.5 268 OFFCURVE",
"547.5 181 CURVE SMOOTH",
"547.5 107 OFFCURVE",
"492.5 78 OFFCURVE",
"402.5 78 CURVE",
"402.5 0 LINE",
"532.5 0 OFFCURVE",
"627.5 57 OFFCURVE",
"627.5 181 CURVE SMOOTH",
"627.5 321 OFFCURVE",
"502.5 332 OFFCURVE",
"382.5 332 CURVE",
"382.5 283 LINE"
);
},
{
closed = 1;
nodes = (
"198.5 0 LINE",
"422.5 0 LINE",
"422.5 78 LINE",
"198.5 78 LINE"
);
}
);
};
layerId = "BC735296-CD3A-4FA4-9AA9-EE2D747BC69E";
paths = (
{
closed = 1;
nodes = (
"113.673 533.057 OFFCURVE",
"117.777 460.657 OFFCURVE",
"117.787 389.983 CURVE SMOOTH",
"117.794 340.719 OFFCURVE",
"115.678 290.263 OFFCURVE",
"115.678 238.871 CURVE SMOOTH",
"115.678 211.6 OFFCURVE",
"116.289 187.648 OFFCURVE",
"117.477 166.443 CURVE SMOOTH",
"120.455 113.252 OFFCURVE",
"127.536 65.429 OFFCURVE",
"127.536 21.146 CURVE",
"187.536 21.146 LINE",
"187.536 72.078 OFFCURVE",
"180.121 122.011 OFFCURVE",
"177.383 170.915 CURVE SMOOTH",
"176.108 193.687 OFFCURVE",
"175.678 216.086 OFFCURVE",
"175.678 238.871 CURVE SMOOTH",
"175.678 288.827 OFFCURVE",
"177.795 339.291 OFFCURVE",
"177.787 389.995 CURVE SMOOTH",
"177.776 462.175 OFFCURVE",
"173.673 535.228 OFFCURVE",
"173.673 606.862 CURVE",
"113.673 606.862 LINE"
);
},
{
closed = 1;
nodes = (
"226.486 275.41 OFFCURVE",
"256.617 282.22 OFFCURVE",
"298.34 282.22 CURVE SMOOTH",
"320.841 282.22 OFFCURVE",
"339.364 283.131 OFFCURVE",
"358.846 285.213 CURVE SMOOTH",
"470.885 297.183 OFFCURVE",
"516.789 329.294 OFFCURVE",
"537.232 419.255 CURVE SMOOTH",
"543.004 444.655 OFFCURVE",
"534.481 478.468 OFFCURVE",
"534.225 480.547 CURVE SMOOTH",
"527.312 536.66 OFFCURVE",
"506.64 587.164 OFFCURVE",
"479.118 613.217 CURVE SMOOTH",
"446.967 643.651 OFFCURVE",
"406.848 650.04 OFFCURVE",
"398.038 651.168 CURVE SMOOTH",
"338.664 658.775 OFFCURVE",
"331.625 659.782 OFFCURVE",
"272.036 659.782 CURVE SMOOTH",
"235.559 659.782 OFFCURVE",
"229.357 657.256 OFFCURVE",
"189.018 651.91 CURVE SMOOTH",
"162.627 648.412 OFFCURVE",
"-10.947 660.09 OFFCURVE",
"-10.947 552.685 CURVE",
"49.053 552.685 LINE",
"49.053 573.075 OFFCURVE",
"170.849 576.151 OFFCURVE",
"196.9 579.603 CURVE SMOOTH",
"232.45 584.314 OFFCURVE",
"237.975 586.782 OFFCURVE",
"272.036 586.782 CURVE SMOOTH",
"327.796 586.782 OFFCURVE",
"331.795 586.255 OFFCURVE",
"383.705 573.485 CURVE SMOOTH",
"401.502 569.106 OFFCURVE",
"429.718 562.836 OFFCURVE",
"437.87 555.118 CURVE SMOOTH",
"461.748 532.516 OFFCURVE",
"470.795 502.259 OFFCURVE",
"474.675 470.766 CURVE SMOOTH",
"476.044 459.652 OFFCURVE",
"480.211 443.528 OFFCURVE",
"478.723 436.982 CURVE SMOOTH",
"467.44 387.329 OFFCURVE",
"436.987 353.79 OFFCURVE",
"352.472 344.76 CURVE SMOOTH",
"337.098 343.118 OFFCURVE",
"319.472 342.22 OFFCURVE",
"298.34 342.22 CURVE SMOOTH",
"258.181 342.22 OFFCURVE",
"227.39 335.41 OFFCURVE",
"187.001 335.41 CURVE",
"187.001 275.41 LINE"
);
},
{
closed = 1;
nodes = (
"221.586 -9.971 OFFCURVE",
"229.03 -11.19 OFFCURVE",
"268.126 -11.19 CURVE SMOOTH",
"391.593 -11.19 OFFCURVE",
"437.078 3.044 OFFCURVE",
"503.633 26.879 CURVE SMOOTH",
"532.459 37.203 OFFCURVE",
"585.166 95.974 OFFCURVE",
"593.081 151.476 CURVE SMOOTH",
"594.371 160.515 OFFCURVE",
"595.143 172.273 OFFCURVE",
"595.143 182.607 CURVE SMOOTH",
"595.143 276.726 OFFCURVE",
"537.336 338.946 OFFCURVE",
"454.353 361.273 CURVE SMOOTH",
"440.254 365.067 OFFCURVE",
"427.862 366.742 OFFCURVE",
"413.813 366.742 CURVE SMOOTH",
"396.946 366.742 OFFCURVE",
"381.438 364.673 OFFCURVE",
"367.514 364.673 CURVE",
"367.514 294.673 LINE",
"383.446 294.673 OFFCURVE",
"398.954 296.742 OFFCURVE",
"413.813 296.742 CURVE SMOOTH",
"423.906 296.742 OFFCURVE",
"432.521 295.7 OFFCURVE",
"438.764 294.02 CURVE SMOOTH",
"497.879 278.115 OFFCURVE",
"535.143 241.115 OFFCURVE",
"535.143 182.607 CURVE SMOOTH",
"535.143 176.031 OFFCURVE",
"534.722 170.06 OFFCURVE",
"533.683 162.771 CURVE SMOOTH",
"530.996 143.937 OFFCURVE",
"492.973 93.512 OFFCURVE",
"473.98 86.427 CURVE SMOOTH",
"422.819 67.342 OFFCURVE",
"379.86 54.81 OFFCURVE",
"268.126 54.81 CURVE SMOOTH",
"229.681 54.81 OFFCURVE",
"222.237 56.029 OFFCURVE",
"188.549 56.029 CURVE",
"188.549 -9.971 LINE"
);
}
);
width = 623.7;
}
);
leftMetricsKey = R;
unicode = 0042;
},
{
glyphname = C;
lastChange = "2020-07-29 06:26:09 +0000";
layers = (
{
anchors = (
{
name = bottom;
position = "{340.3, 0}";
},
{
name = center;
position = "{361.3, 340}";
},
{
name = ogonek;
position = "{657.3, 10}";
},
{
name = top;
position = "{330.3, 650}";
},
{
name = topleft;
position = "{11.3, 680}";
},
{
name = topright;
position = "{711.3, 680}";
}
);
background = {
components = (
{
name = G;
transform = "{1, 0, 0, 1, -8.7, 0}";
}
);
paths = (
{
closed = 1;
nodes = (
"671.014 231.8 OFFCURVE",
"674.165 246.189 OFFCURVE",
"676.494 261.076 CURVE",
"595.209 261.076 LINE",
"592.138 245.846 OFFCURVE",
"587.96 231.461 OFFCURVE",
"582.801 217.94 CURVE",
"667.093 217.94 LINE"
);
}
);
};
layerId = "BC735296-CD3A-4FA4-9AA9-EE2D747BC69E";
paths = (
{
closed = 1;
nodes = (
"460.418 133.509 OFFCURVE",
"459.371 123.977 OFFCURVE",
"443.835 95.107 CURVE SMOOTH",
"431.866 72.866 OFFCURVE",
"389.167 59.1 OFFCURVE",
"337.865 59.1 CURVE SMOOTH",
"329.098 59.1 OFFCURVE",
"298.571 59.507 OFFCURVE",
"288.097 60.326 CURVE SMOOTH",
"249.733 63.329 OFFCURVE",
"247.044 71.13 OFFCURVE",
"257.039 49.116 CURVE",
"242.958 64.619 OFFCURVE",
"250.432 65.703 OFFCURVE",
"223.014 101.587 CURVE SMOOTH",
"147.364 200.594 OFFCURVE",
"130.837 264.509 OFFCURVE",
"130.837 347.29 CURVE SMOOTH",
"130.837 389.219 OFFCURVE",
"137.136 422.756 OFFCURVE",
"152.514 462.672 CURVE SMOOTH",
"167.099 500.529 OFFCURVE",
"274.101 590.033 OFFCURVE",
"328.751 590.033 CURVE SMOOTH",
"345.189 590.033 OFFCURVE",
"377.098 568.22 OFFCURVE",
"395.178 561.62 CURVE",
"394.878 561.73 OFFCURVE",
"453.405 540.665 OFFCURVE",
"453.405 540.665 CURVE",
"501.399 588.676 LINE",
"479.301 618.128 OFFCURVE",
"441.169 627.492 OFFCURVE",
"415.753 636.77 CURVE SMOOTH",
"393.505 644.891 OFFCURVE",
"355.012 660.033 OFFCURVE",
"328.751 660.033 CURVE SMOOTH",
"268.632 660.033 OFFCURVE",
"123.286 560.892 OFFCURVE",
"96.525 491.432 CURVE SMOOTH",
"79.723 447.821 OFFCURVE",
"70.837 398.621 OFFCURVE",
"70.837 347.29 CURVE SMOOTH",
"70.837 251.074 OFFCURVE",
"92.364 176.192 OFFCURVE",
"170.71 72.388 CURVE SMOOTH",
"186.291 51.744 OFFCURVE",
"195.606 24.066 OFFCURVE",
"212.624 5.329 CURVE SMOOTH",
"227.586 -11.145 OFFCURVE",
"273.794 -8.677 OFFCURVE",
"283.416 -9.43 CURVE SMOOTH",
"295.334 -10.363 OFFCURVE",
"326.715 -10.9 OFFCURVE",
"337.865 -10.9 CURVE SMOOTH",
"411.033 -10.9 OFFCURVE",
"467.738 13.433 OFFCURVE",
"496.67 67.196 CURVE SMOOTH",
"501.481 76.137 OFFCURVE",
"520.418 107.471 OFFCURVE",
"520.418 127.407 CURVE",
"460.418 117.407 LINE"
);
}
);
width = 565.3;
}
);
leftKerningGroup = O;
leftMetricsKey = O;
rightKerningGroup = O;
unicode = 0043;
},
{
glyphname = D;
lastChange = "2020-07-29 06:26:09 +0000";
layers = (
{
anchors = (
{
name = bottom;
position = "{378.47, 0}";
},
{
name = center;
position = "{200.661, 340}";
},
{
name = top;
position = "{308.47, 650}";
}
);
background = {
components = (
{
name = "fut-v";
transform = "{1, 0, 0, 1, 55.47, 0}";
}
);
paths = (
{
closed = 1;
nodes = (
"534.47 573 OFFCURVE",
"591.47 451 OFFCURVE",
"591.47 328 CURVE SMOOTH",
"591.47 205 OFFCURVE",
"534.47 77 OFFCURVE",
"324.47 77 CURVE",
"324.47 0 LINE",
"574.47 0 OFFCURVE",
"670.47 155 OFFCURVE",
"670.47 328 CURVE SMOOTH",
"670.47 501 OFFCURVE",
"584.47 650 OFFCURVE",
"324.47 650 CURVE",
"324.47 573 LINE"
);
},
{
closed = 1;
nodes = (
"165.47 573 LINE",
"324.47 573 LINE",
"324.47 650 LINE",
"165.47 650 LINE"
);
},
{
closed = 1;
nodes = (
"175.47 0 LINE",
"324.47 0 LINE",
"324.47 77 LINE",
"175.47 77 LINE"
);
}
);
};
layerId = "BC735296-CD3A-4FA4-9AA9-EE2D747BC69E";
paths = (
{
closed = 1;
nodes = (
"110.137 574.639 OFFCURVE",
"202.715 577.979 OFFCURVE",
"205.917 577.979 CURVE SMOOTH",
"242.486 577.979 OFFCURVE",
"275.021 576.414 OFFCURVE",
"287.095 575.77 CURVE SMOOTH",
"316.796 574.174 OFFCURVE",
"350.324 581.431 OFFCURVE",
"358.939 581.431 CURVE SMOOTH",
"465.613 581.431 OFFCURVE",
"556.336 469.566 OFFCURVE",
"556.336 349.4 CURVE SMOOTH",
"556.336 327.453 OFFCURVE",
"554.562 311.077 OFFCURVE",
"550.307 293.307 CURVE SMOOTH",
"531.5 214.762 OFFCURVE",
"479.332 123.314 OFFCURVE",
"423.565 100.749 CURVE SMOOTH",
"384.586 84.976 OFFCURVE",
"334.79 76.899 OFFCURVE",
"283.167 73.356 CURVE SMOOTH",
"240.666 70.439 OFFCURVE",
"195.902 73.932 OFFCURVE",
"147.683 69.836 CURVE",
"192.042 40.034 LINE",
"198.06 25.573 OFFCURVE",
"192.597 28.854 OFFCURVE",
"192.597 62.575 CURVE",
"192.597 86.872 OFFCURVE",
"195.393 152.334 OFFCURVE",
"194.819 169.407 CURVE SMOOTH",
"194.492 179.132 OFFCURVE",
"194.311 188.921 OFFCURVE",
"194.311 200.789 CURVE",
"194.311 259.095 OFFCURVE",
"199 319.795 OFFCURVE",
"199 382.92 CURVE",
"199 462.801 OFFCURVE",
"189.199 536.095 OFFCURVE",
"189.199 604.806 CURVE",
"129.199 604.806 LINE",
"129.199 530.77 OFFCURVE",
"139 456.816 OFFCURVE",
"139 382.92 CURVE SMOOTH",
"139 322.989 OFFCURVE",
"134.311 261.63 OFFCURVE",
"134.311 200.789 CURVE SMOOTH",
"134.311 189.518 OFFCURVE",
"134.471 178.067 OFFCURVE",
"134.853 166.717 CURVE SMOOTH",
"135.326 152.642 OFFCURVE",
"132.597 88.201 OFFCURVE",
"132.597 62.575 CURVE SMOOTH",
"132.597 34.65 OFFCURVE",
"133.735 16.295 OFFCURVE",
"136.647 9.297 CURVE SMOOTH",
"143.85 -8.011 OFFCURVE",
"153.904 0.22 OFFCURVE",
"152.761 0.123 CURVE",
"195.927 3.79 OFFCURVE",
"241.117 1.493 OFFCURVE",
"285.769 3.431 CURVE SMOOTH",
"348.758 6.166 OFFCURVE",
"384.458 11.658 OFFCURVE",
"446.071 36.59 CURVE SMOOTH",
"515.051 64.502 OFFCURVE",
"583.882 171.204 OFFCURVE",
"608.658 274.678 CURVE SMOOTH",
"613.741 295.907 OFFCURVE",
"616.336 322.675 OFFCURVE",
"616.336 349.4 CURVE",
"616.336 478.892 OFFCURVE",
"520.542 651.431 OFFCURVE",
"358.939 651.431 CURVE SMOOTH",
"309.426 651.431 OFFCURVE",
"331.345 643.45 OFFCURVE",
"290.314 645.654 CURVE SMOOTH",
"277.97 646.318 OFFCURVE",
"243.448 647.979 OFFCURVE",
"205.917 647.979 CURVE SMOOTH",
"135.061 647.979 OFFCURVE",
"92.928 642.581 OFFCURVE",
"75.101 629.459 CURVE",
"110.668 575.03 LINE"
);
}
);
width = 655.47;
}
);
leftMetricsKey = H;
rightKerningGroup = O;
rightMetricsKey = O;
unicode = 0044;
},
{
glyphname = E;
lastChange = "2020-07-29 06:26:09 +0000";
layers = (
{
anchors = (
{
name = bottom;
position = "{274.36, 0}";
},
{
name = ogonek;
position = "{514.36, 10}";
},
{
name = top;
position = "{274.36, 645}";
},
{
name = topleft;
position = "{-6.64, 680}";
}
);
background = {
components = (
{
name = "fut-v";
transform = "{1, 0, 0, 1, -4.64, 0}";
}
);
paths = (
{
closed = 1;
nodes = (
"126.36 573 LINE",
"513.36 573 LINE",
"513.36 650 LINE",
"126.36 650 LINE"
);
},
{
closed = 1;
nodes = (
"126.36 285 LINE",
"444.36 285 LINE",
"444.36 362 LINE",
"126.36 362 LINE"
);
},
{
closed = 1;
nodes = (
"126.36 0 LINE",
"514.36 0 LINE",
"514.36 77 LINE",
"126.36 77 LINE"
);
}
);
};
layerId = "BC735296-CD3A-4FA4-9AA9-EE2D747BC69E";
paths = (
{
closed = 1;
nodes = (
"418.453 86.369 LINE",
"379.661 86.369 OFFCURVE",
"260.421 81.211 OFFCURVE",
"192.708 81.211 CURVE SMOOTH",
"158.444 81.211 OFFCURVE",
"108.893 85.252 OFFCURVE",
"109.193 85.078 CURVE",
"143.043 66.326 LINE",
"149.658 112.807 OFFCURVE",
"154.691 177.298 OFFCURVE",
"158.301 236.53 CURVE SMOOTH",
"159.19 251.111 OFFCURVE",
"159.672 266.934 OFFCURVE",
"159.672 283.445 CURVE",
"159.672 343.038 OFFCURVE",
"153.318 402.435 OFFCURVE",
"147.154 457.279 CURVE SMOOTH",
"142.115 502.115 OFFCURVE",
"143.124 548.959 OFFCURVE",
"139.062 599.192 CURVE",
"69.29 592.743 LINE",
"73.101 545.618 OFFCURVE",
"72.156 496.712 OFFCURVE",
"77.592 448.344 CURVE SMOOTH",
"83.853 392.635 OFFCURVE",
"89.672 338.241 OFFCURVE",
"89.672 283.445 CURVE SMOOTH",
"89.672 268.187 OFFCURVE",
"89.225 254.431 OFFCURVE",
"88.431 241.397 CURVE SMOOTH",
"84.987 184.893 OFFCURVE",
"80.231 123.198 OFFCURVE",
"73.741 77.598 CURVE SMOOTH",
"66.478 26.561 OFFCURVE",
"58.557 24.867 OFFCURVE",
"74.09 15.864 CURVE SMOOTH",
"91.602 5.714 OFFCURVE",
"129.503 1.211 OFFCURVE",
"192.708 1.211 CURVE SMOOTH",
"261.697 1.211 OFFCURVE",
"381.597 6.369 OFFCURVE",
"418.453 6.369 CURVE SMOOTH",
"486.646 6.369 OFFCURVE",
"516.463 5.162 OFFCURVE",
"516.463 28.334 CURVE",
"456.463 78.334 LINE"
);
},
{
closed = 1;
nodes = (
"464.297 648.847 OFFCURVE",
"432.858 657.719 OFFCURVE",
"393.624 657.719 CURVE SMOOTH",
"386.716 657.719 OFFCURVE",
"381.006 657.464 OFFCURVE",
"373.975 656.844 CURVE SMOOTH",
"275.367 648.146 OFFCURVE",
"181.198 646.122 OFFCURVE",
"89.059 646.122 CURVE",
"89.059 566.122 LINE",
"187.473 566.122 OFFCURVE",
"283.597 568.639 OFFCURVE",
"380.126 577.153 CURVE SMOOTH",
"383.81 577.478 OFFCURVE",
"388.17 577.719 OFFCURVE",
"393.624 577.719 CURVE SMOOTH",
"425.822 577.719 OFFCURVE",
"457.262 568.847 OFFCURVE",
"491.674 578.847 CURVE",
"491.674 658.847 LINE"
);
},
{
closed = 1;
nodes = (
"423.86 401.451 OFFCURVE",
"408.174 385.404 OFFCURVE",
"362.043 381.259 CURVE SMOOTH",
"353.65 380.505 OFFCURVE",
"342.654 380.072 OFFCURVE",
"331.343 380.072 CURVE SMOOTH",
"284.078 380.072 OFFCURVE",
"229.338 386.802 OFFCURVE",
"177.849 386.802 CURVE SMOOTH",
"148.202 386.802 OFFCURVE",
"123.099 384.38 OFFCURVE",
"100.527 379.285 CURVE",
"115.939 301.249 LINE",
"132.648 305.02 OFFCURVE",
"153.173 306.802 OFFCURVE",
"177.849 306.802 CURVE SMOOTH",
"226.319 306.802 OFFCURVE",
"281.719 300.072 OFFCURVE",
"331.343 300.072 CURVE SMOOTH",
"344.125 300.072 OFFCURVE",
"356.463 300.516 OFFCURVE",
"368.307 301.58 CURVE SMOOTH",
"416.499 305.91 OFFCURVE",
"438.106 309.116 OFFCURVE",
"448.089 319.259 CURVE",
"418.197 375.373 LINE"
);
}
);
width = 574.36;
}
);
leftMetricsKey = H;
unicode = 0045;
},
{
glyphname = F;
lastChange = "2020-07-29 06:26:09 +0000";
layers = (
{
anchors = (
{
name = bottom;
position = "{265.4, 0}";
},
{
name = top;
position = "{265.4, 680}";
}
);
background = {
components = (
{
name = "fut-v";
transform = "{1, 0, 0, 1, -13.6, 0}";
}
);
paths = (
{
closed = 1;
nodes = (
"117.4 573 LINE",
"504.4 573 LINE",
"504.4 650 LINE",
"117.4 650 LINE"
);
},
{
closed = 1;
nodes = (
"117.4 285 LINE",
"435.4 285 LINE",
"435.4 362 LINE",
"117.4 362 LINE"
);
}
);
};
layerId = "BC735296-CD3A-4FA4-9AA9-EE2D747BC69E";
paths = (
{
closed = 1;
nodes = (
"145.794 95.627 OFFCURVE",
"150.602 194.809 OFFCURVE",
"155.604 295.832 CURVE SMOOTH",
"159.441 373.336 OFFCURVE",
"141.106 447.06 OFFCURVE",
"137.908 518.041 CURVE SMOOTH",
"136.79 542.851 OFFCURVE",
"141.938 572.748 OFFCURVE",
"141.938 609.508 CURVE",
"71.938 609.508 LINE",
"71.938 579.063 OFFCURVE",
"66.505 547.155 OFFCURVE",
"67.979 514.44 CURVE SMOOTH",
"71.367 439.244 OFFCURVE",
"89.599 365.971 OFFCURVE",
"85.689 291.879 CURVE SMOOTH",
"80.528 194.075 OFFCURVE",
"75.667 89.665 OFFCURVE",
"90.697 -9.162 CURVE",
"159.901 2.866 LINE"
);
},
{
closed = 1;
nodes = (
"371.643 652.399 OFFCURVE",
"220.717 648.68 OFFCURVE",
"90.929 644.464 CURVE",
"93.202 564.506 LINE",
"223.512 568.74 OFFCURVE",
"374.126 572.399 OFFCURVE",
"504.351 572.399 CURVE",
"504.351 652.399 LINE"
);
},
{
closed = 1;
nodes = (
"367.048 384.193 OFFCURVE",
"285.642 385.415 OFFCURVE",
"224.239 383.007 CURVE SMOOTH",
"213.316 382.579 OFFCURVE",
"124.842 376.918 OFFCURVE",
"101.091 376.918 CURVE",
"101.091 296.918 LINE",
"127.441 296.918 OFFCURVE",
"215.77 302.629 OFFCURVE",
"226.981 303.068 CURVE SMOOTH",
"286.862 305.416 OFFCURVE",
"368.49 304.151 OFFCURVE",
"429.505 308.339 CURVE",
"424.712 388.151 LINE"
);
}
);
width = 529.4;
}
);
leftMetricsKey = H;
rightKerningGroup = F;
unicode = 0046;
},
{
glyphname = G;
lastChange = "2020-07-29 06:26:09 +0000";
layers = (
{
anchors = (
{
name = bottom;
position = "{325.2, 0}";
},
{
name = center;
position = "{390.2, 340}";
},
{
name = ogonek;
position = "{686.2, 10}";
},
{
name = top;
position = "{345.2, 650}";
},
{
name = topleft;
position = "{40.2, 680}";
},
{
name = topright;
position = "{740.2, 680}";
}
);
background = {
components = (
{
name = C;
transform = "{1, 0, 0, 1, 20.2, 0}";
}
);
};
layerId = "BC735296-CD3A-4FA4-9AA9-EE2D747BC69E";
paths = (
{
closed = 1;
nodes = (
"585.574 308.328 LINE",
"458.086 263.211 LINE",
"458.086 221.161 OFFCURVE",
"424.415 109.125 OFFCURVE",
"399.496 87.617 CURVE SMOOTH",
"388.304 77.957 OFFCURVE",
"379.278 74.466 OFFCURVE",
"355.397 72.216 CURVE SMOOTH",
"340.957 70.856 OFFCURVE",
"273.727 68.759 OFFCURVE",
"257.249 68.759 CURVE SMOOTH",
"202.943 68.758 OFFCURVE",
"211.481 78.682 OFFCURVE",
"221.849 57.696 CURVE",
"195.895 110.227 OFFCURVE",
"151.632 164.543 OFFCURVE",
"144.15 231.599 CURVE SMOOTH",
"142.716 244.456 OFFCURVE",
"134.473 273.325 OFFCURVE",
"135.495 269.622 CURVE",
"133.519 276.784 OFFCURVE",
"132.913 282.258 OFFCURVE",
"132.913 294.63 CURVE",
"132.913 306.802 OFFCURVE",
"133.834 319.765 OFFCURVE",
"134.611 334.51 CURVE SMOOTH",
"135.539 352.121 OFFCURVE",
"150.975 376.505 OFFCURVE",
"166.621 421.479 CURVE SMOOTH",
"184.529 472.953 OFFCURVE",
"203.256 512.151 OFFCURVE",
"230.502 539.313 CURVE SMOOTH",
"252.557 561.3 OFFCURVE",
"312.185 578.458 OFFCURVE",
"343.894 578.458 CURVE SMOOTH",
"385.704 578.458 OFFCURVE",
"432.502 557.348 OFFCURVE",
"468.205 521.645 CURVE",
"517.702 578.213 LINE",
"466.328 629.588 OFFCURVE",
"403.912 658.458 OFFCURVE",
"343.894 658.458 CURVE SMOOTH",
"294.197 658.458 OFFCURVE",
"219.179 633.949 OFFCURVE",
"181.081 595.969 CURVE SMOOTH",
"140.772 555.785 OFFCURVE",
"117.771 497.387 OFFCURVE",
"100.508 447.766 CURVE SMOOTH",
"88.589 413.506 OFFCURVE",
"66.827 378.944 OFFCURVE",
"64.708 338.719 CURVE SMOOTH",
"64.002 325.322 OFFCURVE",
"62.913 309.997 OFFCURVE",
"62.913 294.63 CURVE SMOOTH",
"62.913 276.843 OFFCURVE",
"64.451 261.272 OFFCURVE",
"68.014 248.353 CURVE SMOOTH",
"73.257 229.341 OFFCURVE",
"78.063 217.943 OFFCURVE",
"79.379 201.261 CURVE SMOOTH",
"84.146 140.831 OFFCURVE",
"130.372 80.386 OFFCURVE",
"159.092 22.259 CURVE SMOOTH",
"170.37 -0.569 OFFCURVE",
"195.914 -11.242 OFFCURVE",
"257.249 -11.242 CURVE SMOOTH",
"277.37 -11.242 OFFCURVE",
"347.41 -8.802 OFFCURVE",
"361.962 -7.431 CURVE SMOOTH",
"397.253 -4.106 OFFCURVE",
"419.586 4.918 OFFCURVE",
"445.234 27.056 CURVE SMOOTH",
"486.942 63.055 OFFCURVE",
"528.086 203.593 OFFCURVE",
"528.086 263.211 CURVE",
"528.086 258.777 OFFCURVE",
"517.895 220.737 OFFCURVE",
"517.814 221.715 CURVE"
);
},
{
closed = 1;
nodes = (
"568.827 333.479 OFFCURVE",
"519.164 331.292 OFFCURVE",
"443.792 326.812 CURVE SMOOTH",
"371.359 322.507 OFFCURVE",
"336.724 316.574 OFFCURVE",
"299.538 288.95 CURVE",
"359.43 252.836 LINE",
"365.289 258.789 OFFCURVE",
"398.436 264.01 OFFCURVE",
"447.945 266.953 CURVE SMOOTH",
"518.766 271.163 OFFCURVE",
"565.59 273.479 OFFCURVE",
"638.188 273.479 CURVE",
"638.188 333.479 LINE"
);
}
);
width = 637.008;
}
);
leftKerningGroup = O;
leftMetricsKey = O;
unicode = 0047;
},
{
glyphname = H;
lastChange = "2020-07-29 06:26:09 +0000";
layers = (
{
anchors = (
{
name = bottom;
position = "{353.13, 0}";
},
{
name = center;
position = "{353.13, 340}";
},
{
name = top;
position = "{353.13, 680}";
},
{
name = topleft;
position = "{13.13, 680}";
}
);
background = {
components = (
{
name = "fut-v";
transform = "{1, 0, 0, 1, 495.13, 0}";
},
{
name = "fut-v";
transform = "{1, 0, 0, 1, 15.13, 0}";
}
);
paths = (
{
closed = 1;
nodes = (
"146.13 286 LINE",
"598.13 286 LINE",
"598.13 363 LINE",
"146.13 363 LINE"
);
}
);
};
layerId = "BC735296-CD3A-4FA4-9AA9-EE2D747BC69E";
paths = (
{
closed = 1;
nodes = (
"141.292 91.106 OFFCURVE",
"154.97 172.929 OFFCURVE",
"154.97 270.999 CURVE",
"154.97 341.296 OFFCURVE",
"149.433 411.911 OFFCURVE",
"147.02 479.841 CURVE SMOOTH",
"146.626 490.925 OFFCURVE",
"146.405 502.93 OFFCURVE",
"146.405 517.239 CURVE SMOOTH",
"146.405 560.764 OFFCURVE",
"148.508 606.198 OFFCURVE",
"148.508 651.002 CURVE",
"78.508 651.002 LINE",
"78.508 607.65 OFFCURVE",
"76.405 562.216 OFFCURVE",
"76.405 517.239 CURVE SMOOTH",
"76.405 503.523 OFFCURVE",
"76.604 489.941 OFFCURVE",
"77.064 477 CURVE SMOOTH",
"79.559 406.763 OFFCURVE",
"84.97 339.061 OFFCURVE",
"84.97 270.999 CURVE SMOOTH",
"84.97 177.992 OFFCURVE",
"71.292 96.169 OFFCURVE",
"71.292 -1.89 CURVE",
"141.292 -1.89 LINE"
);
},
{
closed = 1;
nodes = (
"627.696 22.236 OFFCURVE",
"622.574 41.828 OFFCURVE",
"622.243 54.993 CURVE SMOOTH",
"619.907 148.042 OFFCURVE",
"617.046 240.949 OFFCURVE",
"617.046 333.338 CURVE SMOOTH",
"617.046 365.546 OFFCURVE",
"617.393 394.872 OFFCURVE",
"618.053 422.467 CURVE SMOOTH",
"619.778 494.541 OFFCURVE",
"628.97 573.016 OFFCURVE",
"628.97 648.532 CURVE",
"558.97 648.532 LINE",
"558.97 577.161 OFFCURVE",
"549.877 499.758 OFFCURVE",
"548.073 424.381 CURVE SMOOTH",
"547.373 395.111 OFFCURVE",
"547.046 354.717 OFFCURVE",
"547.046 333.338 CURVE SMOOTH",
"547.046 239.563 OFFCURVE",
"549.942 145.527 OFFCURVE",
"552.265 52.985 CURVE SMOOTH",
"552.847 29.807 OFFCURVE",
"557.608 11.675 OFFCURVE",
"557.517 0.402 CURVE",
"627.515 -0.243 LINE"
);
},
{
closed = 1;
nodes = (
"588.555 358.656 OFFCURVE",
"578.867 357.934 OFFCURVE",
"566.401 357.934 CURVE SMOOTH",
"525.773 357.934 OFFCURVE",
"467.485 365.039 OFFCURVE",
"437.678 365.039 CURVE SMOOTH",
"333.156 365.039 OFFCURVE",
"230.988 352.912 OFFCURVE",
"128.498 352.912 CURVE",
"128.498 282.912 LINE",
"233.221 282.912 OFFCURVE",
"335.389 295.039 OFFCURVE",
"437.678 295.039 CURVE SMOOTH",
"463.877 295.039 OFFCURVE",
"523.486 287.934 OFFCURVE",
"566.401 287.934 CURVE SMOOTH",
"584.939 287.934 OFFCURVE",
"598.763 289.276 OFFCURVE",
"610.201 292.312 CURVE",
"592.246 359.635 LINE"
);
}
);
width = 717.15;
}
);
unicode = 0048;
},
{
glyphname = Hbar;
lastChange = "2020-07-29 06:26:09 +0000";
layers = (
{
components = (
{
name = H;
}
);
layerId = "BC735296-CD3A-4FA4-9AA9-EE2D747BC69E";
paths = (
{
closed = 1;
nodes = (
"156.04 441.714 OFFCURVE",
"190.278 434.135 OFFCURVE",
"227.709 436.691 CURVE SMOOTH",
"325.128 443.343 OFFCURVE",
"423.989 443.823 OFFCURVE",
"523 443.822 CURVE SMOOTH",
"539.588 443.822 OFFCURVE",
"556.154 443.809 OFFCURVE",
"572.745 443.809 CURVE",
"572.745 505.809 LINE",
"556.172 505.809 OFFCURVE",
"539.615 505.822 OFFCURVE",
"523 505.822 CURVE SMOOTH",
"423.884 505.822 OFFCURVE",
"323.812 505.337 OFFCURVE",
"224.03 498.523 CURVE SMOOTH",
"191.739 496.318 OFFCURVE",
"158.726 503.714 OFFCURVE",
"121.94 503.714 CURVE",
"121.94 441.714 LINE"
);
}
);
width = 717.15;
}
);
leftMetricsKey = H;
rightMetricsKey = H;
unicode = 0126;
},
{
glyphname = I;
lastChange = "2020-07-29 06:26:09 +0000";
layers = (
{
anchors = (
{
name = bottom;
position = "{146.72, 0}";
},
{
name = ogonek;
position = "{199.72, 1}";
},
{
name = top;
position = "{134.72, 650}";
},
{
name = topleft;
position = "{6.72, 680}";
}
);
layerId = "BC735296-CD3A-4FA4-9AA9-EE2D747BC69E";
paths = (
{
closed = 1;
nodes = (
"175.769 121.459 OFFCURVE",
"172.761 258.971 OFFCURVE",
"166.581 401.4 CURVE SMOOTH",
"166.122 411.984 OFFCURVE",
"165.86 423.205 OFFCURVE",
"165.86 436.178 CURVE",
"165.86 504.499 OFFCURVE",
"173.305 578.84 OFFCURVE",
"173.305 649.691 CURVE",
"103.305 649.691 LINE",
"103.305 582.335 OFFCURVE",
"95.86 507.994 OFFCURVE",
"95.86 436.178 CURVE SMOOTH",
"95.86 423.634 OFFCURVE",
"96.102 410.474 OFFCURVE",
"96.647 397.932 CURVE SMOOTH",
"102.744 257.407 OFFCURVE",
"105.769 121.182 OFFCURVE",
"105.769 -0.5 CURVE",
"175.769 -0.5 LINE"
);
}
);
width = 255.44;
}
);
leftKerningGroup = I;
rightKerningGroup = I;
unicode = 0049;
},
{
glyphname = J;
lastChange = "2020-07-29 06:26:09 +0000";
layers = (
{
anchors = (
{
name = bottom;
position = "{175.7, 0}";
},
{
name = top;
position = "{175.7, 680}";
}
);
background = {
anchors = (
{
name = bottom;
position = "{128.371, -10}";
},
{
name = center;
position = "{128.371, 250}";
},
{
name = ogonek;
position = "{41.371, 10}";
},
{
name = top;
position = "{133.371, 510}";
},
{
name = topright;
position = "{-135.629, 500}";
}
);
};
layerId = "BC735296-CD3A-4FA4-9AA9-EE2D747BC69E";
paths = (
{
closed = 1;
nodes = (
"-83.548 -264 OFFCURVE",
"42.834 -272.971 OFFCURVE",
"129.958 -164.484 CURVE SMOOTH",
"172.979 -110.915 OFFCURVE",
"206.806 -30.791 OFFCURVE",
"221.33 51.601 CURVE SMOOTH",
"225.488 75.187 OFFCURVE",
"227.604 104.961 OFFCURVE",
"227.604 139.033 CURVE SMOOTH",
"227.604 188.708 OFFCURVE",
"221.329 239.957 OFFCURVE",
"222.083 279.146 CURVE SMOOTH",
"223.944 375.783 OFFCURVE",
"219.012 471.371 OFFCURVE",
"216.415 565.928 CURVE SMOOTH",
"215.799 588.357 OFFCURVE",
"215.761 616.366 OFFCURVE",
"215.761 650.315 CURVE",
"145.761 650.315 LINE",
"145.761 622.915 OFFCURVE",
"145.618 593.68 OFFCURVE",
"146.441 563.732 CURVE SMOOTH",
"149.076 467.817 OFFCURVE",
"154.019 372.003 OFFCURVE",
"152.12 276.548 CURVE SMOOTH",
"151.315 236.079 OFFCURVE",
"157.604 185.628 OFFCURVE",
"157.604 139.033 CURVE SMOOTH",
"157.604 108.489 OFFCURVE",
"155.819 84.922 OFFCURVE",
"152.393 65.49 CURVE SMOOTH",
"140.115 -4.163 OFFCURVE",
"113.303 -67.169 OFFCURVE",
"75.38 -114.392 CURVE SMOOTH",
"33.875 -166.073 OFFCURVE",
"46.836 -124.1 OFFCURVE",
"24.963 -180.801 CURVE",
"-40.346 -152.009 LINE"
);
}
);
width = 322.8;
}
);
leftKerningGroup = J;
unicode = 004A;
},
{
glyphname = K;
lastChange = "2020-07-29 06:26:09 +0000";
layers = (
{
anchors = (
{
name = bottom;
position = "{298.91, 0}";
},
{
name = top;
position = "{298.91, 680}";
}
);
background = {
components = (
{
name = "fut-v";
transform = "{1, 0, 0, 1, 12.91, 0}";
}
);
paths = (
{
closed = 1;
nodes = (
"559.91 650 LINE",
"451.91 650 LINE",
"150.761 339.855 LINE",
"495.91 0 LINE",
"601.91 0 LINE",
"233.19 371.279 LINE",
"233.613 314.67 LINE"
);
}
);
};
layerId = "BC735296-CD3A-4FA4-9AA9-EE2D747BC69E";
paths = (
{
closed = 1;
nodes = (
"147.03 137.708 OFFCURVE",
"155.564 273.106 OFFCURVE",
"160.77 412.709 CURVE SMOOTH",
"163.852 495.374 OFFCURVE",
"148.338 574.961 OFFCURVE",
"148.338 649.915 CURVE",
"78.338 649.915 LINE",
"78.338 567.596 OFFCURVE",
"93.577 489.669 OFFCURVE",
"90.819 415.69 CURVE SMOOTH",
"85.621 276.3 OFFCURVE",
"77.03 140.546 OFFCURVE",
"77.03 -0.562 CURVE",
"147.03 -0.562 LINE"
);
},
{
closed = 1;
nodes = (
"442.161 651.665 OFFCURVE",
"417.887 636.716 OFFCURVE",
"395.492 611.057 CURVE SMOOTH",
"349.699 558.588 OFFCURVE",
"314.492 510.253 OFFCURVE",
"265.211 463.216 CURVE SMOOTH",
"237.774 437.028 OFFCURVE",
"155.616 372.67 OFFCURVE",
"137.021 327.899 CURVE",
"201.667 297.213 LINE",
"208.52 313.712 OFFCURVE",
"285.415 378.498 OFFCURVE",
"313.543 405.346 CURVE SMOOTH",
"365.667 455.097 OFFCURVE",
"402.819 506.421 OFFCURVE",
"448.231 558.453 CURVE SMOOTH",
"460.105 572.059 OFFCURVE",
"483.163 586.601 OFFCURVE",
"505.746 609.185 CURVE",
"456.249 665.754 LINE"
);
},
{
closed = 1;
nodes = (
"503.426 58.692 OFFCURVE",
"445.944 116.708 OFFCURVE",
"442.242 120.537 CURVE SMOOTH",
"411.511 152.318 OFFCURVE",
"379.067 175.713 OFFCURVE",
"357.453 199.341 CURVE SMOOTH",
"332.791 226.302 OFFCURVE",
"311.308 243.85 OFFCURVE",
"280.334 271 CURVE SMOOTH",
"250.582 297.08 OFFCURVE",
"223.171 311.75 OFFCURVE",
"214.332 329.932 CURVE",
"151.377 294.954 LINE",
"173.143 250.183 OFFCURVE",
"213.41 229.058 OFFCURVE",
"234.192 210.841 CURVE SMOOTH",
"260.238 188.01 OFFCURVE",
"279.464 174.139 OFFCURVE",
"305.802 145.346 CURVE SMOOTH",
"336.967 111.276 OFFCURVE",
"368.443 89.16 OFFCURVE",
"391.96 64.879 CURVE SMOOTH",
"443.988 11.161 OFFCURVE",
"478.996 -21.308 OFFCURVE",
"502.766 -21.308 CURVE",
"502.766 58.692 LINE"
);
}
);
width = 550.71;
}
);
leftKerningGroup = I;
leftMetricsKey = H;
rightKerningGroup = K;
unicode = 004B;
},
{
glyphname = L;
lastChange = "2020-07-29 06:26:09 +0000";
layers = (
{
anchors = (
{
name = bottom;
position = "{296.09, 2.797}";
},
{
name = center;
position = "{259.54, 340}";
},
{
name = top;
position = "{269.54, 650}";
},
{
name = topright;
position = "{519.54, 650}";
}
);
background = {
components = (
{
name = "fut-v";
transform = "{1, 0, 0, 1, 1.54, 0}";
}
);
paths = (
{
closed = 1;
nodes = (
"132.54 -0.408 LINE",
"499.54 -0.408 LINE",
"499.54 75.592 LINE",
"132.54 75.592 LINE"
);
}
);
};
layerId = "BC735296-CD3A-4FA4-9AA9-EE2D747BC69E";
paths = (
{
closed = 1;
nodes = (
"436.479 66.291 OFFCURVE",
"388.927 62.586 OFFCURVE",
"341.674 62.586 CURVE SMOOTH",
"300.884 62.586 OFFCURVE",
"258.35 68.797 OFFCURVE",
"214.455 68.797 CURVE SMOOTH",
"185.583 68.797 OFFCURVE",
"118.611 57.039 OFFCURVE",
"99.508 58.504 CURVE",
"142.186 55.23 OFFCURVE",
"143.676 11.286 OFFCURVE",
"143.676 12.422 CURVE",
"143.676 39.547 OFFCURVE",
"144.992 67.64 OFFCURVE",
"144.992 96.92 CURVE",
"144.992 115.412 OFFCURVE",
"144.434 148.907 OFFCURVE",
"143.403 162.719 CURVE SMOOTH",
"140.316 204.075 OFFCURVE",
"143.208 249.138 OFFCURVE",
"140.046 297.732 CURVE SMOOTH",
"135.904 361.369 OFFCURVE",
"127.068 418.099 OFFCURVE",
"127.068 472.512 CURVE",
"127.068 483.683 OFFCURVE",
"127.387 492.24 OFFCURVE",
"128.015 501.871 CURVE SMOOTH",
"129.602 526.189 OFFCURVE",
"126.527 575.598 OFFCURVE",
"134.376 613.499 CURVE",
"132.51 604.489 OFFCURVE",
"141.405 619.722 OFFCURVE",
"141.405 648.275 CURVE",
"81.405 648.275 LINE",
"81.405 646.465 OFFCURVE",
"78.011 641.25 OFFCURVE",
"75.623 629.724 CURVE SMOOTH",
"67.775 591.831 OFFCURVE",
"66.093 559.973 OFFCURVE",
"68.143 507.078 CURVE SMOOTH",
"68.59 495.544 OFFCURVE",
"67.068 483.779 OFFCURVE",
"67.068 472.512 CURVE SMOOTH",
"67.068 411.072 OFFCURVE",
"76.316 351.79 OFFCURVE",
"80.172 292.537 CURVE SMOOTH",
"83.086 247.768 OFFCURVE",
"80.176 202.23 OFFCURVE",
"83.569 156.765 CURVE SMOOTH",
"84.651 142.274 OFFCURVE",
"84.992 111.35 OFFCURVE",
"84.992 96.92 CURVE SMOOTH",
"84.992 69.322 OFFCURVE",
"83.676 41.229 OFFCURVE",
"83.676 12.422 CURVE SMOOTH",
"83.676 1.495 OFFCURVE",
"88.127 -6.74 OFFCURVE",
"94.918 -7.261 CURVE SMOOTH",
"121.954 -9.336 OFFCURVE",
"188.484 2.797 OFFCURVE",
"214.455 2.797 CURVE SMOOTH",
"256.09 2.797 OFFCURVE",
"299.283 -3.414 OFFCURVE",
"341.674 -3.414 CURVE SMOOTH",
"389.804 -3.414 OFFCURVE",
"438.016 0.291 OFFCURVE",
"484.926 0.291 CURVE",
"484.926 66.291 LINE"
);
}
);
width = 539.54;
}
);
leftMetricsKey = H;
rightKerningGroup = L;
unicode = 004C;
},
{
glyphname = M;
lastChange = "2020-07-29 06:26:09 +0000";
layers = (
{
anchors = (
{
name = bottom;
position = "{444.45, 0}";
},
{
name = top;
position = "{444.45, 680}";
}
);
background = {
paths = (
{
closed = 1;
nodes = (
"404.45 0 LINE",
"483.45 0 LINE",
"164.45 650 LINE",
"98.45 604 LINE"
);
},
{
closed = 1;
nodes = (
"724.45 650 LINE",
"404.45 0 LINE",
"484.45 0 LINE",
"789.45 604 LINE"
);
},
{
closed = 1;
nodes = (
"724.45 0 LINE",
"804.45 0 LINE",
"804.45 650 LINE",
"724.45 650 LINE"
);
},
{
closed = 1;
nodes = (
"84.45 0 LINE",
"164.45 0 LINE",
"164.45 650 LINE",
"84.45 650 LINE"
);
}
);
};
layerId = "BC735296-CD3A-4FA4-9AA9-EE2D747BC69E";
paths = (
{
closed = 1;
nodes = (
"77.333 532.413 OFFCURVE",
"70.814 418.222 OFFCURVE",
"68.785 304.098 CURVE SMOOTH",
"68.288 276.143 OFFCURVE",
"68.053 247.587 OFFCURVE",
"68.053 219.299 CURVE SMOOTH",
"68.053 173.4 OFFCURVE",
"68.67 125.886 OFFCURVE",
"69.836 78.379 CURVE SMOOTH",
"70.582 47.994 OFFCURVE",
"71.302 16.461 OFFCURVE",
"71.302 0.192 CURVE",
"141.302 0.192 LINE",
"141.302 25.105 OFFCURVE",
"140.37 57.727 OFFCURVE",
"139.815 80.341 CURVE SMOOTH",
"138.625 128.829 OFFCURVE",
"138.053 175.238 OFFCURVE",
"138.053 219.299 CURVE SMOOTH",
"138.053 248.541 OFFCURVE",
"138.305 276.299 OFFCURVE",
"138.774 302.676 CURVE SMOOTH",
"140.779 415.463 OFFCURVE",
"147.333 530.452 OFFCURVE",
"147.333 643.529 CURVE",
"77.333 643.529 LINE"
);
},
{
closed = 1;
nodes = (
"507.858 75.718 LINE",
"498.308 93.116 OFFCURVE",
"491.318 104.967 OFFCURVE",
"487.392 112.722 CURVE SMOOTH",
"455.582 175.566 OFFCURVE",
"413.071 217.904 OFFCURVE",
"388.074 257.578 CURVE SMOOTH",
"348.248 320.788 OFFCURVE",
"319.976 381.562 OFFCURVE",
"285.59 440.746 CURVE SMOOTH",
"265.298 475.671 OFFCURVE",
"252.207 513.483 OFFCURVE",
"232.114 551.04 CURVE SMOOTH",
"211.074 590.365 OFFCURVE",
"184.13 630.773 OFFCURVE",
"172.198 658.657 CURVE",
"107.843 627.183 LINE",
"124.823 587.503 OFFCURVE",
"152.653 546.457 OFFCURVE",
"170.392 513.3 CURVE SMOOTH",
"189.938 476.767 OFFCURVE",
"204.156 433.006 OFFCURVE",
"226.514 397.832 CURVE SMOOTH",
"265.441 336.587 OFFCURVE",
"301.297 274.533 OFFCURVE",
"328.849 214.932 CURVE SMOOTH",
"353.645 161.292 OFFCURVE",
"377.202 126.708 OFFCURVE",
"401.587 78.534 CURVE SMOOTH",
"409.17 63.554 OFFCURVE",
"399.123 29.8 OFFCURVE",
"405.994 17.281 CURVE SMOOTH",
"413.407 3.776 OFFCURVE",
"466.01 -30.737 OFFCURVE",
"481.815 33.398 CURVE"
);
},
{
closed = 1;
nodes = (
"813.948 -10.269 OFFCURVE",
"801.21 21.596 OFFCURVE",
"807.407 110.208 CURVE SMOOTH",
"811.957 175.28 OFFCURVE",
"815.361 244.698 OFFCURVE",
"815.361 314.383 CURVE SMOOTH",
"815.361 359.823 OFFCURVE",
"813.3 390.587 OFFCURVE",
"809.102 427.754 CURVE SMOOTH",
"803.377 478.432 OFFCURVE",
"800.058 518.598 OFFCURVE",
"798.387 552.575 CURVE SMOOTH",
"797.647 567.623 OFFCURVE",
"797.139 582.292 OFFCURVE",
"796.623 597.197 CURVE",
"796.638 596.779 OFFCURVE",
"796.619 596.445 OFFCURVE",
"796.619 597.671 CURVE",
"796.619 601.909 OFFCURVE",
"796.98 611.73 OFFCURVE",
"797.179 614.876 CURVE",
"713.15 676.338 LINE",
"678.674 655.688 OFFCURVE",
"643.807 574.961 OFFCURVE",
"634.505 558.947 CURVE SMOOTH",
"604.857 507.904 OFFCURVE",
"583.45 447.452 OFFCURVE",
"556.96 388.079 CURVE SMOOTH",
"536.685 342.637 OFFCURVE",
"518.683 293.674 OFFCURVE",
"500.832 248.791 CURVE SMOOTH",
"478.394 192.372 OFFCURVE",
"464.549 164.872 OFFCURVE",
"441.752 131.728 CURVE SMOOTH",
"433.322 119.472 OFFCURVE",
"418.638 102.813 OFFCURVE",
"401.587 78.534 CURVE",
"419.669 27.653 LINE",
"413.435 -1.442 OFFCURVE",
"432.992 -4.295 OFFCURVE",
"458.872 32.557 CURVE SMOOTH",
"470.714 49.419 OFFCURVE",
"485.654 66.368 OFFCURVE",
"499.426 86.391 CURVE SMOOTH",
"528.723 128.984 OFFCURVE",
"546.844 171.371 OFFCURVE",
"565.877 219.226 CURVE SMOOTH",
"583.938 264.64 OFFCURVE",
"601.529 314.438 OFFCURVE",
"622.354 359.54 CURVE SMOOTH",
"644.431 407.353 OFFCURVE",
"662.146 462.143 OFFCURVE",
"695.035 518.766 CURVE SMOOTH",
"703.867 533.972 OFFCURVE",
"732.241 597.598 OFFCURVE",
"749.119 607.707 CURVE",
"727.319 619.922 LINE",
"727.188 617.86 OFFCURVE",
"726.619 605.086 OFFCURVE",
"726.619 597.671 CURVE SMOOTH",
"726.619 596.534 OFFCURVE",
"726.634 595.31 OFFCURVE",
"726.665 594.428 CURVE SMOOTH",
"727.193 579.172 OFFCURVE",
"727.724 563.855 OFFCURVE",
"728.472 548.647 CURVE SMOOTH",
"730.697 503.377 OFFCURVE",
"734.832 460.485 OFFCURVE",
"739.544 418.774 CURVE SMOOTH",
"743.831 380.821 OFFCURVE",
"745.361 352.991 OFFCURVE",
"745.361 314.383 CURVE SMOOTH",
"745.361 247.802 OFFCURVE",
"740.311 180.663 OFFCURVE",
"737.489 114.088 CURVE SMOOTH",
"734.154 35.408 OFFCURVE",
"720.552 20.731 OFFCURVE",
"748.438 20.731 CURVE",
"748.438 -10.269 LINE"
);
}
);
width = 887.78;
}
);
leftKerningGroup = M;
leftMetricsKey = H;
rightKerningGroup = M;
rightMetricsKey = H;
unicode = 004D;
},
{
glyphname = N;
lastChange = "2020-07-29 06:26:09 +0000";
layers = (
{
anchors = (
{
name = bottom;
position = "{359.96, 0}";
},
{
name = top;
position = "{379.96, 650}";
}
);
background = {
paths = (
{
closed = 1;
nodes = (
"579.96 0 LINE",
"641.96 46 LINE",
"179.96 650 LINE",
"117.96 604 LINE"
);
},
{
closed = 1;
nodes = (
"579.96 0 LINE",
"659.96 0 LINE",
"659.96 650 LINE",
"579.96 650 LINE"
);
},
{
closed = 1;
nodes = (
"99.96 0 LINE",
"179.96 0 LINE",
"179.96 650 LINE",
"99.96 650 LINE"
);
}
);
};
layerId = "BC735296-CD3A-4FA4-9AA9-EE2D747BC69E";
paths = (
{
closed = 1;
nodes = (
"740.78 -19.863 OFFCURVE",
"697.853 -5.144 OFFCURVE",
"707.642 -8.876 CURVE",
"679.639 1.799 OFFCURVE",
"619.846 89.502 OFFCURVE",
"593.371 120.363 CURVE SMOOTH",
"546.316 175.215 OFFCURVE",
"498.668 217.102 OFFCURVE",
"463.801 258.553 CURVE SMOOTH",
"421.462 308.887 OFFCURVE",
"389.757 362.967 OFFCURVE",
"353.39 417.142 CURVE SMOOTH",
"314.802 474.625 OFFCURVE",
"276.193 535.656 OFFCURVE",
"235.612 587.53 CURVE SMOOTH",
"219.976 607.516 OFFCURVE",
"207.532 622.551 OFFCURVE",
"199.027 633.773 CURVE SMOOTH",
"191.85 643.242 OFFCURVE",
"188.123 648.563 OFFCURVE",
"184.762 653.175 CURVE",
"74.915 628.285 LINE",
"74.915 613.119 OFFCURVE",
"70.122 591.198 OFFCURVE",
"70.122 561.086 CURVE SMOOTH",
"70.122 454.181 OFFCURVE",
"76.156 348.602 OFFCURVE",
"76.156 244.137 CURVE SMOOTH",
"76.156 161.054 OFFCURVE",
"81.85 79.666 OFFCURVE",
"81.85 0.504 CURVE",
"151.85 0.504 LINE",
"151.85 81.49 OFFCURVE",
"146.156 163.537 OFFCURVE",
"146.156 244.137 CURVE",
"146.156 350.512 OFFCURVE",
"140.122 456.09 OFFCURVE",
"140.122 561.086 CURVE",
"140.122 582.819 OFFCURVE",
"144.915 604.74 OFFCURVE",
"144.915 628.285 CURVE",
"144.915 575.113 OFFCURVE",
"126.644 608.18 OFFCURVE",
"128.192 606.055 CURVE SMOOTH",
"133.251 599.114 OFFCURVE",
"138.983 591.067 OFFCURVE",
"143.239 585.452 CURVE SMOOTH",
"156.479 567.982 OFFCURVE",
"168.917 553.015 OFFCURVE",
"180.478 538.237 CURVE SMOOTH",
"222.385 484.669 OFFCURVE",
"257.887 428.242 OFFCURVE",
"295.271 372.553 CURVE SMOOTH",
"332.155 317.608 OFFCURVE",
"367.656 257.673 OFFCURVE",
"410.232 207.056 CURVE SMOOTH",
"452.385 156.943 OFFCURVE",
"500.316 114.816 OFFCURVE",
"540.242 68.274 CURVE SMOOTH",
"567.856 36.085 OFFCURVE",
"636.814 -66.134 OFFCURVE",
"682.707 -83.629 CURVE SMOOTH",
"698.532 -89.661 OFFCURVE",
"722.048 -96.893 OFFCURVE",
"730.817 -99.816 CURVE",
"752.953 -23.921 LINE"
);
},
{
closed = 1;
nodes = (
"681.024 40.524 OFFCURVE",
"676.106 69.2 OFFCURVE",
"674.887 91.261 CURVE SMOOTH",
"671.277 156.589 OFFCURVE",
"669.83 222.312 OFFCURVE",
"668.048 288.421 CURVE SMOOTH",
"667.717 300.695 OFFCURVE",
"667.534 313.659 OFFCURVE",
"667.534 328.757 CURVE",
"667.534 393.473 OFFCURVE",
"670.988 459.262 OFFCURVE",
"670.988 526.355 CURVE SMOOTH",
"670.988 566.687 OFFCURVE",
"665.927 615.043 OFFCURVE",
"667.419 644.897 CURVE",
"597.507 648.892 LINE",
"595.665 612.056 OFFCURVE",
"600.988 560.804 OFFCURVE",
"600.988 526.355 CURVE SMOOTH",
"600.988 460.963 OFFCURVE",
"597.534 395.173 OFFCURVE",
"597.534 328.757 CURVE SMOOTH",
"597.534 314.425 OFFCURVE",
"597.696 300.259 OFFCURVE",
"598.073 286.265 CURVE SMOOTH",
"599.857 220.109 OFFCURVE",
"601.331 153.115 OFFCURVE",
"604.993 86.847 CURVE SMOOTH",
"606.494 59.699 OFFCURVE",
"611.024 34.139 OFFCURVE",
"611.024 9.06 CURVE",
"681.024 9.06 LINE"
);
}
);
width = 766.36;
}
);
leftMetricsKey = H;
unicode = 004E;
},
{
glyphname = Eng;
lastChange = "2020-07-29 06:26:09 +0000";
layers = (
{
anchors = (
{
name = bottom;
position = "{359.96, 0}";
},
{
name = top;
position = "{379.96, 650}";
}
);
layerId = "BC735296-CD3A-4FA4-9AA9-EE2D747BC69E";
paths = (
{
closed = 1;
nodes = (
"619.857 87.48 LINE",
"572.802 142.332 OFFCURVE",
"498.668 217.102 OFFCURVE",
"463.801 258.553 CURVE SMOOTH",
"421.462 308.887 OFFCURVE",
"389.757 362.967 OFFCURVE",
"353.39 417.142 CURVE SMOOTH",
"314.802 474.625 OFFCURVE",
"276.193 535.656 OFFCURVE",
"235.612 587.53 CURVE SMOOTH",
"219.976 607.516 OFFCURVE",
"207.532 622.551 OFFCURVE",
"199.027 633.773 CURVE SMOOTH",
"191.85 643.242 OFFCURVE",
"188.123 648.563 OFFCURVE",
"184.762 653.175 CURVE",
"74.915 628.285 LINE",
"74.915 613.119 OFFCURVE",
"70.122 591.198 OFFCURVE",
"70.122 561.086 CURVE SMOOTH",
"70.122 454.181 OFFCURVE",
"76.156 348.602 OFFCURVE",
"76.156 244.137 CURVE SMOOTH",
"76.156 161.054 OFFCURVE",
"81.85 79.666 OFFCURVE",
"81.85 0.504 CURVE",
"151.85 0.504 LINE",
"151.85 81.49 OFFCURVE",
"146.156 163.537 OFFCURVE",
"146.156 244.137 CURVE SMOOTH",
"146.156 350.512 OFFCURVE",
"140.122 456.09 OFFCURVE",
"140.122 561.086 CURVE SMOOTH",
"140.122 582.819 OFFCURVE",
"144.915 604.74 OFFCURVE",
"144.915 628.285 CURVE",
"144.915 575.113 OFFCURVE",
"126.644 608.18 OFFCURVE",
"128.192 606.055 CURVE SMOOTH",
"133.251 599.114 OFFCURVE",
"138.983 591.067 OFFCURVE",
"143.239 585.452 CURVE SMOOTH",
"156.479 567.982 OFFCURVE",
"168.917 553.015 OFFCURVE",
"180.478 538.237 CURVE SMOOTH",
"222.385 484.669 OFFCURVE",
"257.887 428.242 OFFCURVE",
"295.271 372.553 CURVE SMOOTH",
"332.155 317.608 OFFCURVE",
"367.656 257.673 OFFCURVE",
"410.232 207.056 CURVE SMOOTH",
"452.385 156.943 OFFCURVE",
"591.882 30.343 OFFCURVE",
"631.808 -16.199 CURVE"
);
},
{
closed = 1;
nodes = (
"671.138 50.998 OFFCURVE",
"676.106 69.2 OFFCURVE",
"674.887 91.261 CURVE SMOOTH",
"671.277 156.589 OFFCURVE",
"669.83 222.312 OFFCURVE",
"668.048 288.421 CURVE SMOOTH",
"667.717 300.695 OFFCURVE",
"667.534 313.659 OFFCURVE",
"667.534 328.757 CURVE SMOOTH",
"667.534 393.473 OFFCURVE",
"670.988 459.262 OFFCURVE",
"670.988 526.355 CURVE SMOOTH",
"670.988 566.687 OFFCURVE",
"665.927 615.043 OFFCURVE",
"667.419 644.897 CURVE",
"597.507 648.892 LINE",
"595.665 612.056 OFFCURVE",
"600.988 560.804 OFFCURVE",
"600.988 526.355 CURVE SMOOTH",
"600.988 460.963 OFFCURVE",
"597.534 395.173 OFFCURVE",
"597.534 328.757 CURVE SMOOTH",
"597.534 314.425 OFFCURVE",
"597.696 300.259 OFFCURVE",
"598.073 286.265 CURVE SMOOTH",
"599.857 220.109 OFFCURVE",
"601.331 153.115 OFFCURVE",
"604.993 86.847 CURVE SMOOTH",
"606.494 59.699 OFFCURVE",
"611.024 34.139 OFFCURVE",
"611.024 9.06 CURVE",
"671.138 19.534 LINE"
);
},
{
closed = 1;
nodes = (
"617.209 132.142 OFFCURVE",
"620.925 100.479 OFFCURVE",
"620.925 70.766 CURVE SMOOTH",
"620.925 54.821 OFFCURVE",
"619.938 43.472 OFFCURVE",
"617.92 31.743 CURVE SMOOTH",
"614.877 14.057 OFFCURVE",
"606.116 -8.082 OFFCURVE",
"600.433 -33.936 CURVE SMOOTH",
"586.67 -96.55 OFFCURVE",
"565.276 -126.533 OFFCURVE",
"522.402 -145.472 CURVE",
"523.815 -144.848 OFFCURVE",
"520.525 -145.449 OFFCURVE",
"512.864 -145.449 CURVE SMOOTH",
"493.059 -145.449 OFFCURVE",
"463.188 -140.649 OFFCURVE",
"448.67 -140.649 CURVE",
"448.67 -202.649 LINE",
"460.296 -202.649 OFFCURVE",
"490.827 -207.449 OFFCURVE",
"512.864 -207.449 CURVE SMOOTH",
"525.068 -207.449 OFFCURVE",
"534.49 -205.632 OFFCURVE",
"544.222 -201.333 CURVE SMOOTH",
"600.21 -176.601 OFFCURVE",
"634.661 -133.615 OFFCURVE",
"653.174 -49.394 CURVE SMOOTH",
"656.803 -32.885 OFFCURVE",
"666.026 -10.174 OFFCURVE",
"671.138 19.534 CURVE SMOOTH",
"673.54 33.494 OFFCURVE",
"674.925 51.567 OFFCURVE",
"674.925 70.766 CURVE",
"674.925 104.414 OFFCURVE",
"671.209 136.078 OFFCURVE",
"671.209 164.072 CURVE",
"617.209 164.072 LINE"
);
}
);
width = 766.36;
}
);
leftMetricsKey = N;
unicode = 014A;
},
{
glyphname = O;
lastChange = "2020-07-29 06:26:09 +0000";
layers = (
{
anchors = (
{
name = bottom;
position = "{338.4, 0}";
},
{
name = center;
position = "{378.4, 340}";
},
{
name = ogonek;
position = "{674.4, 10}";
},
{
name = top;
position = "{348.4, 650}";
},
{
name = topleft;
position = "{28.4, 680}";
},
{
name = topright;
position = "{728.4, 680}";
}
);
background = {
components = (
{
name = G;
transform = "{1, 0, 0, 1, 8.4, 0}";
}
);
};
layerId = "BC735296-CD3A-4FA4-9AA9-EE2D747BC69E";
paths = (
{
closed = 1;
nodes = (
"526.884 461.604 LINE",
"536.538 408.467 OFFCURVE",
"539.576 360.12 OFFCURVE",
"536.325 311.823 CURVE SMOOTH",
"529.653 212.712 OFFCURVE",
"475.038 102.57 OFFCURVE",
"422.71 81.634 CURVE SMOOTH",
"408.625 75.998 OFFCURVE",
"335.502 70.921 OFFCURVE",
"298.957 70.921 CURVE SMOOTH",
"271.209 70.921 OFFCURVE",
"242.66 84.103 OFFCURVE",
"204.169 112.271 CURVE SMOOTH",
"185.136 126.199 OFFCURVE",
"185.27 127.925 OFFCURVE",
"170.16 191.228 CURVE SMOOTH",
"158.99 238.026 OFFCURVE",
"151.843 283.606 OFFCURVE",
"143.894 331.051 CURVE SMOOTH",
"136.361 376.019 OFFCURVE",
"143.484 379.442 OFFCURVE",
"135.315 339.541 CURVE",
"156.656 443.777 OFFCURVE",
"244.625 571.207 OFFCURVE",
"306.623 576.87 CURVE SMOOTH",
"309.712 577.152 OFFCURVE",
"314.42 577.441 OFFCURVE",
"318.463 577.441 CURVE SMOOTH",
"359.546 577.441 OFFCURVE",
"442.965 557.326 OFFCURVE",
"476.831 528.929 CURVE",
"526.884 461.604 LINE",
"566.574 523.426 LINE",
"583.211 540.331 OFFCURVE",
"566.419 552.824 OFFCURVE",
"521.807 590.231 CURVE SMOOTH",
"473.049 631.114 OFFCURVE",
"375.221 657.441 OFFCURVE",
"318.463 657.441 CURVE SMOOTH",
"312.63 657.441 OFFCURVE",
"306.007 657.091 OFFCURVE",
"299.045 656.4 CURVE SMOOTH",
"185.28 645.099 OFFCURVE",
"86.931 454.22 OFFCURVE",
"66.737 355.587 CURVE SMOOTH",
"63.745 340.969 OFFCURVE",
"74.034 322.744 OFFCURVE",
"74.856 317.834 CURVE SMOOTH",
"82.997 269.24 OFFCURVE",
"90.615 220.656 OFFCURVE",
"102.073 172.654 CURVE SMOOTH",
"112.678 128.223 OFFCURVE",
"117.935 80.566 OFFCURVE",
"162.83 47.711 CURVE SMOOTH",
"215.102 9.459 OFFCURVE",
"255.946 -9.079 OFFCURVE",
"298.957 -9.079 CURVE SMOOTH",
"345.327 -9.079 OFFCURVE",
"424.229 -2.438 OFFCURVE",
"448.713 7.358 CURVE SMOOTH",
"544.141 45.539 OFFCURVE",
"600.044 215.494 OFFCURVE",
"606.167 306.45 CURVE SMOOTH",
"609.787 360.222 OFFCURVE",
"606.335 417.675 OFFCURVE",
"595.757 475.904 CURVE SMOOTH",
"595.358 478.099 OFFCURVE",
"595.627 557.022 OFFCURVE",
"563.427 530.532 CURVE"
);
}
);
width = 648.6;
}
);
leftKerningGroup = O;
rightKerningGroup = O;
unicode = 004F;
},
{
glyphname = Oslash;
lastChange = "2020-07-29 06:26:09 +0000";
layers = (
{
anchors = (
{
name = bottom;
position = "{355, 0}";
},
{
name = top;
position = "{355, 680}";
}
);
components = (
{
name = O;
}
);
layerId = "BC735296-CD3A-4FA4-9AA9-EE2D747BC69E";
paths = (
{
closed = 1;
nodes = (
"182.861 -24.82 OFFCURVE",
"205.995 67.563 OFFCURVE",
"245.081 135.748 CURVE SMOOTH",
"268.298 176.25 OFFCURVE",
"304.582 216.528 OFFCURVE",
"334.222 268.989 CURVE SMOOTH",
"354.94 305.658 OFFCURVE",
"372.005 345.706 OFFCURVE",
"395.947 384.724 CURVE SMOOTH",
"402.827 395.935 OFFCURVE",
"416.767 410.065 OFFCURVE",
"431.989 432.132 CURVE SMOOTH",
"442.689 447.643 OFFCURVE",
"448.726 467.057 OFFCURVE",
"457.51 483.483 CURVE SMOOTH",
"486.07 536.888 OFFCURVE",
"554.819 623.713 OFFCURVE",
"554.819 702.107 CURVE",
"500.819 702.107 LINE",
"500.819 654.788 OFFCURVE",
"444.453 582.064 OFFCURVE",
"409.892 517.437 CURVE SMOOTH",
"400.76 500.36 OFFCURVE",
"397.98 488.152 OFFCURVE",
"387.538 473.014 CURVE SMOOTH",
"381.338 464.025 OFFCURVE",
"366 448.582 OFFCURVE",
"349.922 422.381 CURVE SMOOTH",
"327.881 386.463 OFFCURVE",
"310.22 345.138 OFFCURVE",
"287.207 304.406 CURVE SMOOTH",
"265.975 266.826 OFFCURVE",
"229.852 226.715 OFFCURVE",
"198.232 171.555 CURVE SMOOTH",
"152.712 92.144 OFFCURVE",
"142.318 21.905 OFFCURVE",
"91.343 -46.406 CURVE",
"134.621 -89.466 LINE"
);
}
);
width = 648.6;
}
);
leftKerningGroup = O;
leftMetricsKey = O;
rightKerningGroup = O;
rightMetricsKey = O;
unicode = 00D8;
},
{
glyphname = OE;
lastChange = "2020-07-29 06:26:09 +0000";
layers = (
{
anchors = (
{
name = bottom;
position = "{483, 0}";
},
{
name = top;
position = "{483, 680}";
}
);
background = {
components = (
{
name = E;
transform = "{1, 0, 0, 1, 366.197, 0}";
}
);
paths = (
{
closed = 1;
nodes = (
"446 573 LINE",
"905 573 LINE",
"905 650 LINE",
"446 650 LINE"
);
},
{
closed = 1;
nodes = (
"648 285 LINE",
"836 285 LINE",
"836 362 LINE",
"648 362 LINE"
);
},
{
closed = 1;
nodes = (
"446 0 LINE",
"906 0 LINE",
"906 77 LINE",
"446 77 LINE"
);
}
);
};
components = (
{
name = O;
}
);
layerId = "BC735296-CD3A-4FA4-9AA9-EE2D747BC69E";
paths = (
{
closed = 1;
nodes = (
"394.913 564.29 OFFCURVE",
"406.986 562.196 OFFCURVE",
"430.502 562.196 CURVE SMOOTH",
"466.569 562.196 OFFCURVE",
"515.715 567.818 OFFCURVE",
"530.411 568.636 CURVE SMOOTH",
"575.751 571.162 OFFCURVE",
"619.553 578.506 OFFCURVE",
"664.541 579.923 CURVE SMOOTH",
"684.798 580.561 OFFCURVE",
"705.245 580.775 OFFCURVE",
"725.858 580.775 CURVE SMOOTH",
"767.083 580.775 OFFCURVE",
"808.516 579.908 OFFCURVE",
"849.956 579.908 CURVE",
"849.956 651.908 LINE",
"808.893 651.908 OFFCURVE",
"767.46 652.775 OFFCURVE",
"725.858 652.775 CURVE SMOOTH",
"701.703 652.775 OFFCURVE",
"681.862 652.486 OFFCURVE",
"662.841 651.887 CURVE SMOOTH",
"617.324 650.454 OFFCURVE",
"572.426 643.032 OFFCURVE",
"527.407 640.525 CURVE SMOOTH",
"513.985 639.777 OFFCURVE",
"464.524 634.196 OFFCURVE",
"430.502 634.196 CURVE SMOOTH",
"410.812 634.196 OFFCURVE",
"404.427 637.561 OFFCURVE",
"413.145 631.923 CURVE",
"383.818 571.466 LINE"
);
},
{
closed = 1;
nodes = (
"771.534 368.814 OFFCURVE",
"745.293 368.16 OFFCURVE",
"713.52 368.16 CURVE SMOOTH",
"666.241 368.16 OFFCURVE",
"618.662 369.559 OFFCURVE",
"571.161 369.559 CURVE",
"571.161 297.559 LINE",
"618.132 297.559 OFFCURVE",
"665.712 296.16 OFFCURVE",
"713.52 296.16 CURVE SMOOTH",
"745.26 296.16 OFFCURVE",
"771.847 296.778 OFFCURVE",
"797.684 298.179 CURVE",
"794.76 370.073 LINE"
);
},
{
closed = 1;
nodes = (
"766.704 61.875 OFFCURVE",
"670.747 60.645 OFFCURVE",
"584.357 60.645 CURVE SMOOTH",
"509.402 60.645 OFFCURVE",
"434.288 61.576 OFFCURVE",
"359.028 61.576 CURVE",
"359.028 -0.424 LINE",
"434.066 -0.424 OFFCURVE",
"509.179 -1.355 OFFCURVE",
"584.357 -1.355 CURVE SMOOTH",
"671.005 -1.355 OFFCURVE",
"768.072 -0.109 OFFCURVE",
"855.534 5.284 CURVE",
"852.21 67.148 LINE"
);
}
);
width = 916.78;
}
);
leftKerningGroup = O;
leftMetricsKey = O;
rightMetricsKey = E;
unicode = 0152;
},
{
glyphname = P;
lastChange = "2020-07-29 06:26:09 +0000";
layers = (
{
anchors = (
{
name = bottom;
position = "{296, 0}";
},
{
name = top;
position = "{296, 680}";
}
);
background = {
components = (
{
name = "fut-v";
transform = "{1, 0, 0, 1, 20, 0}";
}
);
paths = (
{
closed = 1;
nodes = (
"426 573 OFFCURVE",
"481 523 OFFCURVE",
"481 440 CURVE",
"481 360 OFFCURVE",
"426 307 OFFCURVE",
"346 307 CURVE",
"346 230 LINE",
"466 230 OFFCURVE",
"561 307 OFFCURVE",
"561 440 CURVE",
"561 573 OFFCURVE",
"466 650 OFFCURVE",
"346 650 CURVE",
"346 573 LINE"
);
},
{
closed = 1;
nodes = (
"156 573 LINE",
"346 573 LINE",
"346 650 LINE",
"156 650 LINE"
);
},
{
closed = 1;
nodes = (
"156 230 LINE",
"201 230 OFFCURVE",
"301 230 OFFCURVE",
"346 230 CURVE",
"346 307 LINE",
"156 307 LINE"
);
}
);
};
layerId = "BC735296-CD3A-4FA4-9AA9-EE2D747BC69E";
paths = (
{
closed = 1;
nodes = (
"267.321 231.968 OFFCURVE",
"363.58 230.927 OFFCURVE",
"407.9 244.56 CURVE SMOOTH",
"471.97 264.268 OFFCURVE",
"535.625 345.587 OFFCURVE",
"535.625 424.831 CURVE SMOOTH",
"535.625 484.497 OFFCURVE",
"520.032 539.732 OFFCURVE",
"498.824 567.676 CURVE SMOOTH",
"448.761 633.641 OFFCURVE",
"383.612 657.23 OFFCURVE",
"259.634 657.23 CURVE SMOOTH",
"244.88 657.23 OFFCURVE",
"229.439 648.739 OFFCURVE",
"211.305 647.635 CURVE",
"75.688 639.844 LINE",
"71.381 530.639 LINE",
"77.889 443.866 OFFCURVE",
"78.542 357.192 OFFCURVE",
"83.669 269.416 CURVE SMOOTH",
"84.868 248.887 OFFCURVE",
"85.349 227.526 OFFCURVE",
"85.349 200.352 CURVE SMOOTH",
"85.349 175.763 OFFCURVE",
"84.962 150.847 OFFCURVE",
"84.962 125.683 CURVE SMOOTH",
"84.962 83.069 OFFCURVE",
"86.141 38.45 OFFCURVE",
"92.342 -4.632 CURVE",
"161.628 6.766 LINE",
"156.804 40.281 OFFCURVE",
"154.962 74.821 OFFCURVE",
"154.962 125.683 CURVE SMOOTH",
"154.962 150.148 OFFCURVE",
"155.349 175.064 OFFCURVE",
"155.349 200.352 CURVE SMOOTH",
"155.349 230.05 OFFCURVE",
"154.767 253.24 OFFCURVE",
"153.55 274.081 CURVE SMOOTH",
"148.482 360.838 OFFCURVE",
"147.763 448.913 OFFCURVE",
"141.185 536.623 CURVE SMOOTH",
"136.363 600.907 OFFCURVE",
"182.828 641.902 OFFCURVE",
"125.58 583.73 CURVE SMOOTH",
"83.777 541.253 OFFCURVE",
"138.082 578.057 OFFCURVE",
"215.559 575.783 CURVE SMOOTH",
"230.979 575.33 OFFCURVE",
"245.925 585.23 OFFCURVE",
"259.634 585.23 CURVE SMOOTH",
"361.335 585.23 OFFCURVE",
"411.677 560.669 OFFCURVE",
"443.064 519.313 CURVE SMOOTH",
"456.156 502.062 OFFCURVE",
"465.625 469.533 OFFCURVE",
"465.625 424.831 CURVE SMOOTH",
"465.625 379.973 OFFCURVE",
"423.795 322.244 OFFCURVE",
"387.319 311.024 CURVE SMOOTH",
"355.175 301.136 OFFCURVE",
"259.012 301.968 OFFCURVE",
"217.836 301.968 CURVE",
"226.836 231.968 LINE"
);
}
);
width = 579.9;
}
);
rightKerningGroup = P;
unicode = 0050;
},
{
glyphname = Thorn;
lastChange = "2020-07-29 06:26:09 +0000";
layers = (
{
layerId = "BC735296-CD3A-4FA4-9AA9-EE2D747BC69E";
paths = (
{
closed = 1;
nodes = (
"113.597 -12.665 LINE",
"115.93 8.241 OFFCURVE",
"117.946 23.437 OFFCURVE",
"117.875 41.159 CURVE SMOOTH",
"123.773 100.569 OFFCURVE",
"118.797 164.954 OFFCURVE",
"114.956 230.385 CURVE SMOOTH",
"110.895 330.882 OFFCURVE",
"112.812 406.868 OFFCURVE",
"121.872 481.95 CURVE SMOOTH",
"131.12 534.226 OFFCURVE",
"160.953 609.301 OFFCURVE",
"148.323 680.928 CURVE",
"81.308 675.343 LINE",
"90.103 625.465 OFFCURVE",
"66.239 562.701 OFFCURVE",
"57.98 493.338 CURVE SMOOTH",
"44.478 411.588 OFFCURVE",
"44.064 321.086 OFFCURVE",
"49.208 228.512 CURVE SMOOTH",
"51.307 169.321 OFFCURVE",
"56.499 110.349 OFFCURVE",
"53.562 48.145 CURVE SMOOTH",
"51.689 41.518 OFFCURVE",
"49.676 28.202 OFFCURVE",
"48.085 2.95 CURVE SMOOTH",
"45.697 -0.719 OFFCURVE",
"44.738 -10.083 OFFCURVE",
"44.159 -17.426 CURVE",
"121.677 -28.784 LINE",
"121.366 -26.493 OFFCURVE",
"121.074 -24.199 OFFCURVE",
"120.67 -21.907 CURVE"
);
},
{
closed = 1;
nodes = (
"152.906 82.495 OFFCURVE",
"156.604 83.824 OFFCURVE",
"172.226 83.824 CURVE SMOOTH",
"195.939 83.824 OFFCURVE",
"233.624 85.345 OFFCURVE",
"231.06 85.487 CURVE SMOOTH",
"272.302 87.498 OFFCURVE",
"338.988 90.677 OFFCURVE",
"379.571 115.157 CURVE SMOOTH",
"455.695 153.416 OFFCURVE",
"525.437 182.223 OFFCURVE",
"534.922 257.097 CURVE SMOOTH",
"537.598 262.875 OFFCURVE",
"538.188 278.094 OFFCURVE",
"534.741 297.644 CURVE",
"532.436 310.718 OFFCURVE",
"528.616 325.901 OFFCURVE",
"526.041 338.733 CURVE SMOOTH",
"515.042 387.272 OFFCURVE",
"492.864 432.417 OFFCURVE",
"465.886 458.755 CURVE SMOOTH",
"428.115 487.574 OFFCURVE",
"367.304 508.803 OFFCURVE",
"274.099 530.08 CURVE SMOOTH",
"233.418 537.705 OFFCURVE",
"187.411 551.616 OFFCURVE",
"148.908 551.616 CURVE SMOOTH",
"132.697 551.616 OFFCURVE",
"121.867 549.504 OFFCURVE",
"109.937 546.221 CURVE",
"129.842 477.948 LINE",
"135.279 479.326 OFFCURVE",
"144.275 479.616 OFFCURVE",
"150.434 479.616 CURVE SMOOTH",
"189.255 479.616 OFFCURVE",
"231.991 465.601 OFFCURVE",
"264.119 457.504 CURVE SMOOTH",
"350.813 439.92 OFFCURVE",
"414.668 416.535 OFFCURVE",
"429.728 400.365 CURVE SMOOTH",
"451.829 384.896 OFFCURVE",
"465.738 363.313 OFFCURVE",
"474.033 324.337 CURVE SMOOTH",
"476.142 315.948 OFFCURVE",
"480.069 301.455 OFFCURVE",
"482.711 286.474 CURVE SMOOTH",
"484.119 278.485 OFFCURVE",
"484.934 276.261 OFFCURVE",
"485.732 269.611 CURVE SMOOTH",
"476.503 222.157 OFFCURVE",
"416.454 210.524 OFFCURVE",
"355.329 175.121 CURVE SMOOTH",
"331.931 165.229 OFFCURVE",
"295.784 160.59 OFFCURVE",
"221.664 157.375 CURVE SMOOTH",
"218.433 157.475 OFFCURVE",
"187.916 155.824 OFFCURVE",
"170.701 155.824 CURVE SMOOTH",
"150.127 155.824 OFFCURVE",
"152.204 158.317 OFFCURVE",
"170.762 142.976 CURVE",
"143.557 91.112 LINE"
);
}
);
width = 604.47;
}
);
leftMetricsKey = P;
rightMetricsKey = P;
unicode = 00DE;
},
{
glyphname = Q;
lastChange = "2020-07-29 06:26:09 +0000";
layers = (
{
anchors = (
{
name = bottom;
position = "{362.2, 0}";
},
{
name = top;
position = "{362.2, 680}";
}
);
associatedMasterId = "BC735296-CD3A-4FA4-9AA9-EE2D747BC69E";
background = {
components = (
{
name = O;
transform = "{1, 0, 0, 1, -7.8, 0}";
}
);
paths = (
{
closed = 1;
nodes = (
"494.877 482.984 OFFCURVE",
"509.469 456.312 OFFCURVE",
"509.469 452.041 CURVE SMOOTH",
"509.469 427.098 OFFCURVE",
"518.887 398.402 OFFCURVE",
"519.159 393.436 CURVE SMOOTH",
"520.621 366.797 OFFCURVE",
"522.211 334.024 OFFCURVE",
"522.211 299.142 CURVE SMOOTH",
"522.211 258.119 OFFCURVE",
"500.829 205.597 OFFCURVE",
"455.844 134.074 CURVE SMOOTH",
"434.066 99.447 OFFCURVE",
"381.67 75.449 OFFCURVE",
"324.453 75.449 CURVE SMOOTH",
"279.763 75.449 OFFCURVE",
"238.278 89.971 OFFCURVE",
"214.905 113.013 CURVE SMOOTH",
"188.108 139.431 OFFCURVE",
"172.06 165.488 OFFCURVE",
"160.587 201.205 CURVE SMOOTH",
"148.146 239.936 OFFCURVE",
"136.628 273.863 OFFCURVE",
"136.628 307.448 CURVE",
"136.628 359.375 OFFCURVE",
"143.052 401.842 OFFCURVE",
"156.394 438.759 CURVE SMOOTH",
"180.014 504.116 OFFCURVE",
"222.189 557.467 OFFCURVE",
"258.294 569.543 CURVE SMOOTH",
"268.447 572.939 OFFCURVE",
"329.791 578.165 OFFCURVE",
"361.515 578.165 CURVE SMOOTH",
"371.859 578.165 OFFCURVE",
"381.595 577.645 OFFCURVE",
"382.922 577.285 CURVE SMOOTH",
"399.622 572.755 OFFCURVE",
"414.115 560.993 OFFCURVE",
"433.654 549.044 CURVE SMOOTH",
"445.187 541.991 OFFCURVE",
"475.704 509.56 OFFCURVE",
"499.339 497.656 CURVE",
"530.827 569.106 LINE",
"506.938 581.137 OFFCURVE",
"500.061 599.016 OFFCURVE",
"470.174 617.293 CURVE SMOOTH",
"450.803 629.14 OFFCURVE",
"426.863 647.546 OFFCURVE",
"401.249 654.494 CURVE SMOOTH",
"391.775 657.065 OFFCURVE",
"379.294 658.165 OFFCURVE",
"361.515 658.165 CURVE SMOOTH",
"319.292 658.165 OFFCURVE",
"254.87 651.693 OFFCURVE",
"236.09 645.412 CURVE SMOOTH",
"180.48 626.812 OFFCURVE",
"122.635 554.698 OFFCURVE",
"90.561 465.95 CURVE SMOOTH",
"74.874 422.544 OFFCURVE",
"66.628 367.727 OFFCURVE",
"66.628 307.448 CURVE SMOOTH",
"66.628 259.09 OFFCURVE",
"82.609 212.015 OFFCURVE",
"93.941 176.739 CURVE SMOOTH",
"109.424 128.536 OFFCURVE",
"133.775 87.577 OFFCURVE",
"165.762 56.043 CURVE SMOOTH",
"205.199 17.164 OFFCURVE",
"262.28 -4.551 OFFCURVE",
"324.453 -4.551 CURVE SMOOTH",
"405.711 -4.551 OFFCURVE",
"477.231 31.273 OFFCURVE",
"515.099 91.482 CURVE SMOOTH",
"540.856 132.434 OFFCURVE",
"592.211 218.848 OFFCURVE",
"592.211 299.142 CURVE",
"592.211 336.206 OFFCURVE",
"590.501 371.442 OFFCURVE",
"589.054 397.819 CURVE SMOOTH",
"588.126 414.743 OFFCURVE",
"579.469 441.065 OFFCURVE",
"579.469 452.041 CURVE SMOOTH",
"579.469 480.898 OFFCURVE",
"548.434 537.392 OFFCURVE",
"542.608 549.044 CURVE",
"486.369 500 LINE"
);
},
{
closed = 1;
nodes = (
"1236.015 -176.421 OFFCURVE",
"1224.916 -185.643 OFFCURVE",
"1217.329 -189.417 CURVE",
"1203.147 -197.304 OFFCURVE",
"1175.442 -202.342 OFFCURVE",
"1121.178 -206 CURVE",
"1111.808 -206 OFFCURVE",
"1102.688 -206 OFFCURVE",
"1092 -206 CURVE SMOOTH",
"1006.449 -206 OFFCURVE",
"894.427 -212.61 OFFCURVE",
"823.759 -193.957 CURVE",
"806.962 -188.667 OFFCURVE",
"788.623 -182.291 OFFCURVE",
"773.19 -178.559 CURVE",
"714.64 -167.451 OFFCURVE",
"657.804 -155.889 OFFCURVE",
"605.988 -136.105 CURVE",
"605.484 -135.892 LINE",
"556.327 -118.195 OFFCURVE",
"510.604 -109.351 OFFCURVE",
"461.123 -90.164 CURVE",
"461.602 -90.382 LINE",
"437.82 -80.653 OFFCURVE",
"414.078 -73.274 OFFCURVE",
"395.586 -64.868 CURVE",
"396.147 -65.168 LINE",
"368.249 -51.735 OFFCURVE",
"332.747 -28.544 OFFCURVE",
"299.961 -22.323 CURVE",
"287.681 -20.568 OFFCURVE",
"281.89 -20 OFFCURVE",
"275 -20 CURVE SMOOTH",
"194.45 -20 OFFCURVE",
"130 -67.566 OFFCURVE",
"130 -132 CURVE SMOOTH",
"130 -141.315 OFFCURVE",
"131.64 -151.74 OFFCURVE",
"134.444 -160.142 CURVE",
"140.483 -183.174 OFFCURVE",
"152.603 -200.142 OFFCURVE",
"162.215 -213.6 CURVE",
"219.177 -167.101 LINE",
"204.201 -146.135 OFFCURVE",
"202.027 -141.552 OFFCURVE",
"201.585 -137.203 CURVE",
"199.706 -130.833 OFFCURVE",
"200 -133.828 OFFCURVE",
"200 -132 CURVE SMOOTH",
"200 -119.347 OFFCURVE",
"227.398 -90 OFFCURVE",
"265 -90 CURVE SMOOTH",
"267.94 -90 OFFCURVE",
"271.077 -90.245 OFFCURVE",
"289.37 -101.419 CURVE",
"312.674 -106.88 OFFCURVE",
"339.804 -115.741 OFFCURVE",
"365.78 -128.248 CURVE",
"366.62 -128.698 LINE",
"393.583 -140.953 OFFCURVE",
"416.687 -147.895 OFFCURVE",
"435.097 -155.426 CURVE",
"435.816 -155.753 LINE",
"483.786 -174.354 OFFCURVE",
"530.198 -183.595 OFFCURVE",
"581.774 -202.163 CURVE",
"581.019 -201.842 LINE",
"640.739 -224.645 OFFCURVE",
"702.924 -237.3 OFFCURVE",
"760.049 -248.136 CURVE",
"776.305 -252.343 OFFCURVE",
"791.064 -257.697 OFFCURVE",
"806.918 -262.576 CURVE",
"884.622 -282.941 OFFCURVE",
"1001.094 -277 OFFCURVE",
"1092 -277 CURVE SMOOTH",
"1104.143 -277 OFFCURVE",
"1113.055 -277 OFFCURVE",
"1123.207 -277 CURVE",
"1152.093 -275.061 OFFCURVE",
"1206.309 -271.952 OFFCURVE",
"1243.974 -254.312 CURVE SMOOTH",
"1252.238 -250.441 OFFCURVE",
"1268.982 -242.413 OFFCURVE",
"1264.513 -243.226 CURVE",
"1251.991 -173.516 LINE"
);
}
);
};
layerId = "BA488879-99BE-4920-8A2C-75AFBE1C285B";
name = "Aug 11 17, 18:34";
paths = (
{
closed = 1;
nodes = (
"794.243 -27.499 OFFCURVE",
"1622.4 410.844 OFFCURVE",
"1071.495 -133.038 CURVE SMOOTH",
"1047.402 -156.824 OFFCURVE",
"1011.535 -177.649 OFFCURVE",
"975.136 -204.248 CURVE SMOOTH",
"923.288 -242.136 OFFCURVE",
"889.497 -255.473 OFFCURVE",
"846.168 -255.473 CURVE SMOOTH",
"818.66 -255.473 OFFCURVE",
"787.286 -250.191 OFFCURVE",
"745.62 -244.946 CURVE SMOOTH",
"713.442 -240.896 OFFCURVE",
"687.853 -218.683 OFFCURVE",
"657.681 -200.74 CURVE SMOOTH",
"607.515 -170.907 OFFCURVE",
"562.704 -137.646 OFFCURVE",
"517.253 -110.68 CURVE SMOOTH",
"482.335 -89.964 OFFCURVE",
"450.404 -75.048 OFFCURVE",
"420.698 -59.964 CURVE SMOOTH",
"386.138 -42.416 OFFCURVE",
"353.59 -32.571 OFFCURVE",
"325.38 -21.201 CURVE SMOOTH",
"285.504 -5.129 OFFCURVE",
"235.24 14.105 OFFCURVE",
"187.695 14.105 CURVE SMOOTH",
"155.994 14.105 OFFCURVE",
"129.138 5.607 OFFCURVE",
"104.073 -12.384 CURVE SMOOTH",
"99.912 -15.37 OFFCURVE",
"78.826 -19.19 OFFCURVE",
"68.061 -46.219 CURVE SMOOTH",
"65.078 -53.71 OFFCURVE",
"63.101 -64.157 OFFCURVE",
"63.101 -72.39 CURVE SMOOTH",
"63.101 -109.542 OFFCURVE",
"88.855 -128.641 OFFCURVE",
"137.795 -128.641 CURVE SMOOTH",
"157.422 -128.641 OFFCURVE",
"177.076 -125.923 OFFCURVE",
"187.799 -124.57 CURVE SMOOTH",
"258.895 -115.597 OFFCURVE",
"335.639 -72.172 OFFCURVE",
"402.301 -3.504 CURVE SMOOTH",
"446.786 42.32 OFFCURVE",
"474.211 104.185 OFFCURVE",
"499.046 163.614 CURVE SMOOTH",
"527.883 232.619 OFFCURVE",
"543.156 303.894 OFFCURVE",
"543.156 369.696 CURVE",
"543.156 443.883 OFFCURVE",
"523.49 516.07 OFFCURVE",
"486.85 576.278 CURVE SMOOTH",
"451.679 634.071 OFFCURVE",
"387.023 667.011 OFFCURVE",
"311.667 667.011 CURVE SMOOTH",
"265.576 667.011 OFFCURVE",
"223.016 653.895 OFFCURVE",
"188.097 628.863 CURVE SMOOTH",
"134.197 590.224 OFFCURVE",
"81.415 458.878 OFFCURVE",
"87.165 378.522 CURVE SMOOTH",
"91.834 313.271 OFFCURVE",
"156.448 255.547 OFFCURVE",
"223.158 255.547 CURVE SMOOTH",
"257.422 255.547 OFFCURVE",
"284.53 270.864 OFFCURVE",
"305.462 301.701 CURVE SMOOTH",
"311.963 311.279 OFFCURVE",
"315.88 328.435 OFFCURVE",
"315.88 346.318 CURVE",
"315.88 358.582 OFFCURVE",
"314.481 369.551 OFFCURVE",
"314.481 377.168 CURVE",
"260.481 377.168 LINE",
"260.481 365.162 OFFCURVE",
"261.88 354.194 OFFCURVE",
"261.88 346.318 CURVE SMOOTH",
"261.88 341.265 OFFCURVE",
"261.09 342.591 OFFCURVE",
"260.783 342.139 CURVE SMOOTH",
"255.104 333.773 OFFCURVE",
"240.454 327.547 OFFCURVE",
"223.158 327.547 CURVE SMOOTH",
"185.454 327.547 OFFCURVE",
"142.83 358.458 OFFCURVE",
"141.027 383.661 CURVE SMOOTH",
"136.857 441.936 OFFCURVE",
"177.702 540.341 OFFCURVE",
"219.558 570.345 CURVE SMOOTH",
"240.447 585.319 OFFCURVE",
"276.044 595.011 OFFCURVE",
"311.667 595.011 CURVE SMOOTH",
"367.237 595.011 OFFCURVE",
"421.306 570.749 OFFCURVE",
"440.72 538.848 CURVE SMOOTH",
"474.276 483.709 OFFCURVE",
"489.156 431.717 OFFCURVE",
"489.156 369.696 CURVE SMOOTH",
"489.156 313.396 OFFCURVE",
"476.452 256.537 OFFCURVE",
"449.222 191.376 CURVE SMOOTH",
"418.247 117.256 OFFCURVE",
"396.79 80.882 OFFCURVE",
"363.555 46.647 CURVE SMOOTH",
"309.658 -8.872 OFFCURVE",
"242.805 -45.341 OFFCURVE",
"181.037 -53.137 CURVE SMOOTH",
"172.315 -54.238 OFFCURVE",
"154.933 -56.641 OFFCURVE",
"137.795 -56.641 CURVE SMOOTH",
"100.885 -56.641 OFFCURVE",
"117.101 -44.687 OFFCURVE",
"117.101 -72.39 CURVE SMOOTH",
"117.101 -74.136 OFFCURVE",
"116.376 -77.512 OFFCURVE",
"118.229 -72.859 CURVE",
"112.633 -86.91 OFFCURVE",
"113.843 -86.464 OFFCURVE",
"135.561 -70.876 CURVE SMOOTH",
"146.785 -62.82 OFFCURVE",
"165.869 -57.895 OFFCURVE",
"187.695 -57.895 CURVE SMOOTH",
"218.374 -57.895 OFFCURVE",
"252.902 -66.905 OFFCURVE",
"305.193 -87.981 CURVE SMOOTH",
"341.502 -102.615 OFFCURVE",
"372.8 -112.255 OFFCURVE",
"396.25 -124.162 CURVE SMOOTH",
"431.891 -142.259 OFFCURVE",
"464.719 -157.782 OFFCURVE",
"489.699 -172.602 CURVE SMOOTH",
"540.784 -202.91 OFFCURVE",
"585.573 -236.157 OFFCURVE",
"630.08 -262.624 CURVE SMOOTH",
"663.304 -282.383 OFFCURVE",
"697.854 -311.219 OFFCURVE",
"738.876 -316.382 CURVE SMOOTH",
"783.284 -321.972 OFFCURVE",
"815.614 -327.473 OFFCURVE",
"846.168 -327.473 CURVE SMOOTH",
"899.197 -327.473 OFFCURVE",
"941.889 -309.957 OFFCURVE",
"1006.996 -262.38 CURVE SMOOTH",
"1035.166 -241.795 OFFCURVE",
"1072.621 -220.619 OFFCURVE",
"1109.433 -184.276 CURVE SMOOTH",
"1175.886 -118.67 OFFCURVE",
"1177.38 -82.241 OFFCURVE",
"1134.13 -67.704 CURVE",
"1116.926 -135.953 LINE"
);
}
);
width = 649.7;
},
{
anchors = (
{
name = bottom;
position = "{362.2, 0}";
},
{
name = top;
position = "{362.2, 680}";
}
);
background = {
components = (
{
name = O;
transform = "{1, 0, 0, 1, -7.8, 0}";
}
);
};
layerId = "BC735296-CD3A-4FA4-9AA9-EE2D747BC69E";
paths = (
{
closed = 1;
nodes = (
"494.877 482.984 OFFCURVE",
"509.469 456.312 OFFCURVE",
"509.469 452.041 CURVE SMOOTH",
"509.469 427.098 OFFCURVE",
"518.887 398.402 OFFCURVE",
"519.159 393.436 CURVE SMOOTH",
"520.621 366.797 OFFCURVE",
"522.211 334.024 OFFCURVE",
"522.211 299.142 CURVE SMOOTH",
"522.211 258.119 OFFCURVE",
"500.829 205.597 OFFCURVE",
"455.844 134.074 CURVE SMOOTH",
"434.066 99.447 OFFCURVE",
"381.67 75.449 OFFCURVE",
"324.453 75.449 CURVE SMOOTH",
"279.763 75.449 OFFCURVE",
"238.278 89.971 OFFCURVE",
"214.905 113.013 CURVE SMOOTH",
"188.108 139.431 OFFCURVE",
"172.06 165.488 OFFCURVE",
"160.587 201.205 CURVE SMOOTH",
"148.146 239.936 OFFCURVE",
"136.628 273.863 OFFCURVE",
"136.628 307.448 CURVE",
"136.628 359.375 OFFCURVE",
"143.052 401.842 OFFCURVE",
"156.394 438.759 CURVE SMOOTH",
"180.014 504.116 OFFCURVE",
"222.189 557.467 OFFCURVE",
"258.294 569.543 CURVE SMOOTH",
"268.447 572.939 OFFCURVE",
"329.791 578.165 OFFCURVE",
"361.515 578.165 CURVE SMOOTH",
"371.859 578.165 OFFCURVE",
"381.595 577.645 OFFCURVE",
"382.922 577.285 CURVE SMOOTH",
"399.622 572.755 OFFCURVE",
"414.115 560.993 OFFCURVE",
"433.654 549.044 CURVE SMOOTH",
"445.187 541.991 OFFCURVE",
"475.704 509.56 OFFCURVE",
"499.339 497.656 CURVE",
"530.827 569.106 LINE",
"506.938 581.137 OFFCURVE",
"500.061 599.016 OFFCURVE",
"470.174 617.293 CURVE SMOOTH",
"450.803 629.14 OFFCURVE",
"426.863 647.546 OFFCURVE",
"401.249 654.494 CURVE SMOOTH",
"391.775 657.065 OFFCURVE",
"379.294 658.165 OFFCURVE",
"361.515 658.165 CURVE SMOOTH",
"319.292 658.165 OFFCURVE",
"254.87 651.693 OFFCURVE",
"236.09 645.412 CURVE SMOOTH",
"180.48 626.812 OFFCURVE",
"122.635 554.698 OFFCURVE",
"90.561 465.95 CURVE SMOOTH",
"74.874 422.544 OFFCURVE",
"66.628 367.727 OFFCURVE",
"66.628 307.448 CURVE SMOOTH",
"66.628 259.09 OFFCURVE",
"82.609 212.015 OFFCURVE",
"93.941 176.739 CURVE SMOOTH",
"109.424 128.536 OFFCURVE",
"133.775 87.577 OFFCURVE",
"165.762 56.043 CURVE SMOOTH",
"205.199 17.164 OFFCURVE",
"262.28 -4.551 OFFCURVE",
"324.453 -4.551 CURVE SMOOTH",
"405.711 -4.551 OFFCURVE",
"477.231 31.273 OFFCURVE",
"515.099 91.482 CURVE SMOOTH",
"540.856 132.434 OFFCURVE",
"592.211 218.848 OFFCURVE",
"592.211 299.142 CURVE",
"592.211 336.206 OFFCURVE",
"590.501 371.442 OFFCURVE",
"589.054 397.819 CURVE SMOOTH",
"588.126 414.743 OFFCURVE",
"579.469 441.065 OFFCURVE",
"579.469 452.041 CURVE SMOOTH",
"579.469 480.898 OFFCURVE",
"548.434 537.392 OFFCURVE",
"542.608 549.044 CURVE",
"486.369 500 LINE"
);
},
{
closed = 1;
nodes = (
"1236.015 -176.421 OFFCURVE",
"1224.916 -185.643 OFFCURVE",
"1217.329 -189.417 CURVE",
"1203.147 -197.304 OFFCURVE",
"1175.442 -202.342 OFFCURVE",
"1121.178 -206 CURVE",
"1111.808 -206 OFFCURVE",
"1102.688 -206 OFFCURVE",
"1092 -206 CURVE SMOOTH",
"1006.449 -206 OFFCURVE",
"894.427 -212.61 OFFCURVE",
"823.759 -193.957 CURVE",
"806.962 -188.667 OFFCURVE",
"788.623 -182.291 OFFCURVE",
"773.19 -178.559 CURVE",
"714.64 -167.451 OFFCURVE",
"657.804 -155.889 OFFCURVE",
"605.988 -136.105 CURVE",
"605.484 -135.892 LINE",
"556.327 -118.195 OFFCURVE",
"510.604 -109.351 OFFCURVE",
"461.123 -90.164 CURVE",
"461.602 -90.382 LINE",
"437.82 -80.653 OFFCURVE",
"414.078 -73.274 OFFCURVE",
"395.586 -64.868 CURVE",
"396.147 -65.168 LINE",
"368.249 -51.735 OFFCURVE",
"332.747 -28.544 OFFCURVE",
"299.961 -22.323 CURVE",
"287.681 -20.568 OFFCURVE",
"281.89 -20 OFFCURVE",
"275 -20 CURVE SMOOTH",
"194.45 -20 OFFCURVE",
"130 -67.566 OFFCURVE",
"130 -132 CURVE SMOOTH",
"130 -141.315 OFFCURVE",
"131.64 -151.74 OFFCURVE",
"134.444 -160.142 CURVE",
"140.483 -183.174 OFFCURVE",
"152.603 -200.142 OFFCURVE",
"162.215 -213.6 CURVE",
"219.177 -167.101 LINE",
"204.201 -146.135 OFFCURVE",
"202.027 -141.552 OFFCURVE",
"201.585 -137.203 CURVE",
"199.706 -130.833 OFFCURVE",
"200 -133.828 OFFCURVE",
"200 -132 CURVE SMOOTH",
"200 -119.347 OFFCURVE",
"227.398 -90 OFFCURVE",
"265 -90 CURVE SMOOTH",
"267.94 -90 OFFCURVE",
"271.077 -90.245 OFFCURVE",
"289.37 -101.419 CURVE",
"312.674 -106.88 OFFCURVE",
"339.804 -115.741 OFFCURVE",
"365.78 -128.248 CURVE",
"366.62 -128.698 LINE",
"393.583 -140.953 OFFCURVE",
"416.687 -147.895 OFFCURVE",
"435.097 -155.426 CURVE",
"435.816 -155.753 LINE",
"483.786 -174.354 OFFCURVE",
"530.198 -183.595 OFFCURVE",
"581.774 -202.163 CURVE",
"581.019 -201.842 LINE",
"640.739 -224.645 OFFCURVE",
"702.924 -237.3 OFFCURVE",
"760.049 -248.136 CURVE",
"776.305 -252.343 OFFCURVE",
"791.064 -257.697 OFFCURVE",
"806.918 -262.576 CURVE",
"884.622 -282.941 OFFCURVE",
"1001.094 -277 OFFCURVE",
"1092 -277 CURVE SMOOTH",
"1104.143 -277 OFFCURVE",
"1113.055 -277 OFFCURVE",
"1123.207 -277 CURVE",
"1152.093 -275.061 OFFCURVE",
"1206.309 -271.952 OFFCURVE",
"1243.974 -254.312 CURVE SMOOTH",
"1252.238 -250.441 OFFCURVE",
"1268.982 -242.413 OFFCURVE",
"1264.513 -243.226 CURVE",
"1251.991 -173.516 LINE"
);
}
);
width = 673.39;
}
);
leftKerningGroup = O;
leftMetricsKey = O;
rightKerningGroup = O;
unicode = 0051;
},
{
glyphname = R;
lastChange = "2020-07-29 06:26:09 +0000";
layers = (
{
anchors = (
{
name = bottom;
position = "{321.6, 0}";
},
{
name = top;
position = "{291.6, 650}";
}
);
background = {
components = (
{
name = B;
transform = "{1, 0, 0, 1, 74.6, 0}";
}
);
};
layerId = "BC735296-CD3A-4FA4-9AA9-EE2D747BC69E";
paths = (
{
closed = 1;
nodes = (
"175.693 -12.934 OFFCURVE",
"184.225 5.747 OFFCURVE",
"184.225 41.747 CURVE SMOOTH",
"184.225 102.325 OFFCURVE",
"186.58 144.44 OFFCURVE",
"186.58 206.154 CURVE SMOOTH",
"186.58 286.935 OFFCURVE",
"183.277 368.133 OFFCURVE",
"183.277 448.056 CURVE",
"183.277 475.861 OFFCURVE",
"183.667 503.248 OFFCURVE",
"184.734 531.071 CURVE SMOOTH",
"185.482 550.585 OFFCURVE",
"195.566 587.106 OFFCURVE",
"195.566 608.307 CURVE",
"125.566 608.307 LINE",
"125.566 599.077 OFFCURVE",
"115.914 563.579 OFFCURVE",
"114.785 534.137 CURVE SMOOTH",
"113.754 507.249 OFFCURVE",
"113.277 478.57 OFFCURVE",
"113.277 448.056 CURVE SMOOTH",
"113.277 366.948 OFFCURVE",
"116.58 285.75 OFFCURVE",
"116.58 206.154 CURVE",
"114.45 7.985 LINE",
"153.078 -12.934 LINE"
);
},
{
closed = 1;
nodes = (
"245.847 177.458 OFFCURVE",
"266.833 213.598 OFFCURVE",
"328.641 242.264 CURVE SMOOTH",
"375.476 263.985 OFFCURVE",
"435.758 288.665 OFFCURVE",
"482.106 326.937 CURVE SMOOTH",
"515.98 354.908 OFFCURVE",
"547.401 432.579 OFFCURVE",
"547.401 487.44 CURVE",
"547.401 506.15 OFFCURVE",
"543.503 525.028 OFFCURVE",
"536.955 537.412 CURVE SMOOTH",
"515.253 578.455 OFFCURVE",
"487.074 607.103 OFFCURVE",
"451.433 624.214 CURVE SMOOTH",
"432.877 633.123 OFFCURVE",
"413.328 631.884 OFFCURVE",
"403.453 633.021 CURVE SMOOTH",
"348.405 639.361 OFFCURVE",
"298.878 642.436 OFFCURVE",
"249.789 642.436 CURVE SMOOTH",
"226.224 642.436 OFFCURVE",
"203.109 641.745 OFFCURVE",
"178.684 640.247 CURVE SMOOTH",
"142.86 638.051 OFFCURVE",
"108.799 632.611 OFFCURVE",
"73.723 626.287 CURVE",
"-6.483 588.123 LINE",
"-6.483 533.615 OFFCURVE",
"21.34 534.07 OFFCURVE",
"86.144 547.556 CURVE SMOOTH",
"126.723 556.001 OFFCURVE",
"154.604 558.658 OFFCURVE",
"182.968 560.397 CURVE SMOOTH",
"205.311 561.767 OFFCURVE",
"227.901 562.436 OFFCURVE",
"249.789 562.436 CURVE SMOOTH",
"295.609 562.436 OFFCURVE",
"343.047 559.581 OFFCURVE",
"395.443 553.547 CURVE SMOOTH",
"404.301 552.526 OFFCURVE",
"424.957 550.261 OFFCURVE",
"421.136 552.096 CURVE",
"447.279 539.544 OFFCURVE",
"461.357 525.956 OFFCURVE",
"475.074 500.016 CURVE SMOOTH",
"477.21 495.977 OFFCURVE",
"477.401 495.381 OFFCURVE",
"477.401 487.44 CURVE SMOOTH",
"477.401 454.427 OFFCURVE",
"457.083 404.765 OFFCURVE",
"437.535 388.624 CURVE SMOOTH",
"403.099 360.187 OFFCURVE",
"350.834 338.79 OFFCURVE",
"299.189 314.838 CURVE SMOOTH",
"212.569 274.665 OFFCURVE",
"175.847 263.971 OFFCURVE",
"175.847 221.383 CURVE",
"245.847 221.383 LINE"
);
},
{
closed = 1;
nodes = (
"678.892 -28.848 OFFCURVE",
"666.184 -30.593 OFFCURVE",
"653.457 -30.593 CURVE SMOOTH",
"634.201 -30.593 OFFCURVE",
"617.836 -27.166 OFFCURVE",
"609.524 -21.709 CURVE SMOOTH",
"595.747 -12.663 OFFCURVE",
"559.857 43.567 OFFCURVE",
"545.95 61.595 CURVE SMOOTH",
"508.452 110.204 OFFCURVE",
"437.244 206.882 OFFCURVE",
"399.465 252.71 CURVE SMOOTH",
"393.204 260.305 OFFCURVE",
"378.676 282.869 OFFCURVE",
"367.818 291.005 CURVE",
"325.845 226.982 LINE",
"331.049 223.082 OFFCURVE",
"340.736 220.094 OFFCURVE",
"345.453 211.822 CURVE SMOOTH",
"382.435 146.961 OFFCURVE",
"451.316 64.113 OFFCURVE",
"485.023 22.205 CURVE SMOOTH",
"499.646 4.025 OFFCURVE",
"541.963 -59.449 OFFCURVE",
"571.105 -78.583 CURVE SMOOTH",
"593.063 -93 OFFCURVE",
"621.841 -100.593 OFFCURVE",
"653.457 -100.593 CURVE SMOOTH",
"673.014 -100.593 OFFCURVE",
"692.728 -97.534 OFFCURVE",
"709.501 -91.867 CURVE",
"687.093 -26.077 LINE"
);
}
);
width = 633.1;
}
);
leftKerningGroup = I;
rightKerningGroup = R;
unicode = 0052;
},
{
glyphname = S;
lastChange = "2020-07-29 06:26:09 +0000";
layers = (
{
anchors = (
{
name = bottom;
position = "{271.3, 0}";
},
{
name = top;
position = "{281.3, 650}";
}
);
background = {
anchors = (
{
name = bottom;
position = "{309.82, -9.868}";
},
{
name = top;
position = "{286.567, 661.897}";
}
);
paths = (
{
closed = 1;
nodes = (
"50.328 160.244 OFFCURVE",
"101.106 -10.453 OFFCURVE",
"311.447 -10.453 CURVE SMOOTH",
"433.006 -10.453 OFFCURVE",
"508.336 62.476 OFFCURVE",
"508.336 170.992 CURVE SMOOTH",
"508.336 293.556 OFFCURVE",
"410.257 322.799 OFFCURVE",
"309.648 362.655 CURVE SMOOTH",
"237.244 391.34 OFFCURVE",
"149.659 408.058 OFFCURVE",
"149.659 486.454 CURVE SMOOTH",
"149.659 554.252 OFFCURVE",
"207.639 583.84 OFFCURVE",
"269.648 583.84 CURVE SMOOTH",
"339.339 583.84 OFFCURVE",
"401.017 546.229 OFFCURVE",
"403.936 452.164 CURVE",
"483.69 452.164 LINE",
"478.188 576.766 OFFCURVE",
"403.28 659.84 OFFCURVE",
"273.524 659.84 CURVE SMOOTH",
"145.499 659.84 OFFCURVE",
"69.659 578.934 OFFCURVE",
"69.659 482.578 CURVE SMOOTH",
"69.659 357.643 OFFCURVE",
"187.789 321.989 OFFCURVE",
"287.975 284.972 CURVE SMOOTH",
"359.068 258.706 OFFCURVE",
"428.336 236.605 OFFCURVE",
"428.336 170.992 CURVE SMOOTH",
"428.336 103.193 OFFCURVE",
"376.156 63.619 OFFCURVE",
"303.696 64.543 CURVE SMOOTH",
"214.237 65.684 OFFCURVE",
"140.879 125.73 OFFCURVE",
"135.347 210.784 CURVE",
"55.347 210.784 LINE"
);
}
);
};
layerId = "BC735296-CD3A-4FA4-9AA9-EE2D747BC69E";
paths = (
{
closed = 1;
nodes = (
"61.358 101.171 LINE",
"98.466 70.288 OFFCURVE",
"141.3 21.58 OFFCURVE",
"190.068 4.083 CURVE SMOOTH",
"222.699 -7.623 OFFCURVE",
"263.166 -13.08 OFFCURVE",
"315.693 -13.08 CURVE SMOOTH",
"374.499 -13.08 OFFCURVE",
"404.484 -2.159 OFFCURVE",
"447.353 33.127 CURVE SMOOTH",
"478.342 58.635 OFFCURVE",
"504.906 118.348 OFFCURVE",
"504.906 164.25 CURVE",
"504.906 196.877 OFFCURVE",
"493.388 265.986 OFFCURVE",
"409.19 330.473 CURVE SMOOTH",
"304.154 410.921 OFFCURVE",
"226.003 391.285 OFFCURVE",
"167.726 487.264 CURVE SMOOTH",
"154.925 508.345 OFFCURVE",
"153.674 511.782 OFFCURVE",
"153.674 517.715 CURVE",
"153.674 542.991 OFFCURVE",
"155.295 544.765 OFFCURVE",
"195.233 559.532 CURVE SMOOTH",
"230.698 572.645 OFFCURVE",
"268.806 579.568 OFFCURVE",
"305.467 579.568 CURVE SMOOTH",
"352.532 579.568 OFFCURVE",
"390.798 568.166 OFFCURVE",
"431.743 541.893 CURVE",
"464.146 609.222 LINE",
"408.607 644.862 OFFCURVE",
"362.348 659.568 OFFCURVE",
"305.467 659.568 CURVE SMOOTH",
"262.721 659.568 OFFCURVE",
"219.91 651.385 OFFCURVE",
"174.425 634.567 CURVE SMOOTH",
"117.744 613.61 OFFCURVE",
"93.674 578.765 OFFCURVE",
"93.674 517.715 CURVE SMOOTH",
"93.674 495.081 OFFCURVE",
"101.588 470.202 OFFCURVE",
"116.439 445.743 CURVE SMOOTH",
"195.99 314.729 OFFCURVE",
"302.761 320.534 OFFCURVE",
"372.707 266.962 CURVE SMOOTH",
"449.573 208.09 OFFCURVE",
"444.906 188.794 OFFCURVE",
"444.906 164.25 CURVE SMOOTH",
"444.906 141.935 OFFCURVE",
"429.217 111.352 OFFCURVE",
"409.222 94.894 CURVE SMOOTH",
"385.092 75.033 OFFCURVE",
"359.52 66.92 OFFCURVE",
"315.693 66.92 CURVE SMOOTH",
"256.302 66.92 OFFCURVE",
"225.82 73.827 OFFCURVE",
"210.33 79.384 CURVE SMOOTH",
"166.787 95.006 OFFCURVE",
"135.164 133.18 OFFCURVE",
"99.74 162.662 CURVE SMOOTH",
"94.408 167.099 OFFCURVE",
"82.998 189.072 OFFCURVE",
"74.398 191.939 CURVE",
"55.424 116.045 LINE"
);
}
);
width = 545.2;
}
);
unicode = 0053;
},
{
glyphname = T;
lastChange = "2020-07-29 06:26:09 +0000";
layers = (
{
anchors = (
{
name = bottom;
position = "{267, 0}";
},
{
name = center;
position = "{275, 340}";
},
{
name = top;
position = "{295, 650}";
}
);
background = {
components = (
{
name = "fut-v";
transform = "{1, 0, 0, 1, 177, 0}";
}
);
paths = (
{
closed = 1;
nodes = (
"15 575 LINE",
"535 575 LINE",
"535 650 LINE",
"15 650 LINE"
);
}
);
};
layerId = "BC735296-CD3A-4FA4-9AA9-EE2D747BC69E";
paths = (
{
closed = 1;
nodes = (
"416.601 652.634 OFFCURVE",
"329.307 649.649 OFFCURVE",
"248.291 643.432 CURVE SMOOTH",
"174.626 637.778 OFFCURVE",
"102.768 626.269 OFFCURVE",
"32.594 626.269 CURVE",
"32.594 546.269 LINE",
"106.872 546.269 OFFCURVE",
"180.359 558.042 OFFCURVE",
"253.648 563.666 CURVE SMOOTH",
"332.85 569.744 OFFCURVE",
"419.168 572.634 OFFCURVE",
"516.924 572.634 CURVE",
"516.924 652.634 LINE"
);
},
{
closed = 1;
nodes = (
"310.604 132.216 OFFCURVE",
"311.914 283.528 OFFCURVE",
"316.455 415.481 CURVE SMOOTH",
"318.521 475.543 OFFCURVE",
"329.246 538.87 OFFCURVE",
"329.246 608.082 CURVE",
"259.246 608.082 LINE",
"259.246 544.784 OFFCURVE",
"248.747 483.65 OFFCURVE",
"246.496 418.232 CURVE SMOOTH",
"241.93 285.528 OFFCURVE",
"240.604 132.669 OFFCURVE",
"240.604 -0.048 CURVE",
"310.604 -0.048 LINE"
);
}
);
width = 550;
}
);
leftKerningGroup = T;
rightKerningGroup = T;
unicode = 0054;
},
{
glyphname = U;
lastChange = "2020-07-29 06:26:09 +0000";
layers = (
{
anchors = (
{
name = bottom;
position = "{315.73, 0}";
},
{
name = ogonek;
position = "{439.73, 10}";
},
{
name = top;
position = "{287.73, 630}";
},
{
name = topright;
position = "{633.73, 680}";
}
);
background = {
paths = (
{
closed = 1;
nodes = (
"520.73 250 LINE",
"520.73 102 OFFCURVE",
"433.73 67 OFFCURVE",
"334.73 67 CURVE",
"232.73 67 OFFCURVE",
"145.73 102 OFFCURVE",
"145.73 250 CURVE",
"65.73 250 LINE",
"65.73 66 OFFCURVE",
"177.73 -10 OFFCURVE",
"334.73 -10 CURVE",
"488.73 -10 OFFCURVE",
"600.73 66 OFFCURVE",
"600.73 250 CURVE"
);
},
{
closed = 1;
nodes = (
"520.73 250 LINE",
"600.73 250 LINE",
"600.73 650 LINE",
"520.73 650 LINE"
);
},
{
closed = 1;
nodes = (
"65.73 250 LINE",
"145.73 250 LINE",
"145.73 650 LINE",
"65.73 650 LINE"
);
}
);
};
layerId = "BC735296-CD3A-4FA4-9AA9-EE2D747BC69E";
paths = (
{
closed = 1;
nodes = (
"469.89 532.754 OFFCURVE",
"470.704 408.937 OFFCURVE",
"470.704 293.987 CURVE SMOOTH",
"470.704 275.684 OFFCURVE",
"471.13 257.695 OFFCURVE",
"471.13 238.68 CURVE SMOOTH",
"471.13 187.623 OFFCURVE",
"467.552 168.909 OFFCURVE",
"451.915 136.698 CURVE SMOOTH",
"443.913 120.212 OFFCURVE",
"439.407 116.783 OFFCURVE",
"433.594 109.982 CURVE SMOOTH",
"406.9 78.755 OFFCURVE",
"377.185 64.719 OFFCURVE",
"358.015 63.82 CURVE SMOOTH",
"347.798 63.34 OFFCURVE",
"337.278 63.064 OFFCURVE",
"327.688 63.064 CURVE SMOOTH",
"243.126 63.064 OFFCURVE",
"192.869 94.08 OFFCURVE",
"170.57 136.08 CURVE SMOOTH",
"155.248 164.938 OFFCURVE",
"149.512 194.073 OFFCURVE",
"149.512 246.88 CURVE",
"149.512 264.068 OFFCURVE",
"150.104 282.388 OFFCURVE",
"150.436 300.264 CURVE SMOOTH",
"150.828 321.367 OFFCURVE",
"151.005 343.274 OFFCURVE",
"151.005 365.939 CURVE",
"151.005 454.993 OFFCURVE",
"148.273 561.486 OFFCURVE",
"148.273 649.493 CURVE",
"78.273 649.493 LINE",
"78.273 560.762 OFFCURVE",
"81.005 454.269 OFFCURVE",
"81.005 365.939 CURVE SMOOTH",
"81.005 344.482 OFFCURVE",
"80.847 323.221 OFFCURVE",
"80.448 301.748 CURVE SMOOTH",
"80.119 284.042 OFFCURVE",
"79.512 265.547 OFFCURVE",
"79.512 246.88 CURVE SMOOTH",
"79.512 199.201 OFFCURVE",
"84.146 144.894 OFFCURVE",
"108.744 98.564 CURVE SMOOTH",
"147.185 26.162 OFFCURVE",
"217.239 -6.936 OFFCURVE",
"327.688 -6.936 CURVE SMOOTH",
"338.739 -6.936 OFFCURVE",
"349.984 -6.623 OFFCURVE",
"361.295 -6.092 CURVE SMOOTH",
"393.726 -4.571 OFFCURVE",
"437.351 15.708 OFFCURVE",
"477.162 47.366 CURVE SMOOTH",
"494.45 61.113 OFFCURVE",
"506.511 84.506 OFFCURVE",
"514.888 101.762 CURVE SMOOTH",
"537.532 148.41 OFFCURVE",
"541.13 187.84 OFFCURVE",
"541.13 238.68 CURVE SMOOTH",
"541.13 258.062 OFFCURVE",
"540.704 276.711 OFFCURVE",
"540.704 293.987 CURVE SMOOTH",
"540.704 409.259 OFFCURVE",
"539.848 538.947 OFFCURVE",
"524.634 654.925 CURVE",
"455.229 644.52 LINE"
);
}
);
width = 599.4;
}
);
leftMetricsKey = H;
rightMetricsKey = H;
unicode = 0055;
},
{
glyphname = V;
lastChange = "2020-07-29 06:26:09 +0000";
layers = (
{
anchors = (
{
name = bottom;
position = "{342.7, 0}";
},
{
name = top;
position = "{342.7, 680}";
}
);
background = {
paths = (
{
closed = 1;
nodes = (
"385.7 0 OFFCURVE",
"622.7 650 OFFCURVE",
"622.7 650 CURVE",
"538.7 650 LINE",
"538.7 650 OFFCURVE",
"322.7 61 OFFCURVE",
"322.7 61 CURVE",
"318.7 50 LINE",
"301.7 0 LINE",
"385.7 0 LINE"
);
},
{
closed = 1;
nodes = (
"385.7 0 LINE",
"369.7 47 LINE",
"364.7 61 LINE",
"148.7 650 LINE",
"62.7 650 LINE",
"301.7 0 LINE"
);
}
);
};
layerId = "BC735296-CD3A-4FA4-9AA9-EE2D747BC69E";
paths = (
{
closed = 1;
nodes = (
"333.296 47.168 OFFCURVE",
"328.39 71.095 OFFCURVE",
"316.244 99.808 CURVE SMOOTH",
"298.754 141.157 OFFCURVE",
"280.794 171.084 OFFCURVE",
"270.969 198.888 CURVE SMOOTH",
"264.033 218.512 OFFCURVE",
"261.007 240.697 OFFCURVE",
"253.004 266.88 CURVE SMOOTH",
"221.589 369.655 OFFCURVE",
"195.106 463.686 OFFCURVE",
"175.451 563.938 CURVE SMOOTH",
"172.697 577.985 OFFCURVE",
"162.684 642.509 OFFCURVE",
"162.684 645.578 CURVE",
"92.684 645.578 LINE",
"92.684 633.628 OFFCURVE",
"104.742 558.833 OFFCURVE",
"106.758 548.547 CURVE SMOOTH",
"127.467 442.923 OFFCURVE",
"155.18 344.522 OFFCURVE",
"186.062 243.495 CURVE SMOOTH",
"193.203 220.133 OFFCURVE",
"196.543 196.073 OFFCURVE",
"204.969 172.231 CURVE SMOOTH",
"218.467 134.035 OFFCURVE",
"237.459 102.484 OFFCURVE",
"251.775 68.642 CURVE SMOOTH",
"262.507 43.271 OFFCURVE",
"268.051 16.661 OFFCURVE",
"280.022 -7.28 CURVE",
"342.632 28.497 LINE"
);
},
{
closed = 1;
nodes = (
"497.794 666.903 OFFCURVE",
"500.847 665.079 OFFCURVE",
"491.668 639.59 CURVE SMOOTH",
"462.605 558.884 OFFCURVE",
"412.226 467.238 OFFCURVE",
"370.226 370.163 CURVE SMOOTH",
"352.612 329.452 OFFCURVE",
"346.775 286.785 OFFCURVE",
"336.151 253.516 CURVE SMOOTH",
"314.271 185 OFFCURVE",
"290.477 111.586 OFFCURVE",
"266.448 38.839 CURVE",
"332.915 13.747 LINE",
"356.087 83.898 OFFCURVE",
"380.015 157.724 OFFCURVE",
"402.833 229.18 CURVE SMOOTH",
"414.52 265.778 OFFCURVE",
"419.645 304.129 OFFCURVE",
"434.471 338.397 CURVE SMOOTH",
"470.964 422.743 OFFCURVE",
"522.961 516.496 OFFCURVE",
"557.528 612.485 CURVE SMOOTH",
"559.866 618.976 OFFCURVE",
"567.794 633.635 OFFCURVE",
"567.794 645.703 CURVE",
"497.794 645.703 LINE"
);
}
);
width = 565.5;
}
);
leftKerningGroup = V;
rightKerningGroup = V;
unicode = 0056;
},
{
glyphname = W;
lastChange = "2020-07-29 06:26:09 +0000";
layers = (
{
anchors = (
{
name = bottom;
position = "{414.2, 0}";
},
{
name = top;
position = "{464.2, 650}";
}
);
layerId = "BC735296-CD3A-4FA4-9AA9-EE2D747BC69E";
paths = (
{
closed = 1;
nodes = (
"804.627 626.057 OFFCURVE",
"796.354 595.975 OFFCURVE",
"786.644 561.146 CURVE SMOOTH",
"751.206 434.031 OFFCURVE",
"717.676 303.777 OFFCURVE",
"681.2 177.168 CURVE SMOOTH",
"664.041 117.609 OFFCURVE",
"651.969 82.222 OFFCURVE",
"637.026 47.931 CURVE SMOOTH",
"635.717 44.925 OFFCURVE",
"645.866 64.604 OFFCURVE",
"678.451 38.874 CURVE",
"671.847 44.089 OFFCURVE",
"655.842 84.583 OFFCURVE",
"623.728 181.419 CURVE SMOOTH",
"566.857 352.906 OFFCURVE",
"518.572 485.761 OFFCURVE",
"502.495 658.822 CURVE",
"432.795 651.422 LINE",
"449.977 466.464 OFFCURVE",
"501.615 324.106 OFFCURVE",
"557.286 156.237 CURVE SMOOTH",
"594.22 44.869 OFFCURVE",
"614.61 -7.756 OFFCURVE",
"635.07 -23.912 CURVE SMOOTH",
"662.885 -45.875 OFFCURVE",
"681.435 -29.383 OFFCURVE",
"701.199 15.973 CURVE SMOOTH",
"720.241 59.674 OFFCURVE",
"735.006 108.307 OFFCURVE",
"748.464 155.021 CURVE SMOOTH",
"785.081 282.12 OFFCURVE",
"818.69 412.747 OFFCURVE",
"854.073 539.663 CURVE SMOOTH",
"863.133 572.162 OFFCURVE",
"871.36 602.078 OFFCURVE",
"881.185 636.795 CURVE",
"813.831 658.58 LINE"
);
},
{
closed = 1;
nodes = (
"106.766 592.357 OFFCURVE",
"120.496 545.369 OFFCURVE",
"131.091 494.894 CURVE SMOOTH",
"153.635 387.499 OFFCURVE",
"185.91 280.344 OFFCURVE",
"216.376 177.188 CURVE SMOOTH",
"232.788 121.617 OFFCURVE",
"248.373 68.67 OFFCURVE",
"252.149 21.666 CURVE",
"252.097 22.308 OFFCURVE",
"249.354 0.207 OFFCURVE",
"255.671 -14.101 CURVE",
"324.055 -3.578 LINE",
"324.488 -2.106 OFFCURVE",
"325.433 -0.061 OFFCURVE",
"326.179 1.571 CURVE SMOOTH",
"332.369 15.114 OFFCURVE",
"337.186 25.324 OFFCURVE",
"343.005 37.224 CURVE SMOOTH",
"361.136 74.305 OFFCURVE",
"380.947 112.062 OFFCURVE",
"399.821 155.349 CURVE SMOOTH",
"447.811 265.413 OFFCURVE",
"476.059 373.489 OFFCURVE",
"526.801 479.81 CURVE",
"463.627 514.267 LINE",
"411.618 405.291 OFFCURVE",
"382.954 295.804 OFFCURVE",
"335.655 187.323 CURVE SMOOTH",
"319.966 151.342 OFFCURVE",
"299.902 112.821 OFFCURVE",
"280.12 72.365 CURVE SMOOTH",
"274.888 61.665 OFFCURVE",
"268.964 48.941 OFFCURVE",
"262.513 34.826 CURVE SMOOTH",
"260.818 31.117 OFFCURVE",
"258.637 24.903 OFFCURVE",
"256.902 19.008 CURVE",
"265.625 48.647 OFFCURVE",
"305.652 50.045 OFFCURVE",
"319.708 18.21 CURVE SMOOTH",
"329.262 -3.432 OFFCURVE",
"323.948 2.88 OFFCURVE",
"321.924 28.072 CURVE SMOOTH",
"317.114 87.94 OFFCURVE",
"298.747 145.474 OFFCURVE",
"285.038 192.757 CURVE SMOOTH",
"253.368 301.983 OFFCURVE",
"220.951 409.607 OFFCURVE",
"199.598 511.329 CURVE SMOOTH",
"188.079 566.202 OFFCURVE",
"173.74 615.456 OFFCURVE",
"160.256 666.122 CURVE",
"92.611 645.549 LINE"
);
}
);
width = 919.9;
}
);
leftKerningGroup = V;
leftMetricsKey = V;
rightKerningGroup = V;
unicode = 0057;
},
{
glyphname = X;
lastChange = "2020-07-29 06:26:09 +0000";
layers = (
{
anchors = (
{
name = bottom;
position = "{308, 0}";
},
{
name = top;
position = "{308, 680}";
}
);
background = {
paths = (
{
closed = 1;
nodes = (
"289 374 LINE",
"287 372 LINE",
"43 0 LINE",
"133 0 LINE",
"331 301 LINE",
"333 304 LINE",
"573 650 LINE",
"483 650 LINE"
);
},
{
closed = 1;
nodes = (
"53 650 LINE",
"282 305 LINE",
"284 303 LINE",
"473 0 LINE",
"573 0 LINE",
"333 374 LINE",
"332 376 LINE",
"143 650 LINE"
);
}
);
};
layerId = "BC735296-CD3A-4FA4-9AA9-EE2D747BC69E";
paths = (
{
closed = 1;
nodes = (
"578.713 52.489 OFFCURVE",
"558.599 74.428 OFFCURVE",
"546.397 91.24 CURVE SMOOTH",
"502.929 151.127 OFFCURVE",
"458.471 206.882 OFFCURVE",
"416.089 259.166 CURVE SMOOTH",
"398.774 280.527 OFFCURVE",
"384.606 302.008 OFFCURVE",
"370.413 321.208 CURVE SMOOTH",
"343.728 357.306 OFFCURVE",
"315.18 382.982 OFFCURVE",
"298.867 407.207 CURVE SMOOTH",
"262.97 460.515 OFFCURVE",
"236.032 518.023 OFFCURVE",
"205.422 573.129 CURVE SMOOTH",
"183.317 612.923 OFFCURVE",
"157.046 639.862 OFFCURVE",
"144.793 663.528 CURVE",
"82.63 626.747 LINE",
"101.995 589.345 OFFCURVE",
"129.091 561.533 OFFCURVE",
"144.229 534.282 CURVE SMOOTH",
"176.161 476.797 OFFCURVE",
"204.706 416.131 OFFCURVE",
"240.805 362.523 CURVE SMOOTH",
"265.178 326.328 OFFCURVE",
"294.233 300.56 OFFCURVE",
"314.123 273.653 CURVE SMOOTH",
"330.699 251.23 OFFCURVE",
"345.892 228.305 OFFCURVE",
"361.711 208.79 CURVE SMOOTH",
"406.975 152.949 OFFCURVE",
"450.124 98.836 OFFCURVE",
"489.746 44.247 CURVE SMOOTH",
"506.414 21.284 OFFCURVE",
"523.444 2.03 OFFCURVE",
"531.789 -14.659 CURVE",
"594.399 21.118 LINE"
);
},
{
closed = 1;
nodes = (
"140.655 -0.945 OFFCURVE",
"156.144 33.986 OFFCURVE",
"170.487 57.909 CURVE SMOOTH",
"198.002 103.804 OFFCURVE",
"227.948 152.622 OFFCURVE",
"261.983 198.435 CURVE SMOOTH",
"332.379 293.195 OFFCURVE",
"412.353 387.453 OFFCURVE",
"478.875 498.706 CURVE SMOOTH",
"497.17 529.304 OFFCURVE",
"546.164 566.222 OFFCURVE",
"566.637 627.085 CURVE",
"500.289 652.59 LINE",
"488.496 617.528 OFFCURVE",
"446.583 586.235 OFFCURVE",
"418.795 539.761 CURVE SMOOTH",
"358.601 439.089 OFFCURVE",
"279.745 345.691 OFFCURVE",
"205.792 246.143 CURVE SMOOTH",
"172.49 201.316 OFFCURVE",
"140.447 149.079 OFFCURVE",
"110.45 99.046 CURVE SMOOTH",
"95.658 74.373 OFFCURVE",
"85.294 49.913 OFFCURVE",
"67.676 32.575 CURVE",
"116.776 -24.444 LINE"
);
}
);
width = 616;
}
);
unicode = 0058;
},
{
glyphname = Y;
lastChange = "2020-07-29 06:26:09 +0000";
layers = (
{
anchors = (
{
name = bottom;
position = "{306.61, 0}";
},
{
name = top;
position = "{306.61, 630}";
},
{
name = topleft;
position = "{23.61, 680}";
}
);
background = {
paths = (
{
closed = 1;
nodes = (
"486.61 650 LINE",
"292.413 275.329 LINE",
"325.109 275.484 LINE",
"126.61 650 LINE",
"36.61 650 LINE",
"266.61 222.711 LINE",
"266.61 0 LINE",
"346.61 0 LINE",
"346.61 222.711 LINE",
"576.61 650 LINE"
);
}
);
};
layerId = "BC735296-CD3A-4FA4-9AA9-EE2D747BC69E";
paths = (
{
closed = 1;
nodes = (
"350.038 285.79 OFFCURVE",
"327.24 321.098 OFFCURVE",
"282.794 392.852 CURVE SMOOTH",
"248.801 447.731 OFFCURVE",
"213.686 496.657 OFFCURVE",
"188.396 544.598 CURVE SMOOTH",
"170.796 577.962 OFFCURVE",
"155.475 636.324 OFFCURVE",
"117.711 674.089 CURVE",
"68.213 617.521 LINE",
"96.383 589.351 OFFCURVE",
"104.083 549.733 OFFCURVE",
"126.483 507.271 CURVE SMOOTH",
"156.993 449.433 OFFCURVE",
"192.454 400.501 OFFCURVE",
"223.285 350.726 CURVE SMOOTH",
"226.377 345.734 OFFCURVE",
"280.038 259.803 OFFCURVE",
"280.038 260.459 CURVE",
"350.038 260.459 LINE"
);
},
{
closed = 1;
nodes = (
"366.522 263.946 OFFCURVE",
"387.104 302.424 OFFCURVE",
"409.454 339.747 CURVE SMOOTH",
"429.154 372.643 OFFCURVE",
"456.018 407.255 OFFCURVE",
"479.434 452.126 CURVE SMOOTH",
"511.684 513.923 OFFCURVE",
"514.119 564.147 OFFCURVE",
"551.467 603.096 CURVE",
"500.942 658.465 LINE",
"455.43 611.003 OFFCURVE",
"442.056 536.431 OFFCURVE",
"417.377 489.138 CURVE SMOOTH",
"399.793 455.444 OFFCURVE",
"373.105 420.433 OFFCURVE",
"349.399 380.848 CURVE SMOOTH",
"328.95 346.701 OFFCURVE",
"309.36 309.944 OFFCURVE",
"286.052 274.983 CURVE",
"344.296 230.607 LINE"
);
},
{
closed = 1;
nodes = (
"357.531 63.921 OFFCURVE",
"349.762 126.474 OFFCURVE",
"347.567 187.109 CURVE SMOOTH",
"347.101 199.993 OFFCURVE",
"352.754 219.737 OFFCURVE",
"352.754 247.976 CURVE",
"282.754 237.976 LINE",
"282.754 221.653 OFFCURVE",
"276.669 210.316 OFFCURVE",
"277.613 184.215 CURVE SMOOTH",
"279.915 120.595 OFFCURVE",
"287.531 59.661 OFFCURVE",
"287.531 -1.352 CURVE",
"357.531 -1.352 LINE"
);
}
);
width = 545.54;
}
);
unicode = 0059;
},
{
glyphname = Z;
lastChange = "2020-07-29 06:26:09 +0000";
layers = (
{
anchors = (
{
name = bottom;
position = "{420.913, 0}";
},
{
name = top;
position = "{361.01, 650}";
}
);
layerId = "BC735296-CD3A-4FA4-9AA9-EE2D747BC69E";
paths = (
{
closed = 1;
nodes = (
"21.552 16.758 OFFCURVE",
"134.125 88.529 OFFCURVE",
"131.27 89.928 CURVE",
"233.66 176.153 OFFCURVE",
"311.143 280.137 OFFCURVE",
"395.66 383.862 CURVE SMOOTH",
"440.898 439.382 OFFCURVE",
"507.275 478.266 OFFCURVE",
"546.342 553.277 CURVE SMOOTH",
"561.342 582.077 OFFCURVE",
"573.755 615.068 OFFCURVE",
"592.183 633.939 CURVE SMOOTH",
"594.475 636.286 OFFCURVE",
"611.145 642.335 OFFCURVE",
"610.485 642.335 CURVE",
"610.079 677 LINE",
"611.747 677 OFFCURVE",
"612.216 678.975 OFFCURVE",
"612.216 678.975 CURVE",
"589.538 642 LINE",
"588.503 642 OFFCURVE",
"585.218 644.793 OFFCURVE",
"585.711 642 CURVE",
"593.791 596.173 OFFCURVE",
"641.873 643 OFFCURVE",
"581.119 643 CURVE SMOOTH",
"558.327 643 OFFCURVE",
"540.462 643.278 OFFCURVE",
"521.725 645.119 CURVE SMOOTH",
"521.103 645.12 LINE SMOOTH",
"506.674 646.214 OFFCURVE",
"494.561 636 OFFCURVE",
"484.354 636 CURVE SMOOTH",
"450.174 636 OFFCURVE",
"421.212 635.523 OFFCURVE",
"396.11 640.423 CURVE SMOOTH",
"354.247 648.593 OFFCURVE",
"297.285 656 OFFCURVE",
"250.827 656 CURVE SMOOTH",
"220.992 656 OFFCURVE",
"199.048 651.868 OFFCURVE",
"184.261 644.388 CURVE SMOOTH",
"128.721 616.288 OFFCURVE",
"95.311 585.586 OFFCURVE",
"100.046 511.584 CURVE SMOOTH",
"100.335 507.068 OFFCURVE",
"99.378 490.763 OFFCURVE",
"102.613 472.415 CURVE SMOOTH",
"105.698 454.921 OFFCURVE",
"119.719 449.55 OFFCURVE",
"130.485 440.398 CURVE",
"160.761 486.096 LINE",
"170.822 478.429 OFFCURVE",
"173.045 469.966 OFFCURVE",
"170.643 483.585 CURVE SMOOTH",
"169.52 489.959 OFFCURVE",
"168.82 500.617 OFFCURVE",
"167.465 512.582 CURVE SMOOTH",
"163.122 550.934 OFFCURVE",
"176.138 568.698 OFFCURVE",
"207.823 582.198 CURVE SMOOTH",
"218.962 586.944 OFFCURVE",
"234.791 586 OFFCURVE",
"252 586 CURVE SMOOTH",
"298.416 586 OFFCURVE",
"350.397 576.093 OFFCURVE",
"386.368 569.78 CURVE SMOOTH",
"423.941 563.186 OFFCURVE",
"457.899 566 OFFCURVE",
"485.526 566 CURVE SMOOTH",
"501.319 566 OFFCURVE",
"512.982 565.786 OFFCURVE",
"524.295 564.927 CURVE",
"523.259 564.961 LINE",
"546.113 562.723 OFFCURVE",
"565.085 573 OFFCURVE",
"582.292 573 CURVE SMOOTH",
"614.882 573 OFFCURVE",
"658.263 570.813 OFFCURVE",
"644.726 647.585 CURVE SMOOTH",
"644.346 649.738 OFFCURVE",
"646.075 651.633 OFFCURVE",
"641.702 665.907 CURVE",
"617.645 675.513 LINE",
"617.005 675.513 OFFCURVE",
"617.732 677 OFFCURVE",
"616.332 677 CURVE",
"604.233 695 LINE",
"586.005 695 OFFCURVE",
"579.711 683.589 OFFCURVE",
"560.588 672.855 CURVE SMOOTH",
"524.031 652.334 OFFCURVE",
"502.769 620.048 OFFCURVE",
"490.293 592.398 CURVE SMOOTH",
"464.014 534.158 OFFCURVE",
"390.602 488.356 OFFCURVE",
"346.346 433.72 CURVE SMOOTH",
"263.673 331.658 OFFCURVE",
"184.878 226.637 OFFCURVE",
"84.541 142.177 CURVE SMOOTH",
"60.797 122.19 OFFCURVE",
"-25.761 61.873 OFFCURVE",
"-13.653 -6.793 CURVE",
"21.189 17.418 LINE"
);
},
{
closed = 1;
nodes = (
"1187.265 -197.994 OFFCURVE",
"1192.402 -206.941 OFFCURVE",
"1196.236 -215.28 CURVE SMOOTH",
"1196.417 -215.674 OFFCURVE",
"1195.04 -216.084 OFFCURVE",
"1195.807 -222.427 CURVE SMOOTH",
"1198.531 -244.954 OFFCURVE",
"1150.811 -273 OFFCURVE",
"1113.282 -273 CURVE SMOOTH",
"1006.401 -273 OFFCURVE",
"894.512 -217.277 OFFCURVE",
"791.043 -167.055 CURVE SMOOTH",
"751.13 -147.682 OFFCURVE",
"713.321 -128.805 OFFCURVE",
"683.623 -104.016 CURVE SMOOTH",
"642.82 -69.956 OFFCURVE",
"591.922 -43.668 OFFCURVE",
"537.547 -9.216 CURVE SMOOTH",
"468.549 34.5 OFFCURVE",
"398.854 77.046 OFFCURVE",
"322.643 93.377 CURVE SMOOTH",
"288.148 100.769 OFFCURVE",
"261.315 102 OFFCURVE",
"237.512 102 CURVE SMOOTH",
"175.095 102 OFFCURVE",
"131.812 90.34 OFFCURVE",
"81.14 66.951 CURVE SMOOTH",
"60.471 57.411 OFFCURVE",
"-3.604 36 OFFCURVE",
"13.772 36 CURVE",
"27.781 -34 LINE",
"42.469 -34 OFFCURVE",
"98.439 -0.244 OFFCURVE",
"108.922 6.413 CURVE SMOOTH",
"151.609 33.522 OFFCURVE",
"191.126 35 OFFCURVE",
"240.448 35 CURVE SMOOTH",
"264.932 35 OFFCURVE",
"287.977 31.855 OFFCURVE",
"311.36 25.94 CURVE SMOOTH",
"381.584 8.177 OFFCURVE",
"437.646 -31.046 OFFCURVE",
"501.216 -71.104 CURVE SMOOTH",
"557.409 -106.514 OFFCURVE",
"605.745 -132.422 OFFCURVE",
"640.278 -161.058 CURVE SMOOTH",
"678.447 -192.709 OFFCURVE",
"722.518 -212.156 OFFCURVE",
"761.613 -232.379 CURVE SMOOTH",
"866.223 -286.494 OFFCURVE",
"998.733 -340 OFFCURVE",
"1114.808 -340 CURVE SMOOTH",
"1186.288 -340 OFFCURVE",
"1245.677 -303.522 OFFCURVE",
"1260.726 -246.846 CURVE",
"1259.593 -246.442 LINE",
"1263.275 -236.077 OFFCURVE",
"1264.801 -220.545 OFFCURVE",
"1262.133 -205.415 CURVE SMOOTH",
"1259.089 -188.154 OFFCURVE",
"1251.241 -171.566 OFFCURVE",
"1248.77 -164.666 CURVE",
"1182.578 -184.477 LINE"
);
}
);
width = 639.4;
}
);
unicode = 005A;
},
{
glyphname = Q.ss01;
lastChange = "2020-07-29 06:26:09 +0000";
layers = (
{
anchors = (
{
name = bottom;
position = "{361.45, 0}";
},
{
name = top;
position = "{361.45, 680}";
}
);
background = {
paths = (
{
closed = 1;
nodes = (
"494.127 482.984 OFFCURVE",
"508.719 456.312 OFFCURVE",
"508.719 452.041 CURVE SMOOTH",
"508.719 427.098 OFFCURVE",
"518.137 398.402 OFFCURVE",
"518.409 393.436 CURVE SMOOTH",
"519.871 366.797 OFFCURVE",
"521.461 334.024 OFFCURVE",
"521.461 299.142 CURVE SMOOTH",
"521.461 258.119 OFFCURVE",
"500.079 205.597 OFFCURVE",
"455.094 134.074 CURVE SMOOTH",
"433.316 99.447 OFFCURVE",
"380.92 75.449 OFFCURVE",
"323.703 75.449 CURVE SMOOTH",
"279.013 75.449 OFFCURVE",
"237.528 89.971 OFFCURVE",
"214.155 113.013 CURVE SMOOTH",
"187.358 139.431 OFFCURVE",
"171.31 165.488 OFFCURVE",
"159.837 201.205 CURVE SMOOTH",
"147.396 239.936 OFFCURVE",
"135.878 273.863 OFFCURVE",
"135.878 307.448 CURVE",
"135.878 359.375 OFFCURVE",
"142.302 401.842 OFFCURVE",
"155.644 438.759 CURVE SMOOTH",
"179.264 504.116 OFFCURVE",
"221.439 557.467 OFFCURVE",
"257.544 569.543 CURVE SMOOTH",
"267.697 572.939 OFFCURVE",
"329.041 578.165 OFFCURVE",
"360.765 578.165 CURVE SMOOTH",
"371.109 578.165 OFFCURVE",
"380.845 577.645 OFFCURVE",
"382.172 577.285 CURVE SMOOTH",
"398.872 572.755 OFFCURVE",
"413.365 560.993 OFFCURVE",
"432.904 549.044 CURVE SMOOTH",
"444.437 541.991 OFFCURVE",
"474.954 509.56 OFFCURVE",
"498.589 497.656 CURVE",
"530.077 569.106 LINE",
"506.188 581.137 OFFCURVE",
"499.311 599.016 OFFCURVE",
"469.424 617.293 CURVE SMOOTH",
"450.053 629.14 OFFCURVE",
"426.113 647.546 OFFCURVE",
"400.499 654.494 CURVE SMOOTH",
"391.025 657.065 OFFCURVE",
"378.544 658.165 OFFCURVE",
"360.765 658.165 CURVE SMOOTH",
"318.542 658.165 OFFCURVE",
"254.12 651.693 OFFCURVE",
"235.34 645.412 CURVE SMOOTH",
"179.73 626.812 OFFCURVE",
"121.885 554.698 OFFCURVE",
"89.811 465.95 CURVE SMOOTH",
"74.124 422.544 OFFCURVE",
"65.878 367.727 OFFCURVE",
"65.878 307.448 CURVE SMOOTH",
"65.878 259.09 OFFCURVE",
"81.859 212.015 OFFCURVE",
"93.191 176.739 CURVE SMOOTH",
"108.674 128.536 OFFCURVE",
"133.025 87.577 OFFCURVE",
"165.012 56.043 CURVE SMOOTH",
"204.449 17.164 OFFCURVE",
"261.53 -4.551 OFFCURVE",
"323.703 -4.551 CURVE SMOOTH",
"404.961 -4.551 OFFCURVE",
"476.481 31.273 OFFCURVE",
"514.349 91.482 CURVE SMOOTH",
"540.106 132.434 OFFCURVE",
"591.461 218.848 OFFCURVE",
"591.461 299.142 CURVE",
"591.461 336.206 OFFCURVE",
"589.751 371.442 OFFCURVE",
"588.304 397.819 CURVE SMOOTH",
"587.376 414.743 OFFCURVE",
"578.719 441.065 OFFCURVE",
"578.719 452.041 CURVE SMOOTH",
"578.719 480.898 OFFCURVE",
"547.684 537.392 OFFCURVE",
"541.858 549.044 CURVE",
"485.619 500 LINE"
);
},
{
closed = 1;
nodes = (
"1235.265 -176.421 OFFCURVE",
"1224.166 -185.643 OFFCURVE",
"1216.579 -189.417 CURVE",
"1202.397 -197.304 OFFCURVE",
"1174.692 -202.342 OFFCURVE",
"1120.428 -206 CURVE",
"1111.058 -206 OFFCURVE",
"1101.938 -206 OFFCURVE",
"1091.25 -206 CURVE SMOOTH",
"1005.699 -206 OFFCURVE",
"893.677 -212.61 OFFCURVE",
"823.009 -193.957 CURVE",
"806.212 -188.667 OFFCURVE",
"787.873 -182.291 OFFCURVE",
"772.44 -178.559 CURVE",
"713.89 -167.451 OFFCURVE",
"657.054 -155.889 OFFCURVE",
"605.238 -136.105 CURVE",
"604.734 -135.892 LINE",
"555.577 -118.195 OFFCURVE",
"509.854 -109.351 OFFCURVE",
"460.373 -90.164 CURVE",
"460.852 -90.382 LINE",
"437.07 -80.653 OFFCURVE",
"413.328 -73.274 OFFCURVE",
"394.836 -64.868 CURVE",
"395.397 -65.168 LINE",
"367.499 -51.735 OFFCURVE",
"331.997 -28.544 OFFCURVE",
"299.211 -22.323 CURVE",
"286.931 -20.568 OFFCURVE",
"281.14 -20 OFFCURVE",
"274.25 -20 CURVE SMOOTH",
"193.7 -20 OFFCURVE",
"129.25 -67.566 OFFCURVE",
"129.25 -132 CURVE SMOOTH",
"129.25 -141.315 OFFCURVE",
"130.89 -151.74 OFFCURVE",
"133.694 -160.142 CURVE",
"139.733 -183.174 OFFCURVE",
"151.853 -200.142 OFFCURVE",
"161.465 -213.6 CURVE",
"218.427 -167.101 LINE",
"203.451 -146.135 OFFCURVE",
"201.277 -141.552 OFFCURVE",
"200.835 -137.203 CURVE",
"198.956 -130.833 OFFCURVE",
"199.25 -133.828 OFFCURVE",
"199.25 -132 CURVE SMOOTH",
"199.25 -119.347 OFFCURVE",
"226.648 -90 OFFCURVE",
"264.25 -90 CURVE SMOOTH",
"267.19 -90 OFFCURVE",
"270.327 -90.245 OFFCURVE",
"288.62 -101.419 CURVE",
"311.924 -106.88 OFFCURVE",
"339.054 -115.741 OFFCURVE",
"365.03 -128.248 CURVE",
"365.87 -128.698 LINE",
"392.833 -140.953 OFFCURVE",
"415.937 -147.895 OFFCURVE",
"434.347 -155.426 CURVE",
"435.066 -155.753 LINE",
"483.036 -174.354 OFFCURVE",
"529.448 -183.595 OFFCURVE",
"581.024 -202.163 CURVE",
"580.269 -201.842 LINE",
"639.989 -224.645 OFFCURVE",
"702.174 -237.3 OFFCURVE",
"759.299 -248.136 CURVE",
"775.555 -252.343 OFFCURVE",
"790.314 -257.697 OFFCURVE",
"806.168 -262.576 CURVE",
"883.872 -282.941 OFFCURVE",
"1000.344 -277 OFFCURVE",
"1091.25 -277 CURVE SMOOTH",
"1103.393 -277 OFFCURVE",
"1112.305 -277 OFFCURVE",
"1122.457 -277 CURVE",
"1151.343 -275.061 OFFCURVE",
"1205.559 -271.952 OFFCURVE",
"1243.224 -254.312 CURVE SMOOTH",
"1251.488 -250.441 OFFCURVE",
"1268.232 -242.413 OFFCURVE",
"1263.763 -243.226 CURVE",
"1251.241 -173.516 LINE"
);
}
);
};
layerId = "BC735296-CD3A-4FA4-9AA9-EE2D747BC69E";
paths = (
{
closed = 1;
nodes = (
"1186.148 -148.504 LINE",
"1172.73 -162.013 OFFCURVE",
"1132.4 -182.582 OFFCURVE",
"1105.635 -189.357 CURVE SMOOTH",
"1089.644 -193.404 OFFCURVE",
"1068.612 -195.288 OFFCURVE",
"1037.664 -195.288 CURVE SMOOTH",
"1026.048 -195.288 OFFCURVE",
"1014.168 -195.085 OFFCURVE",
"1002.073 -195.085 CURVE SMOOTH",
"939.477 -195.085 OFFCURVE",
"878.201 -195.085 OFFCURVE",
"816.265 -195.085 CURVE SMOOTH",
"700.726 -195.085 OFFCURVE",
"588.53 -171.57 OFFCURVE",
"503.195 -129.551 CURVE SMOOTH",
"432.484 -94.733 OFFCURVE",
"369.548 -36.441 OFFCURVE",
"293.439 -9.693 CURVE SMOOTH",
"276.749 -3.827 OFFCURVE",
"258.286 -1.023 OFFCURVE",
"236.807 -1.023 CURVE SMOOTH",
"164.757 -1.023 OFFCURVE",
"108.734 -26.186 OFFCURVE",
"85.957 -73.74 CURVE SMOOTH",
"82.729 -80.479 OFFCURVE",
"80.508 -93.871 OFFCURVE",
"80.508 -105.584 CURVE SMOOTH",
"80.508 -162.077 OFFCURVE",
"106.166 -197.938 OFFCURVE",
"150.721 -197.938 CURVE SMOOTH",
"162.474 -197.938 OFFCURVE",
"174.785 -195.783 OFFCURVE",
"192.101 -190.831 CURVE SMOOTH",
"242.016 -176.556 OFFCURVE",
"313.823 -85.913 OFFCURVE",
"355.735 -52.166 CURVE SMOOTH",
"359.382 -49.23 OFFCURVE",
"373.868 -44.219 OFFCURVE",
"392.292 -28.587 CURVE SMOOTH",
"403.117 -19.403 OFFCURVE",
"422.772 -2.234 OFFCURVE",
"437.476 21.452 CURVE SMOOTH",
"445.988 35.164 OFFCURVE",
"456.408 55.137 OFFCURVE",
"445.956 44.773 CURVE",
"488.662 87.123 OFFCURVE",
"537.801 177.875 OFFCURVE",
"554.794 245.652 CURVE SMOOTH",
"562.098 274.782 OFFCURVE",
"566.23 315.198 OFFCURVE",
"566.23 355.029 CURVE",
"566.23 435.276 OFFCURVE",
"549.939 513.693 OFFCURVE",
"524.186 556.356 CURVE SMOOTH",
"482.153 625.99 OFFCURVE",
"428.786 657.841 OFFCURVE",
"353.327 657.841 CURVE SMOOTH",
"321.749 657.841 OFFCURVE",
"287.071 652.514 OFFCURVE",
"236.868 640.084 CURVE SMOOTH",
"191.722 628.905 OFFCURVE",
"99.435 518.503 OFFCURVE",
"83.268 457.624 CURVE SMOOTH",
"81.247 450.016 OFFCURVE",
"80.09 438.002 OFFCURVE",
"80.09 427.322 CURVE SMOOTH",
"80.09 413.792 OFFCURVE",
"81.71 397.378 OFFCURVE",
"84.817 378.878 CURVE SMOOTH",
"95.393 315.9 OFFCURVE",
"147.555 277.767 OFFCURVE",
"221.159 277.767 CURVE SMOOTH",
"238.736 277.767 OFFCURVE",
"254.94 280.082 OFFCURVE",
"271.855 285.008 CURVE SMOOTH",
"292.607 291.052 OFFCURVE",
"359.662 301.38 OFFCURVE",
"359.662 366.126 CURVE",
"305.662 366.126 LINE",
"305.662 371.863 OFFCURVE",
"270.49 348.136 OFFCURVE",
"256.755 344.136 CURVE SMOOTH",
"247.643 341.482 OFFCURVE",
"233.88 339.767 OFFCURVE",
"221.159 339.767 CURVE SMOOTH",
"176.128 339.767 OFFCURVE",
"141.885 368.089 OFFCURVE",
"138.071 390.802 CURVE SMOOTH",
"135.986 403.217 OFFCURVE",
"134.09 415.715 OFFCURVE",
"134.09 427.322 CURVE SMOOTH",
"134.09 433.824 OFFCURVE",
"134.429 435.266 OFFCURVE",
"135.459 439.144 CURVE SMOOTH",
"144.796 474.305 OFFCURVE",
"221.96 563.289 OFFCURVE",
"249.847 570.194 CURVE SMOOTH",
"292.879 580.849 OFFCURVE",
"325.486 585.841 OFFCURVE",
"353.327 585.841 CURVE SMOOTH",
"410.589 585.841 OFFCURVE",
"450.724 564.262 OFFCURVE",
"477.956 519.148 CURVE SMOOTH",
"499.882 482.824 OFFCURVE",
"512.23 424.766 OFFCURVE",
"512.23 355.029 CURVE SMOOTH",
"512.23 319.563 OFFCURVE",
"508.857 288.853 OFFCURVE",
"502.416 263.162 CURVE SMOOTH",
"488.693 208.43 OFFCURVE",
"447.014 134.653 OFFCURVE",
"407.933 95.897 CURVE SMOOTH",
"400.292 88.321 OFFCURVE",
"391.95 59.994 OFFCURVE",
"391.598 59.427 CURVE SMOOTH",
"387.889 53.454 OFFCURVE",
"378.869 44.566 OFFCURVE",
"357.357 26.315 CURVE SMOOTH",
"353.673 23.189 OFFCURVE",
"339.848 18.391 OFFCURVE",
"321.869 3.914 CURVE SMOOTH",
"282.443 -27.831 OFFCURVE",
"217.955 -109.966 OFFCURVE",
"177.253 -121.606 CURVE SMOOTH",
"167.706 -124.336 OFFCURVE",
"157.712 -125.938 OFFCURVE",
"150.721 -125.938 CURVE SMOOTH",
"134.71 -125.938 OFFCURVE",
"134.508 -126.411 OFFCURVE",
"134.508 -105.584 CURVE SMOOTH",
"134.508 -89.633 OFFCURVE",
"117.817 -140.005 OFFCURVE",
"134.659 -104.843 CURVE SMOOTH",
"141.302 -90.973 OFFCURVE",
"190.765 -73.023 OFFCURVE",
"236.807 -73.023 CURVE SMOOTH",
"252.409 -73.023 OFFCURVE",
"267.864 -74.924 OFFCURVE",
"275.534 -77.62 CURVE SMOOTH",
"349.98 -103.783 OFFCURVE",
"408.178 -159.104 OFFCURVE",
"479.34 -194.145 CURVE SMOOTH",
"575.478 -241.483 OFFCURVE",
"693.834 -267.085 OFFCURVE",
"816.265 -267.085 CURVE SMOOTH",
"878.201 -267.085 OFFCURVE",
"940.797 -267.085 OFFCURVE",
"1002.073 -267.085 CURVE SMOOTH",
"1013.86 -267.085 OFFCURVE",
"1025.741 -267.288 OFFCURVE",
"1037.664 -267.288 CURVE SMOOTH",
"1072.669 -267.288 OFFCURVE",
"1095.767 -265.007 OFFCURVE",
"1118.886 -259.155 CURVE SMOOTH",
"1153.756 -250.329 OFFCURVE",
"1199.488 -224.386 OFFCURVE",
"1224.461 -199.241 CURVE",
"1237 -178.764 LINE"
);
}
);
width = 654.91;
}
);
leftKerningGroup = O;
leftMetricsKey = Q;
rightKerningGroup = O;
},
{
glyphname = a;
lastChange = "2020-07-29 06:26:09 +0000";
layers = (
{
anchors = (
{
name = bottom;
position = "{68.335, -9.815}";
},
{
name = center;
position = "{153.21, 252.759}";
},
{
name = ogonek;
position = "{369.503, 0.284}";
},
{
name = top;
position = "{241.662, 510.333}";
},
{
name = topright;
position = "{451.087, 505.234}";
}
);
background = {
paths = (
{
closed = 1;
nodes = (
"111.1 496 OFFCURVE",
"-33.9 340 OFFCURVE",
"-33.9 165 CURVE SMOOTH",
"-33.9 57 OFFCURVE",
"21.1 0 OFFCURVE",
"134.1 0 CURVE",
"244.1 228 LINE",
"281.1 315 LINE",
"301.1 315 LINE",
"341.1 418 LINE",
"301.1 432 LINE",
"301.1 432 OFFCURVE",
"276.1 496 OFFCURVE",
"191.1 496 CURVE SMOOTH"
);
},
{
closed = 1;
nodes = (
"234.1 128 OFFCURVE",
"230.1 104 OFFCURVE",
"230.1 83 CURVE SMOOTH",
"230.1 30 OFFCURVE",
"255.1 0 OFFCURVE",
"333.1 0 CURVE",
"430.1 133 LINE",
"398.1 145 LINE",
"320.1 58 LINE",
"310.1 56 OFFCURVE",
"308.1 67 OFFCURVE",
"308.1 82 CURVE SMOOTH",
"308.1 104 OFFCURVE",
"314.1 133 OFFCURVE",
"314.1 133 CURVE",
"240.1 155 LINE"
);
},
{
closed = 1;
nodes = (
"224.1 432 OFFCURVE",
"274.1 391 OFFCURVE",
"274.1 391 CURVE",
"222.1 278 OFFCURVE",
"120.1 89 OFFCURVE",
"117.1 89 CURVE SMOOTH",
"68.1 89 OFFCURVE",
"42.1 130 OFFCURVE",
"42.1 178 CURVE SMOOTH",
"42.1 327 OFFCURVE",
"147.1 431 OFFCURVE",
"147.1 432 CURVE"
);
},
{
closed = 1;
nodes = (
"298.1 475 LINE SMOOTH",
"292.1 332 LINE",
"240.1 155 LINE",
"314.1 133 LINE",
"373.1 475 LINE"
);
}
);
};
layerId = "BC735296-CD3A-4FA4-9AA9-EE2D747BC69E";
paths = (
{
closed = 1;
nodes = (
"447.856 147.729 OFFCURVE",
"447.856 147.729 OFFCURVE",
"447.856 146.72 CURVE",
"449.56 146.72 LINE",
"427.055 183.333 LINE",
"423.937 183.333 LINE",
"421.011 180.408 OFFCURVE",
"395.649 139.233 OFFCURVE",
"394.751 138.034 CURVE",
"352.21 79.284 OFFCURVE",
"350.049 75.488 OFFCURVE",
"320.632 50.815 CURVE",
"323.203 50.815 LINE",
"335.045 60.754 OFFCURVE",
"324.151 59.536 OFFCURVE",
"301.876 49.193 CURVE",
"303.51 49.193 LINE",
"318.321 55.577 OFFCURVE",
"324.87 48.953 OFFCURVE",
"340.812 17.07 CURVE",
"344.39 17.07 LINE",
"321.232 63.386 OFFCURVE",
"341.796 -24.513 OFFCURVE",
"341.796 48.759 CURVE SMOOTH",
"341.796 128.627 OFFCURVE",
"368.216 240.91 OFFCURVE",
"382.448 315.355 CURVE SMOOTH",
"389.373 351.998 OFFCURVE",
"392.47 388.467 OFFCURVE",
"401.19 424.314 CURVE SMOOTH",
"404.032 435.546 OFFCURVE",
"406.57 454.575 OFFCURVE",
"408.967 470.159 CURVE",
"406.99 470.159 LINE",
"406.91 469.361 LINE",
"408.883 469.361 LINE",
"411.386 484.38 OFFCURVE",
"409.46 498.614 OFFCURVE",
"409.46 500.185 CURVE SMOOTH",
"409.46 508.438 OFFCURVE",
"395.102 503.061 OFFCURVE",
"326.643 502.205 CURVE SMOOTH",
"324.668 502.205 LINE",
"324.668 473.531 OFFCURVE",
"255.101 360.069 OFFCURVE",
"223.159 303.895 CURVE SMOOTH",
"193.566 252.723 OFFCURVE",
"175.762 206.582 OFFCURVE",
"137.998 150.507 CURVE SMOOTH",
"128.068 135.527 OFFCURVE",
"107.233 112.708 OFFCURVE",
"80.74 74.44 CURVE",
"89.541 56.902 LINE",
"92.687 55.173 LINE",
"91.792 55.173 LINE",
"98.713 51.712 OFFCURVE",
"77.242 152.377 OFFCURVE",
"77.242 127.531 CURVE",
"81.242 127.531 LINE",
"81.242 169.971 OFFCURVE",
"80.382 206.075 OFFCURVE",
"85.844 243.4 CURVE SMOOTH",
"94.507 302.287 OFFCURVE",
"128.798 437.159 OFFCURVE",
"182.136 463.828 CURVE",
"179.828 463.828 LINE",
"176.954 460.955 OFFCURVE",
"176.758 435.551 OFFCURVE",
"181.242 435.551 CURVE SMOOTH",
"225.424 435.551 OFFCURVE",
"286.731 350.384 OFFCURVE",
"319.939 338.601 CURVE",
"322.549 338.601 LINE",
"345.029 428.609 LINE",
"343.741 428.609 LINE",
"315.568 438.324 OFFCURVE",
"235.857 516.343 OFFCURVE",
"181.242 516.343 CURVE SMOOTH",
"173.291 516.343 OFFCURVE",
"166.424 514.983 OFFCURVE",
"157.653 510.598 CURVE SMOOTH",
"89.309 476.426 OFFCURVE",
"42.334 325.892 OFFCURVE",
"31.925 255.11 CURVE SMOOTH",
"25.702 212.583 OFFCURVE",
"26.747 168.697 OFFCURVE",
"26.747 127.531 CURVE SMOOTH",
"26.747 107.233 OFFCURVE",
"52.339 -12.939 OFFCURVE",
"75.215 -21.013 CURVE SMOOTH",
"85.03 -24.314 OFFCURVE",
"99.68 -8.909 OFFCURVE",
"125.546 28.453 CURVE SMOOTH",
"141.66 51.728 OFFCURVE",
"163.338 75.602 OFFCURVE",
"183.23 105.44 CURVE SMOOTH",
"216.414 154.698 OFFCURVE",
"239.546 210.23 OFFCURVE",
"270.494 263.872 CURVE SMOOTH",
"298.716 313.524 OFFCURVE",
"379.163 437.852 OFFCURVE",
"379.163 502.205 CURVE",
"376.964 502.205 LINE",
"356.766 500.185 LINE",
"354.965 500.185 LINE",
"354.965 491.708 OFFCURVE",
"355.849 486.96 OFFCURVE",
"355.129 482.643 CURVE SMOOTH",
"353.148 469.72 OFFCURVE",
"351.249 455.48 OFFCURVE",
"348.257 443.51 CURVE SMOOTH",
"339.001 405.436 OFFCURVE",
"336.175 368.853 OFFCURVE",
"328.918 330.495 CURVE SMOOTH",
"316.013 262.997 OFFCURVE",
"287.301 140.974 OFFCURVE",
"287.301 48.759 CURVE SMOOTH",
"287.301 27 OFFCURVE",
"286.078 0.079 OFFCURVE",
"295.648 -19.061 CURVE SMOOTH",
"301.118 -30.002 OFFCURVE",
"309.781 -31.377 OFFCURVE",
"324 -24.268 CURVE",
"325.624 -23.567 OFFCURVE",
"340.417 -23.966 OFFCURVE",
"355.69 -11.041 CURVE SMOOTH",
"387.025 15.228 OFFCURVE",
"413.303 55.169 OFFCURVE",
"438.452 89.75 CURVE SMOOTH",
"447.918 102.32 OFFCURVE",
"452.089 115.824 OFFCURVE",
"462.47 126.204 CURVE SMOOTH",
"466.139 129.873 OFFCURVE",
"470.054 141.26 OFFCURVE",
"470.054 146.72 CURVE",
"468.054 146.72 LINE",
"447.856 146.72 LINE",
"447.856 147.729 OFFCURVE",
"447.856 147.729 OFFCURVE",
"446.846 147.729 CURVE"
);
}
);
width = 506.61;
},
{
anchors = (
{
name = bottom;
position = "{236, -10}";
},
{
name = ogonek;
position = "{455, 0}";
},
{
name = top;
position = "{269, 510}";
}
);
associatedMasterId = "BC735296-CD3A-4FA4-9AA9-EE2D747BC69E";
background = {
paths = (
{
closed = 1;
nodes = (
"366 67.779 OFFCURVE",
"240 65.779 OFFCURVE",
"240 65.779 CURVE SMOOTH",
"176.26 65.779 OFFCURVE",
"135 75.361 OFFCURVE",
"135 138.779 CURVE SMOOTH",
"135 189.779 OFFCURVE",
"185 213.779 OFFCURVE",
"250 213.779 CURVE",
"364 213.779 OFFCURVE",
"387 99.789 OFFCURVE",
"387 50.779 CURVE SMOOTH",
"387 33.779 OFFCURVE",
"385 65.779 OFFCURVE",
"385 67.779 CURVE"
);
},
{
closed = 1;
nodes = (
"120.086 66.547 LINE",
"277.52 66.547 LINE",
"277.52 432.939 LINE",
"120.086 432.939 LINE"
);
}
);
};
layerId = "18F52023-00E8-42AC-8E13-AA4FFF5EF26E";
name = "Apr 26 17, 13:38";
paths = (
{
closed = 1;
nodes = (
"403 -10 OFFCURVE",
"437 147.51 OFFCURVE",
"437 209 CURVE SMOOTH",
"437 311.628 OFFCURVE",
"406.656 430 OFFCURVE",
"257 430 CURVE SMOOTH",
"129 430 OFFCURVE",
"60 319 OFFCURVE",
"60 209 CURVE SMOOTH",
"60 98 OFFCURVE",
"129 -10 OFFCURVE",
"257 -10 CURVE SMOOTH"
);
},
{
closed = 1;
nodes = (
"176 67 OFFCURVE",
"140 142 OFFCURVE",
"140 209 CURVE SMOOTH",
"140 276 OFFCURVE",
"167 353 OFFCURVE",
"277 353 CURVE SMOOTH",
"377.366 353 OFFCURVE",
"427 279 OFFCURVE",
"427 209 CURVE SMOOTH",
"427 149 OFFCURVE",
"379 67 OFFCURVE",
"277 67 CURVE SMOOTH"
);
},
{
closed = 1;
nodes = (
"427 100 LINE",
"427 67 OFFCURVE",
"434 0 OFFCURVE",
"434 0 CURVE",
"507 0 LINE",
"507 500 LINE",
"427 500 LINE"
);
},
{
closed = 1;
nodes = (
"77 419.867 LINE",
"507 419.867 LINE",
"507 499.867 LINE",
"77 499.867 LINE"
);
}
);
width = 587;
},
{
anchors = (
{
name = bottom;
position = "{188, -10}";
},
{
name = ogonek;
position = "{407, 0}";
},
{
name = top;
position = "{221, 510}";
}
);
associatedMasterId = "BC735296-CD3A-4FA4-9AA9-EE2D747BC69E";
background = {
paths = (
{
closed = 1;
nodes = (
"318 67.779 OFFCURVE",
"192 65.779 OFFCURVE",
"192 65.779 CURVE SMOOTH",
"128.26 65.779 OFFCURVE",
"87 75.361 OFFCURVE",
"87 138.779 CURVE SMOOTH",
"87 189.779 OFFCURVE",
"137 213.779 OFFCURVE",
"202 213.779 CURVE",
"316 213.779 OFFCURVE",
"339 99.789 OFFCURVE",
"339 50.779 CURVE SMOOTH",
"339 33.779 OFFCURVE",
"337 65.779 OFFCURVE",
"337 67.779 CURVE"
);
},
{
closed = 1;
nodes = (
"72.086 66.547 LINE",
"229.52 66.547 LINE",
"229.52 432.939 LINE",
"72.086 432.939 LINE"
);
}
);
};
layerId = "5D02BBA1-0EB3-41C2-9B80-C4549D2977FC";
name = "May 4 17, 10:59";
paths = (
{
closed = 1;
nodes = (
"379 100 LINE",
"379 67 OFFCURVE",
"386 0 OFFCURVE",
"386 0 CURVE",
"459 0 LINE",
"459 500 LINE",
"379 500 LINE"
);
},
{
closed = 1;
nodes = (
"89 419.867 LINE",
"459 419.867 LINE",
"459 499.867 LINE",
"89 499.867 LINE"
);
},
{
closed = 1;
nodes = (
"400.035 232.084 LINE",
"412.639 310.084 LINE",
"223.714 310.084 LINE",
"138.969 310.084 OFFCURVE",
"40 276.962 OFFCURVE",
"40 156 CURVE SMOOTH",
"40 45 OFFCURVE",
"131 -10 OFFCURVE",
"229 -10 CURVE SMOOTH",
"355 -10 OFFCURVE",
"389 147.51 OFFCURVE",
"389 209 CURVE",
"379 209 LINE",
"379 149 OFFCURVE",
"311 67 OFFCURVE",
"229 67 CURVE SMOOTH",
"165.165 67 OFFCURVE",
"120 101.602 OFFCURVE",
"120 156 CURVE SMOOTH",
"120 207.975 OFFCURVE",
"177.513 232.084 OFFCURVE",
"241.876 232.084 CURVE"
);
}
);
width = 539;
},
{
anchors = (
{
name = bottom;
position = "{103.2, -10}";
},
{
name = center;
position = "{187.243, 250}";
},
{
name = ogonek;
position = "{322.2, 0}";
},
{
name = top;
position = "{136.2, 510}";
},
{
name = topright;
position = "{482.2, 500}";
}
);
associatedMasterId = "BC735296-CD3A-4FA4-9AA9-EE2D747BC69E";
background = {
paths = (
{
closed = 1;
nodes = (
"144.2 496 OFFCURVE",
"-0.8 340 OFFCURVE",
"-0.8 165 CURVE SMOOTH",
"-0.8 57 OFFCURVE",
"54.2 0 OFFCURVE",
"167.2 0 CURVE",
"277.2 228 LINE",
"314.2 315 LINE",
"334.2 315 LINE",
"374.2 418 LINE",
"334.2 432 LINE",
"334.2 432 OFFCURVE",
"309.2 496 OFFCURVE",
"224.2 496 CURVE SMOOTH"
);
},
{
closed = 1;
nodes = (
"267.2 128 OFFCURVE",
"263.2 104 OFFCURVE",
"263.2 83 CURVE SMOOTH",
"263.2 30 OFFCURVE",
"288.2 0 OFFCURVE",
"366.2 0 CURVE",
"463.2 133 LINE",
"431.2 145 LINE",
"353.2 58 LINE",
"343.2 56 OFFCURVE",
"341.2 67 OFFCURVE",
"341.2 82 CURVE SMOOTH",
"341.2 104 OFFCURVE",
"347.2 133 OFFCURVE",
"347.2 133 CURVE",
"273.2 155 LINE"
);
},
{
closed = 1;
nodes = (
"257.2 432 OFFCURVE",
"307.2 391 OFFCURVE",
"307.2 391 CURVE",
"255.2 278 OFFCURVE",
"153.2 89 OFFCURVE",
"150.2 89 CURVE SMOOTH",
"101.2 89 OFFCURVE",
"75.2 130 OFFCURVE",
"75.2 178 CURVE SMOOTH",
"75.2 327 OFFCURVE",
"180.2 431 OFFCURVE",
"180.2 432 CURVE"
);
},
{
closed = 1;
nodes = (
"331.2 475 LINE SMOOTH",
"325.2 332 LINE",
"273.2 155 LINE",
"347.2 133 LINE",
"406.2 475 LINE"
);
}
);
};
layerId = "AF7D78B0-D64D-4EC6-A14E-A95EEB8F7847";
name = "May 6 17, 14:09";
paths = (
{
closed = 1;
nodes = (
"381.041 137.962 OFFCURVE",
"362.772 116.22 OFFCURVE",
"344.893 92.617 CURVE SMOOTH",
"315.132 53.326 OFFCURVE",
"295.628 62.711 OFFCURVE",
"310.622 48.285 CURVE SMOOTH",
"311.09 47.819 OFFCURVE",
"313.025 33.594 OFFCURVE",
"313.025 33.594 CURVE",
"313.025 53.48 OFFCURVE",
"347.672 120.039 OFFCURVE",
"354.085 149.781 CURVE SMOOTH",
"361.815 185.625 OFFCURVE",
"369.902 227.252 OFFCURVE",
"378.502 269.871 CURVE SMOOTH",
"385.417 304.142 OFFCURVE",
"385.602 334.607 OFFCURVE",
"388.481 369.879 CURVE SMOOTH",
"393.774 434.725 OFFCURVE",
"380.783 453.473 OFFCURVE",
"353.865 450.868 CURVE SMOOTH",
"327.827 448.348 OFFCURVE",
"338.449 447.912 OFFCURVE",
"322.912 409.057 CURVE SMOOTH",
"311.128 379.586 OFFCURVE",
"301.002 346.37 OFFCURVE",
"284.694 309.016 CURVE SMOOTH",
"256.662 244.804 OFFCURVE",
"232.169 212.985 OFFCURVE",
"163.228 151.527 CURVE SMOOTH",
"124.3 116.824 OFFCURVE",
"88.829 89.926 OFFCURVE",
"46.906 63.332 CURVE",
"68.451 77 OFFCURVE",
"73.197 73.739 OFFCURVE",
"88.899 44.615 CURVE",
"75.61 69.263 OFFCURVE",
"70.61 91.911 OFFCURVE",
"70.61 132.767 CURVE SMOOTH",
"70.61 176.855 OFFCURVE",
"77.69 217.738 OFFCURVE",
"91.855 253.456 CURVE SMOOTH",
"118.979 321.853 OFFCURVE",
"163.956 384.104 OFFCURVE",
"234.661 450.788 CURVE",
"226.824 443.396 OFFCURVE",
"222.115 439.476 OFFCURVE",
"221.581 439.476 CURVE",
"297.348 439.476 OFFCURVE",
"325.339 334.761 OFFCURVE",
"325.339 410.461 CURVE",
"375.339 410.461 LINE",
"375.339 445.056 OFFCURVE",
"266.043 519.476 OFFCURVE",
"221.581 519.476 CURVE SMOOTH",
"211.637 519.476 OFFCURVE",
"208.978 517.119 OFFCURVE",
"200.355 508.987 CURVE SMOOTH",
"130.773 443.362 OFFCURVE",
"79.119 368.036 OFFCURVE",
"45.376 282.947 CURVE SMOOTH",
"30.624 245.746 OFFCURVE",
"20.61 185.684 OFFCURVE",
"20.61 132.767 CURVE SMOOTH",
"20.61 82.028 OFFCURVE",
"29.894 34.46 OFFCURVE",
"44.888 6.649 CURVE SMOOTH",
"53.458 -9.245 OFFCURVE",
"59.916 -12.96 OFFCURVE",
"73.69 -4.222 CURVE SMOOTH",
"114.038 21.374 OFFCURVE",
"153.389 53.378 OFFCURVE",
"196.5 91.81 CURVE SMOOTH",
"262.82 150.932 OFFCURVE",
"294.728 195.026 OFFCURVE",
"330.518 277.008 CURVE SMOOTH",
"344.155 308.245 OFFCURVE",
"354.771 342.923 OFFCURVE",
"369.338 379.354 CURVE",
"369.228 379.08 OFFCURVE",
"367.296 372.073 OFFCURVE",
"358.681 371.24 CURVE",
"338.647 376.387 LINE",
"335.495 337.771 OFFCURVE",
"335.679 316.366 OFFCURVE",
"329.49 285.695 CURVE SMOOTH",
"321.698 247.083 OFFCURVE",
"314.285 208.733 OFFCURVE",
"305.209 166.644 CURVE SMOOTH",
"303.075 156.748 OFFCURVE",
"263.025 83.952 OFFCURVE",
"263.025 33.594 CURVE SMOOTH",
"263.025 17.216 OFFCURVE",
"268.82 -2.499 OFFCURVE",
"275.956 -9.365 CURVE SMOOTH",
"298.663 -31.212 OFFCURVE",
"351.789 0.798 OFFCURVE",
"384.75 44.312 CURVE SMOOTH",
"396.217 59.45 OFFCURVE",
"411.798 76.915 OFFCURVE",
"430.886 96.396 CURVE",
"395.171 152.384 LINE"
);
}
);
width = 495.6;
}
);
leftKerningGroup = a;
leftMetricsKey = o;
rightKerningGroup = a;
rightMetricsKey = n;
unicode = 0061;
},
{
glyphname = ae;
lastChange = "2020-07-29 06:26:09 +0000";
layers = (
{
anchors = (
{
name = bottom;
position = "{419, 0}";
},
{
name = top;
position = "{419, 500}";
}
);
background = {
components = (
{
name = a;
transform = "{1, 0, 0, 1, -11, 0}";
},
{
name = e;
transform = "{1, 0, 0, 1, 252.531, 0}";
}
);
};
layerId = "BC735296-CD3A-4FA4-9AA9-EE2D747BC69E";
paths = (
{
closed = 1;
nodes = (
"545.855 137.204 OFFCURVE",
"530.465 122.328 OFFCURVE",
"506.981 102.944 CURVE SMOOTH",
"485.62 85.311 OFFCURVE",
"464.603 76.244 OFFCURVE",
"445.694 76.244 CURVE SMOOTH",
"418.414 76.244 OFFCURVE",
"405.327 101.254 OFFCURVE",
"383.782 163.986 CURVE SMOOTH",
"354.019 250.647 OFFCURVE",
"333.988 350.528 OFFCURVE",
"297.37 431.973 CURVE",
"279.452 459.574 LINE",
"268.565 474.364 OFFCURVE",
"265.305 479.502 OFFCURVE",
"266.064 478.42 CURVE",
"220.913 511.537 LINE",
"157.528 495.451 OFFCURVE",
"56.162 379.163 OFFCURVE",
"44.811 329.969 CURVE SMOOTH",
"38.165 301.164 OFFCURVE",
"33.36 260.202 OFFCURVE",
"28.734 227.265 CURVE SMOOTH",
"23.443 189.588 OFFCURVE",
"23.288 147.745 OFFCURVE",
"23.288 112.227 CURVE SMOOTH",
"23.288 109.791 OFFCURVE",
"16.086 81.214 OFFCURVE",
"16.086 57.296 CURVE SMOOTH",
"16.086 -1.319 OFFCURVE",
"45.889 -30.821 OFFCURVE",
"87.299 0.258 CURVE SMOOTH",
"120.815 25.412 OFFCURVE",
"180.013 138.066 OFFCURVE",
"206.036 181.973 CURVE SMOOTH",
"236.237 232.93 OFFCURVE",
"256.272 248.84 OFFCURVE",
"298.795 326.386 CURVE",
"298.268 325.424 OFFCURVE",
"350.107 399.317 OFFCURVE",
"350.107 444.997 CURVE",
"300.107 444.997 LINE",
"300.107 433.97 OFFCURVE",
"262.647 377.343 OFFCURVE",
"254.954 364.851 CURVE SMOOTH",
"244.653 348.122 OFFCURVE",
"202.489 289.35 OFFCURVE",
"163.023 222.762 CURVE SMOOTH",
"140.598 184.926 OFFCURVE",
"92.682 90.808 OFFCURVE",
"57.285 64.242 CURVE",
"61.856 67.672 OFFCURVE",
"66.086 61.613 OFFCURVE",
"66.086 57.296 CURVE",
"66.086 68.035 OFFCURVE",
"73.288 95.952 OFFCURVE",
"73.288 112.227 CURVE",
"73.288 147.54 OFFCURVE",
"73.414 181.719 OFFCURVE",
"78.248 216.139 CURVE SMOOTH",
"82.579 246.978 OFFCURVE",
"86.606 281.972 OFFCURVE",
"93.531 311.982 CURVE SMOOTH",
"102.117 349.193 OFFCURVE",
"188.477 422.642 OFFCURVE",
"233.212 433.995 CURVE",
"225.132 432.474 LINE",
"231.632 423.209 OFFCURVE",
"236.175 416.238 OFFCURVE",
"239.185 412.149 CURVE",
"251.767 399.167 LINE",
"289.685 314.832 OFFCURVE",
"307.027 223.796 OFFCURVE",
"336.493 138 CURVE SMOOTH",
"367.801 46.842 OFFCURVE",
"400.729 -3.756 OFFCURVE",
"445.694 -3.756 CURVE SMOOTH",
"472.137 -3.756 OFFCURVE",
"501.883 10.765 OFFCURVE",
"538.811 41.248 CURVE SMOOTH",
"549.011 49.668 OFFCURVE",
"575.9 74.007 OFFCURVE",
"587.852 95.117 CURVE",
"544.342 134.533 LINE"
);
},
{
closed = 1;
nodes = (
"382.408 255.354 OFFCURVE",
"386.803 283.539 OFFCURVE",
"400.148 313.916 CURVE SMOOTH",
"413.487 344.28 OFFCURVE",
"430.31 370.74 OFFCURVE",
"460.469 409.007 CURVE SMOOTH",
"465.204 415.016 OFFCURVE",
"489.458 434.943 OFFCURVE",
"512.566 439.312 CURVE",
"510.169 438.859 OFFCURVE",
"515.19 439.241 OFFCURVE",
"520.239 439.241 CURVE SMOOTH",
"583.189 439.241 OFFCURVE",
"572.893 415.025 OFFCURVE",
"564.505 462.199 CURVE",
"565.694 455.508 OFFCURVE",
"565.775 455.939 OFFCURVE",
"565.775 451.703 CURVE SMOOTH",
"565.775 400.981 OFFCURVE",
"493.527 322.245 OFFCURVE",
"415.022 292.982 CURVE SMOOTH",
"359.715 272.366 OFFCURVE",
"339.53 260.99 OFFCURVE",
"285.647 260.99 CURVE",
"285.647 180.99 LINE",
"345.792 180.99 OFFCURVE",
"370.499 194.915 OFFCURVE",
"432.486 218.021 CURVE SMOOTH",
"508.882 246.498 OFFCURVE",
"615.775 350.004 OFFCURVE",
"615.775 451.703 CURVE SMOOTH",
"615.775 459.19 OFFCURVE",
"615.126 468.367 OFFCURVE",
"613.733 476.204 CURVE SMOOTH",
"608.648 504.8 OFFCURVE",
"572.305 519.241 OFFCURVE",
"520.239 519.241 CURVE SMOOTH",
"513.539 519.241 OFFCURVE",
"508.623 518.93 OFFCURVE",
"503.277 517.919 CURVE SMOOTH",
"480.389 513.592 OFFCURVE",
"443.411 486.71 OFFCURVE",
"421.199 458.526 CURVE SMOOTH",
"394.198 424.266 OFFCURVE",
"372.889 388.245 OFFCURVE",
"354.371 346.093 CURVE SMOOTH",
"335.959 304.182 OFFCURVE",
"332.408 247.249 OFFCURVE",
"332.408 202.599 CURVE",
"382.408 202.599 LINE"
);
}
);
width = 639.8;
}
);
leftKerningGroup = a;
leftMetricsKey = a;
rightMetricsKey = e;
unicode = 00E6;
},
{
glyphname = b;
lastChange = "2020-07-29 06:26:09 +0000";
layers = (
{
background = {
components = (
{
name = a;
transform = "{-1, 0, 0, 1, 481.7, 0}";
}
);
};
layerId = "BC735296-CD3A-4FA4-9AA9-EE2D747BC69E";
paths = (
{
closed = 1;
nodes = (
"97.571 152.772 LINE",
"97.571 62.997 OFFCURVE",
"158.696 65.062 OFFCURVE",
"195.489 157.045 CURVE SMOOTH",
"202.917 175.143 OFFCURVE",
"213.408 195.948 OFFCURVE",
"231.492 228.241 CURVE SMOOTH",
"266.224 289.611 OFFCURVE",
"328.975 386.828 OFFCURVE",
"380.919 456.752 CURVE",
"379.314 456.752 LINE",
"346.997 456.752 LINE",
"346.235 456.752 LINE",
"397.872 435.49 OFFCURVE",
"431.817 426.406 OFFCURVE",
"438.856 413.208 CURVE SMOOTH",
"459.791 373.953 OFFCURVE",
"444.977 448.815 OFFCURVE",
"444.977 393.129 CURVE SMOOTH",
"444.977 372.679 OFFCURVE",
"438.125 348.086 OFFCURVE",
"430.77 313.761 CURVE SMOOTH",
"412.704 227.645 OFFCURVE",
"322.349 52.792 OFFCURVE",
"229.848 52.792 CURVE SMOOTH",
"198.973 52.792 OFFCURVE",
"168.823 70.395 OFFCURVE",
"143.594 80.487 CURVE",
"142.851 80.487 LINE",
"143.386 80.137 LINE",
"144.155 80.137 LINE",
"127.577 87.044 OFFCURVE",
"114.213 90.937 OFFCURVE",
"110.014 89.389 CURVE",
"108.937 89.389 LINE",
"81.644 37.644 LINE",
"83.413 37.644 LINE",
"83.413 37.644 OFFCURVE",
"83.413 37.644 OFFCURVE",
"83.413 37.644 CURVE",
"130.106 44.472 LINE",
"131.717 44.472 LINE",
"144.226 83.052 OFFCURVE",
"149.042 160.484 OFFCURVE",
"155.138 188.528 CURVE SMOOTH",
"185.038 324.008 OFFCURVE",
"185.396 349.917 OFFCURVE",
"213.631 490.079 CURVE SMOOTH",
"232.891 584.361 OFFCURVE",
"238.887 618.334 OFFCURVE",
"238.887 618.337 CURVE",
"239.919 629.446 LINE",
"233.858 689.03 LINE",
"233.316 689.03 LINE",
"181.373 709.228 LINE",
"148.982 709.228 OFFCURVE",
"94.447 707.208 OFFCURVE",
"84.422 707.208 CURVE SMOOTH",
"82.422 707.208 LINE",
"82.422 626.416 LINE",
"84.422 626.416 LINE SMOOTH",
"102.689 626.416 OFFCURVE",
"148.186 628.438 OFFCURVE",
"187.484 629.446 CURVE",
"185.473 629.446 LINE",
"160.226 506.238 LINE SMOOTH",
"131.911 369.718 OFFCURVE",
"132.255 343.371 OFFCURVE",
"101.895 205.739 CURVE SMOOTH",
"91.561 158.193 OFFCURVE",
"93.398 111.104 OFFCURVE",
"79.987 69.913 CURVE SMOOTH",
"77.069 61.182 OFFCURVE",
"74.211 53.04 OFFCURVE",
"72.876 48.7 CURVE",
"79.976 39.469 LINE",
"82.402 37.24 OFFCURVE",
"86.193 34.345 OFFCURVE",
"87.02 32.622 CURVE",
"86.438 32.622 LINE",
"87.489 16.006 LINE",
"88.553 16.006 LINE",
"100.683 9.613 OFFCURVE",
"114.711 9.095 OFFCURVE",
"123.195 5.56 CURVE SMOOTH",
"154.913 -7.15 OFFCURVE",
"191.211 -28 OFFCURVE",
"229.848 -28 CURVE SMOOTH",
"348.18 -28 OFFCURVE",
"462.155 192.565 OFFCURVE",
"484.066 296.897 CURVE SMOOTH",
"489.827 323.768 OFFCURVE",
"499.472 359.133 OFFCURVE",
"499.472 393.129 CURVE SMOOTH",
"499.472 414.767 OFFCURVE",
"495.327 435.504 OFFCURVE",
"486.94 451.227 CURVE SMOOTH",
"458.773 504.039 OFFCURVE",
"409.021 513.989 OFFCURVE",
"366.726 531.292 CURVE SMOOTH",
"351.504 537.397 OFFCURVE",
"351.241 526.755 OFFCURVE",
"312.07 474.527 CURVE SMOOTH",
"264.1 410.566 OFFCURVE",
"224.184 338.923 OFFCURVE",
"183.968 267.773 CURVE SMOOTH",
"169.041 241.103 OFFCURVE",
"156.048 214.459 OFFCURVE",
"144.921 187.146 CURVE",
"139.798 176.063 OFFCURVE",
"141.967 169.994 OFFCURVE",
"141.967 152.772 CURVE",
"139.967 152.772 LINE",
"99.571 152.772 LINE"
);
}
);
width = 506.9;
},
{
associatedMasterId = "BC735296-CD3A-4FA4-9AA9-EE2D747BC69E";
background = {
components = (
{
name = a;
transform = "{-1, 0, 0, 1, 452.3, 0}";
}
);
};
layerId = "BD058592-90BA-401F-858A-4120A99E40A9";
name = "May 6 17, 14:10";
paths = (
{
closed = 1;
nodes = (
"164.938 279.376 OFFCURVE",
"168.535 311.368 OFFCURVE",
"194.743 344.302 CURVE SMOOTH",
"215.898 370.886 OFFCURVE",
"217.849 373.27 OFFCURVE",
"238.195 390.119 CURVE SMOOTH",
"244.346 395.212 OFFCURVE",
"271.601 422.237 OFFCURVE",
"288.687 422.237 CURVE",
"288.22 421.771 OFFCURVE",
"282.613 426.176 OFFCURVE",
"283.204 425.881 CURVE SMOOTH",
"301.399 416.783 OFFCURVE",
"290.628 417.624 OFFCURVE",
"290.628 448.514 CURVE",
"290.628 438.774 OFFCURVE",
"284.735 417.043 OFFCURVE",
"288.59 405.924 CURVE SMOOTH",
"303.634 362.539 OFFCURVE",
"291.067 289.736 OFFCURVE",
"265.931 217.923 CURVE SMOOTH",
"245.686 160.084 OFFCURVE",
"197.064 95.159 OFFCURVE",
"186.625 57.685 CURVE SMOOTH",
"185.755 54.563 OFFCURVE",
"185.983 51.833 OFFCURVE",
"184.092 49.577 CURVE",
"192.31 59.384 OFFCURVE",
"197.856 64.018 OFFCURVE",
"198.237 64.018 CURVE",
"189.548 64.018 OFFCURVE",
"179.441 71.746 OFFCURVE",
"182.417 68.77 CURVE",
"142.44 108.747 OFFCURVE",
"115.074 161.055 OFFCURVE",
"78.51 196.181 CURVE SMOOTH",
"57.575 216.292 OFFCURVE",
"45.382 224.222 OFFCURVE",
"45.739 223.889 CURVE SMOOTH",
"84.695 187.615 OFFCURVE",
"51.022 151.672 OFFCURVE",
"60.375 165.615 CURVE SMOOTH",
"63.197 169.821 OFFCURVE",
"79.917 208.866 OFFCURVE",
"81.585 212.171 CURVE SMOOTH",
"93.957 236.679 OFFCURVE",
"105.593 277.518 OFFCURVE",
"117.406 339.332 CURVE SMOOTH",
"133.952 425.909 OFFCURVE",
"136.782 519.685 OFFCURVE",
"136.782 607.151 CURVE",
"136.782 648.339 OFFCURVE",
"136.184 659.236 OFFCURVE",
"136.184 699.609 CURVE",
"86.184 699.609 LINE",
"86.184 658.439 OFFCURVE",
"86.782 648.202 OFFCURVE",
"86.782 607.151 CURVE SMOOTH",
"86.782 521.344 OFFCURVE",
"84.264 437.909 OFFCURVE",
"68.295 354.349 CURVE SMOOTH",
"58.534 303.276 OFFCURVE",
"49.916 273.907 OFFCURVE",
"36.95 248.221 CURVE SMOOTH",
"29.236 232.94 OFFCURVE",
"28.563 224.659 OFFCURVE",
"18.853 210.183 CURVE",
"20.732 212.985 OFFCURVE",
"-7.331 183.031 OFFCURVE",
"11.665 165.342 CURVE SMOOTH",
"26.327 151.689 OFFCURVE",
"38.138 143.996 OFFCURVE",
"43.871 138.489 CURVE SMOOTH",
"86.486 97.551 OFFCURVE",
"107.175 52.089 OFFCURVE",
"147.062 12.201 CURVE SMOOTH",
"164.007 -4.743 OFFCURVE",
"183.847 -15.982 OFFCURVE",
"198.237 -15.982 CURVE SMOOTH",
"208.485 -15.982 OFFCURVE",
"213.352 -12.622 OFFCURVE",
"222.416 -1.805 CURVE SMOOTH",
"228.019 4.882 OFFCURVE",
"233.675 32.213 OFFCURVE",
"234.79 36.215 CURVE SMOOTH",
"238.913 51.012 OFFCURVE",
"287.534 118.386 OFFCURVE",
"313.123 191.493 CURVE SMOOTH",
"333.363 249.318 OFFCURVE",
"355.934 349.116 OFFCURVE",
"338.256 415.162 CURVE",
"338.994 408.815 OFFCURVE",
"340.628 438.217 OFFCURVE",
"340.628 448.514 CURVE SMOOTH",
"340.628 468.666 OFFCURVE",
"327.05 486.692 OFFCURVE",
"305.564 497.435 CURVE SMOOTH",
"298.425 501.005 OFFCURVE",
"294.306 502.237 OFFCURVE",
"288.687 502.237 CURVE SMOOTH",
"259.785 502.237 OFFCURVE",
"221.761 464.534 OFFCURVE",
"206.305 451.735 CURVE SMOOTH",
"189.045 437.442 OFFCURVE",
"173.245 416.265 OFFCURVE",
"155.619 394.116 CURVE SMOOTH",
"137.372 371.186 OFFCURVE",
"118.247 314.19 OFFCURVE",
"101.981 287.106 CURVE",
"144.845 245.919 LINE"
);
}
);
width = 364.8;
}
);
leftMetricsKey = n;
rightKerningGroup = o;
rightMetricsKey = o;
unicode = 0062;
},
{
glyphname = c;
lastChange = "2020-07-29 06:26:09 +0000";
layers = (
{
anchors = (
{
name = bottom;
position = "{138.602, -9.901}";
},
{
name = center;
position = "{138.602, 252.673}";
},
{
name = ogonek;
position = "{226.463, 10.297}";
},
{
name = top;
position = "{214.552, 500.248}";
},
{
name = topright;
position = "{405.216, 505.149}";
}
);
layerId = "BC735296-CD3A-4FA4-9AA9-EE2D747BC69E";
paths = (
{
closed = 1;
nodes = (
"285.294 132.495 LINE",
"280.295 126.247 OFFCURVE",
"264.085 114.133 OFFCURVE",
"232.974 85.03 CURVE",
"235.755 85.03 LINE",
"236.765 86.04 LINE",
"233.98 86.04 LINE",
"216.34 69.437 OFFCURVE",
"195.207 60.792 OFFCURVE",
"174.756 60.792 CURVE SMOOTH",
"163.371 60.792 OFFCURVE",
"151.487 62.775 OFFCURVE",
"143.334 66.851 CURVE",
"117.188 83.296 OFFCURVE",
"107.113 65.385 OFFCURVE",
"107.113 62.812 CURVE",
"111.107 62.812 LINE",
"107.068 116.337 LINE",
"99.128 150.879 OFFCURVE",
"91.099 175.817 OFFCURVE",
"87.846 192.079 CURVE",
"87.885 203.089 OFFCURVE",
"86.875 213.188 OFFCURVE",
"86.875 223.386 CURVE",
"86.875 278.677 OFFCURVE",
"98.948 328.834 OFFCURVE",
"126.043 381.941 CURVE SMOOTH",
"146.752 422.327 OFFCURVE",
"183.387 447.584 OFFCURVE",
"218.182 447.584 CURVE SMOOTH",
"232.394 447.584 OFFCURVE",
"247.587 444.073 OFFCURVE",
"257.469 437.485 CURVE SMOOTH",
"277.918 423.853 OFFCURVE",
"284.568 418.204 OFFCURVE",
"291.315 409.208 CURVE",
"292.02 409.208 LINE",
"297.168 406.634 OFFCURVE",
"295.925 414.094 OFFCURVE",
"295.925 416.277 CURVE",
"295.925 429.188 OFFCURVE",
"279.806 402.044 OFFCURVE",
"279.806 360.733 CURVE",
"281.806 360.733 LINE",
"332.301 360.733 LINE",
"334.301 360.733 LINE",
"334.301 373.355 OFFCURVE",
"346.42 391.534 OFFCURVE",
"346.42 416.277 CURVE SMOOTH",
"346.42 424.157 OFFCURVE",
"344.869 432.984 OFFCURVE",
"341.209 441.525 CURVE",
"328.059 467.724 OFFCURVE",
"311.54 486.766 OFFCURVE",
"289.042 503.129 CURVE SMOOTH",
"265.282 519.944 OFFCURVE",
"242.093 528.376 OFFCURVE",
"218.182 528.376 CURVE SMOOTH",
"165.993 528.376 OFFCURVE",
"113.867 486.946 OFFCURVE",
"78.058 419.307 CURVE SMOOTH",
"49.696 365.853 OFFCURVE",
"32.38 292.245 OFFCURVE",
"32.38 223.386 CURVE SMOOTH",
"32.38 210.334 OFFCURVE",
"33.386 197.26 OFFCURVE",
"34.403 178.95 CURVE",
"39.406 150.086 OFFCURVE",
"47.628 121.228 OFFCURVE",
"53.648 97.149 CURVE SMOOTH",
"55.615 89.279 OFFCURVE",
"54.256 56.768 OFFCURVE",
"64.005 41.604 CURVE",
"71.618 27.174 OFFCURVE",
"81.931 18.924 OFFCURVE",
"108.035 2.218 CURVE SMOOTH",
"130.874 -12.399 OFFCURVE",
"151.857 -20 OFFCURVE",
"174.756 -20 CURVE SMOOTH",
"205.899 -20 OFFCURVE",
"237.238 -5.375 OFFCURVE",
"271.058 26.455 CURVE SMOOTH",
"288.401 42.779 OFFCURVE",
"310.557 58.982 OFFCURVE",
"328.887 85.03 CURVE",
"288.379 132.495 LINE"
);
}
);
width = 382.4;
},
{
anchors = (
{
name = bottom;
position = "{284, -10}";
},
{
name = top;
position = "{279, 510}";
}
);
associatedMasterId = "BC735296-CD3A-4FA4-9AA9-EE2D747BC69E";
layerId = "278933C6-2F8E-40F4-B798-23961C93A606";
name = "Apr 26 17, 12:03";
paths = (
{
closed = 1;
nodes = (
"428 191 LINE",
"407 115 OFFCURVE",
"356 67 OFFCURVE",
"284 67 CURVE SMOOTH",
"181 67 OFFCURVE",
"120 142 OFFCURVE",
"120 249 CURVE SMOOTH",
"120 356 OFFCURVE",
"182 433 OFFCURVE",
"279 433 CURVE SMOOTH",
"356 433 OFFCURVE",
"407 384 OFFCURVE",
"428 309 CURVE",
"505 329 LINE",
"475 439 OFFCURVE",
"394 510 OFFCURVE",
"279 510 CURVE SMOOTH",
"135 510 OFFCURVE",
"40 399 OFFCURVE",
"40 249 CURVE SMOOTH",
"40 98 OFFCURVE",
"135 -10 OFFCURVE",
"284 -10 CURVE SMOOTH",
"394 -10 OFFCURVE",
"476 59 OFFCURVE",
"506 169 CURVE"
);
}
);
width = 546;
}
);
leftKerningGroup = o;
leftMetricsKey = o;
rightMetricsKey = o;
unicode = 0063;
},
{
glyphname = d;
lastChange = "2020-07-29 06:26:09 +0000";
layers = (
{
anchors = (
{
name = bottom;
position = "{152.339, -9.812}";
},
{
name = center;
position = "{155.412, 252.762}";
},
{
name = ogonek;
position = "{340.18, 0.287}";
},
{
name = top;
position = "{148.299, 515.337}";
},
{
name = topright;
position = "{453.289, 505.238}";
}
);
background = {
paths = (
{
closed = 1;
nodes = (
"26.228 154.426 OFFCURVE",
"35.529 134.702 OFFCURVE",
"48.037 117.383 CURVE",
"60.545 100.064 OFFCURVE",
"76.581 86.273 OFFCURVE",
"96.145 76.01 CURVE",
"115.708 65.747 OFFCURVE",
"138.64 60.616 OFFCURVE",
"164.939 60.616 CURVE",
"192.52 60.616 OFFCURVE",
"215.933 66.068 OFFCURVE",
"235.176 76.972 CURVE",
"254.419 87.877 OFFCURVE",
"270.134 102.149 OFFCURVE",
"282.321 119.788 CURVE",
"294.509 137.428 OFFCURVE",
"303.328 157.473 OFFCURVE",
"308.781 179.923 CURVE",
"314.233 202.373 OFFCURVE",
"316.959 225.144 OFFCURVE",
"316.959 248.236 CURVE",
"316.959 272.61 OFFCURVE",
"314.072 296.183 OFFCURVE",
"308.3 318.954 CURVE",
"302.527 341.725 OFFCURVE",
"293.386 361.77 OFFCURVE",
"280.878 379.089 CURVE",
"268.37 396.408 OFFCURVE",
"252.174 410.359 OFFCURVE",
"232.289 420.942 CURVE",
"212.405 431.526 OFFCURVE",
"188.351 436.818 OFFCURVE",
"160.128 436.818 CURVE",
"132.546 436.818 OFFCURVE",
"109.134 431.366 OFFCURVE",
"89.891 420.461 CURVE",
"70.647 409.557 OFFCURVE",
"55.253 395.125 OFFCURVE",
"43.707 377.164 CURVE",
"32.161 359.204 OFFCURVE",
"23.823 338.678 OFFCURVE",
"18.691 315.587 CURVE",
"13.56 292.495 OFFCURVE",
"10.994 268.762 OFFCURVE",
"10.994 244.387 CURVE",
"10.994 221.295 OFFCURVE",
"14.041 198.685 OFFCURVE",
"20.134 176.555 CURVE SMOOTH"
);
},
{
closed = 1;
nodes = (
"314.072 0 LINE",
"314.072 67.351 LINE",
"312.148 67.351 LINE",
"298.678 39.769 OFFCURVE",
"277.511 19.885 OFFCURVE",
"248.646 7.697 CURVE",
"219.781 -4.49 OFFCURVE",
"188.03 -10.584 OFFCURVE",
"153.393 -10.584 CURVE",
"114.907 -10.584 OFFCURVE",
"81.391 -3.528 OFFCURVE",
"52.848 10.584 CURVE",
"24.304 24.695 OFFCURVE",
"0.571 43.618 OFFCURVE",
"-18.352 67.351 CURVE",
"-37.274 91.084 OFFCURVE",
"-51.546 118.666 OFFCURVE",
"-61.168 150.096 CURVE",
"-70.789 181.526 OFFCURVE",
"-75.6 214.881 OFFCURVE",
"-75.6 250.16 CURVE",
"-75.6 285.439 OFFCURVE",
"-70.95 318.794 OFFCURVE",
"-61.649 350.224 CURVE",
"-52.348 381.654 OFFCURVE",
"-38.236 409.076 OFFCURVE",
"-19.314 432.488 CURVE",
"-0.392 455.901 OFFCURVE",
"23.342 474.502 OFFCURVE",
"51.885 488.293 CURVE",
"80.429 502.084 OFFCURVE",
"113.624 508.98 OFFCURVE",
"151.468 508.98 CURVE",
"164.297 508.98 OFFCURVE",
"178.088 507.697 OFFCURVE",
"192.841 505.131 CURVE",
"207.594 502.565 OFFCURVE",
"222.347 498.235 OFFCURVE",
"237.1 492.142 CURVE",
"251.853 486.048 OFFCURVE",
"265.804 478.03 OFFCURVE",
"278.954 468.088 CURVE",
"292.103 458.146 OFFCURVE",
"303.168 445.798 OFFCURVE",
"312.148 431.045 CURVE",
"314.072 431.045 LINE",
"314.072 686.978 LINE",
"395.856 686.978 LINE",
"395.856 0 LINE"
);
}
);
};
layerId = "BC735296-CD3A-4FA4-9AA9-EE2D747BC69E";
paths = (
{
closed = 1;
nodes = (
"447.027 186.109 LINE",
"429.135 168.217 OFFCURVE",
"298.437 22.763 OFFCURVE",
"342.614 56.842 CURVE",
"358.352 63.911 LINE",
"359.55 63.911 LINE",
"359.55 81.17 OFFCURVE",
"361.587 103.569 OFFCURVE",
"365.575 124.505 CURVE SMOOTH",
"398.818 301.799 OFFCURVE",
"401.157 415.283 OFFCURVE",
"442.272 547.653 CURVE SMOOTH",
"470.736 643.188 OFFCURVE",
"487.507 681.663 OFFCURVE",
"434.797 695.099 CURVE",
"436.127 695.099 LINE",
"427.038 715.297 LINE",
"425.214 715.297 LINE SMOOTH",
"424.547 715.297 OFFCURVE",
"423.551 715.297 OFFCURVE",
"424.204 715.297 CURVE",
"393.915 715.297 OFFCURVE",
"358.9 721.3 OFFCURVE",
"327.883 715.297 CURVE SMOOTH",
"263.829 702.697 OFFCURVE",
"312.749 659.255 OFFCURVE",
"307.379 650.663 CURVE",
"307.075 623.862 OFFCURVE",
"327.179 634.505 OFFCURVE",
"328.263 634.505 CURVE SMOOTH",
"360.93 634.505 OFFCURVE",
"391.887 634.505 OFFCURVE",
"424.204 634.505 CURVE",
"424.204 634.505 OFFCURVE",
"424.204 634.505 OFFCURVE",
"424.204 634.505 CURVE",
"414.497 636.525 LINE",
"416.048 636.525 LINE",
"443.002 746.591 OFFCURVE",
"394.869 590.573 OFFCURVE",
"388.942 567.851 CURVE SMOOTH",
"348.442 413.947 OFFCURVE",
"329.276 297.941 OFFCURVE",
"312.137 141.673 CURVE SMOOTH",
"311.097 132.31 OFFCURVE",
"305.055 97.07 OFFCURVE",
"305.055 63.911 CURVE SMOOTH",
"305.055 10.021 OFFCURVE",
"320.57 -17.99 OFFCURVE",
"347.681 -14.861 CURVE",
"355.043 -14.861 OFFCURVE",
"452.933 106.354 OFFCURVE",
"485.224 139.653 CURVE",
"450.033 186.109 LINE"
);
},
{
closed = 1;
nodes = (
"292.897 291.139 LINE",
"292.897 308.8 OFFCURVE",
"275.437 285.005 OFFCURVE",
"245.682 225.495 CURVE SMOOTH",
"217.366 167.863 OFFCURVE",
"197.48 113.152 OFFCURVE",
"162.026 63.911 CURVE",
"163.697 51.792 LINE",
"165.669 51.792 LINE",
"165.002 51.792 OFFCURVE",
"164.007 51.792 OFFCURVE",
"164.659 51.792 CURVE",
"168.719 52.414 LINE",
"168.719 51.792 LINE",
"172.491 51.792 LINE",
"149.342 96.077 OFFCURVE",
"119.63 149.443 OFFCURVE",
"106.878 176.01 CURVE SMOOTH",
"94.733 201.313 OFFCURVE",
"89.907 222.052 OFFCURVE",
"89.907 253.772 CURVE",
"89.907 285.688 OFFCURVE",
"95.313 310.294 OFFCURVE",
"110.936 344.663 CURVE SMOOTH",
"115.581 355.1 OFFCURVE",
"128.048 367.095 OFFCURVE",
"151.117 398.188 CURVE SMOOTH",
"172.896 429.254 OFFCURVE",
"176.879 435.229 OFFCURVE",
"197.129 449.693 CURVE",
"194.857 449.693 LINE",
"190.913 447.064 OFFCURVE",
"189.509 445.659 OFFCURVE",
"189.509 445.653 CURVE",
"190.917 445.653 LINE SMOOTH",
"224.188 445.653 OFFCURVE",
"305.99 394.149 OFFCURVE",
"336.343 394.149 CURVE SMOOTH",
"338.343 394.149 LINE",
"338.343 474.941 LINE",
"336.343 474.941 LINE SMOOTH",
"315.172 474.941 OFFCURVE",
"231.35 526.446 OFFCURVE",
"190.917 526.446 CURVE SMOOTH",
"182.353 526.446 OFFCURVE",
"177.074 525.126 OFFCURVE",
"173.344 521.396 CURVE",
"154.38 508.015 OFFCURVE",
"137.887 489.364 OFFCURVE",
"112.52 452.723 CURVE",
"116.164 452.723 LINE",
"116.164 453.733 LINE",
"112.547 453.733 LINE",
"96.235 431.303 OFFCURVE",
"76.385 410.981 OFFCURVE",
"61.849 379 CURVE SMOOTH",
"44.891 341.901 OFFCURVE",
"35.412 295.644 OFFCURVE",
"35.412 253.772 CURVE SMOOTH",
"35.412 207.075 OFFCURVE",
"45.758 160.688 OFFCURVE",
"64.943 125.515 CURVE",
"68.699 125.515 LINE",
"68.699 126.525 LINE",
"64.91 126.525 LINE",
"84.745 86.855 OFFCURVE",
"104.327 50.782 OFFCURVE",
"124.524 13.416 CURVE SMOOTH",
"130.192 3.03 OFFCURVE",
"145.691 -29 OFFCURVE",
"164.659 -29 CURVE",
"162.99 -29 OFFCURVE",
"165.009 -29 OFFCURVE",
"166.679 -29 CURVE SMOOTH",
"168.052 -29 LINE",
"222.831 22.679 OFFCURVE",
"258.39 117.517 OFFCURVE",
"290.666 182.069 CURVE SMOOTH",
"294.365 189.468 OFFCURVE",
"343.392 262.357 OFFCURVE",
"343.392 291.139 CURVE",
"341.392 291.139 LINE",
"290.897 291.139 LINE"
);
}
);
width = 522.7;
}
);
leftKerningGroup = o;
leftMetricsKey = o;
rightKerningGroup = d;
rightMetricsKey = a;
unicode = 0064;
},
{
glyphname = eth;
lastChange = "2020-07-29 06:26:09 +0000";
layers = (
{
background = {
components = (
{
name = d;
transform = "{1, 0, 0, 1, -22.37, 0}";
}
);
};
layerId = "BC735296-CD3A-4FA4-9AA9-EE2D747BC69E";
paths = (
{
closed = 1;
nodes = (
"371.265 627.851 OFFCURVE",
"438.166 501.118 OFFCURVE",
"438.166 419.85 CURVE SMOOTH",
"438.166 342.181 OFFCURVE",
"420.139 268.177 OFFCURVE",
"385.944 203.454 CURVE SMOOTH",
"360.805 155.871 OFFCURVE",
"282.799 69.823 OFFCURVE",
"258.274 67.535 CURVE SMOOTH",
"229.231 64.826 OFFCURVE",
"198.895 67.845 OFFCURVE",
"174.926 79.697 CURVE SMOOTH",
"90.494 121.444 OFFCURVE",
"99.159 125.744 OFFCURVE",
"96.035 221.38 CURVE SMOOTH",
"95.518 237.215 OFFCURVE",
"94.892 253.576 OFFCURVE",
"94.892 270.24 CURVE SMOOTH",
"94.892 314.28 OFFCURVE",
"99.106 342.236 OFFCURVE",
"110.089 367.097 CURVE SMOOTH",
"126.07 403.274 OFFCURVE",
"186.417 426.37 OFFCURVE",
"214.695 426.37 CURVE SMOOTH",
"226.309 426.37 OFFCURVE",
"340.292 374.099 OFFCURVE",
"369.613 347.29 CURVE",
"406.051 406.333 LINE",
"377.38 432.546 OFFCURVE",
"317.862 465 OFFCURVE",
"292.655 479.481 CURVE SMOOTH",
"266.513 494.501 OFFCURVE",
"249.867 496.37 OFFCURVE",
"224.695 496.37 CURVE SMOOTH",
"154.961 496.37 OFFCURVE",
"91.876 470.012 OFFCURVE",
"60.693 399.424 CURVE SMOOTH",
"47.912 370.491 OFFCURVE",
"40.892 323.553 OFFCURVE",
"40.892 270.24 CURVE SMOOTH",
"40.892 251.548 OFFCURVE",
"41.584 233.459 OFFCURVE",
"42.064 218.768 CURVE SMOOTH",
"45.195 122.915 OFFCURVE",
"37.663 64.019 OFFCURVE",
"150.992 7.984 CURVE SMOOTH",
"190.536 -11.569 OFFCURVE",
"229.908 -17.693 OFFCURVE",
"257.918 -15.081 CURVE SMOOTH",
"314.025 -9.847 OFFCURVE",
"367.365 70.545 OFFCURVE",
"433.69 166.083 CURVE SMOOTH",
"477.943 229.827 OFFCURVE",
"492.166 331.244 OFFCURVE",
"492.166 419.85 CURVE",
"492.166 601.24 OFFCURVE",
"407.791 694.74 OFFCURVE",
"276.311 751.664 CURVE",
"254.856 678.249 LINE"
);
},
{
closed = 1;
nodes = (
"413.83 674.52 OFFCURVE",
"333.928 645.594 OFFCURVE",
"260.423 587.07 CURVE",
"294.059 524.484 LINE",
"350.16 569.153 OFFCURVE",
"427.128 597.182 OFFCURVE",
"510.652 648.131 CURVE",
"482.531 716.427 LINE"
);
}
);
width = 524.76;
}
);
leftMetricsKey = o;
rightMetricsKey = O;
unicode = 00F0;
},
{
glyphname = e;
lastChange = "2020-07-29 06:26:09 +0000";
layers = (
{
anchors = (
{
name = bottom;
position = "{245.891, -9.941}";
},
{
name = ogonek;
position = "{304.166, 4.979}";
},
{
name = top;
position = "{211.3, 515.208}";
}
);
background = {
anchors = (
{
name = bottom;
position = "{205.8, -10}";
},
{
name = center;
position = "{205.8, 250}";
},
{
name = ogonek;
position = "{292.8, 10}";
},
{
name = top;
position = "{200.8, 510}";
},
{
name = topright;
position = "{469.8, 500}";
}
);
paths = (
{
closed = 1;
nodes = (
"361.519 188.229 LINE",
"338.735 110.027 OFFCURVE",
"272.439 68 OFFCURVE",
"206.8 68 CURVE SMOOTH",
"123.8 68 OFFCURVE",
"41.8 132 OFFCURVE",
"41.8 249 CURVE SMOOTH",
"41.8 366 OFFCURVE",
"124.8 432 OFFCURVE",
"206.8 432 CURVE SMOOTH",
"272.389 432 OFFCURVE",
"337.339 389.134 OFFCURVE",
"360.708 312.615 CURVE",
"443.318 312.615 LINE",
"417.346 435.3 OFFCURVE",
"316.88 510 OFFCURVE",
"206.8 510 CURVE SMOOTH",
"77.8 510 OFFCURVE",
"-38.2 409 OFFCURVE",
"-38.2 249 CURVE SMOOTH",
"-38.2 88 OFFCURVE",
"77.8 -10 OFFCURVE",
"206.8 -10 CURVE SMOOTH",
"317.788 -10 OFFCURVE",
"419.003 63.682 OFFCURVE",
"443.946 188.229 CURVE"
);
}
);
};
layerId = "BC735296-CD3A-4FA4-9AA9-EE2D747BC69E";
paths = (
{
closed = 1;
nodes = (
"243.085 61.762 LINE",
"246.189 61.762 LINE",
"249.304 65.916 OFFCURVE",
"243.754 64.792 OFFCURVE",
"228.43 64.792 CURVE SMOOTH",
"202.64 64.792 OFFCURVE",
"175.875 71.216 OFFCURVE",
"174.501 69.842 CURVE",
"177.116 69.842 LINE",
"169.036 75.901 LINE SMOOTH",
"141.939 96 OFFCURVE",
"113.981 125.037 OFFCURVE",
"115.263 131.446 CURVE",
"108.291 146.067 OFFCURVE",
"106.213 159.223 OFFCURVE",
"106.213 184.97 CURVE",
"106.213 280.128 OFFCURVE",
"141.668 430.055 OFFCURVE",
"189.296 468.752 CURVE",
"186.834 468.752 LINE",
"182.154 465.242 OFFCURVE",
"187.216 442.967 OFFCURVE",
"206.671 447.545 CURVE",
"209.252 448.617 OFFCURVE",
"222.513 449.564 OFFCURVE",
"230.45 449.564 CURVE SMOOTH",
"264.338 449.564 OFFCURVE",
"309.123 401.794 OFFCURVE",
"314.358 381.901 CURVE",
"314.878 381.901 LINE",
"322.268 420.277 LINE",
"325.699 432.885 OFFCURVE",
"315.693 427.273 OFFCURVE",
"297.576 405.129 CURVE SMOOTH",
"227.502 319.819 OFFCURVE",
"172.419 297.786 OFFCURVE",
"103.35 264.752 CURVE",
"102.798 264.752 LINE",
"101.788 263.743 LINE",
"102.308 263.743 LINE",
"95.656 260.417 OFFCURVE",
"28.756 234.455 OFFCURVE",
"20.391 234.455 CURVE SMOOTH",
"18.391 234.455 LINE",
"18.391 153.663 LINE",
"20.391 153.663 LINE SMOOTH",
"35.28 153.663 OFFCURVE",
"115.866 186.306 OFFCURVE",
"126.378 192.04 CURVE SMOOTH",
"209.002 236.924 OFFCURVE",
"278.964 282.55 OFFCURVE",
"340.027 353.624 CURVE SMOOTH",
"346.656 361.356 OFFCURVE",
"362.079 373.119 OFFCURVE",
"368.663 390.99 CURVE",
"374.649 405.046 OFFCURVE",
"369.541 420.849 OFFCURVE",
"351.142 442.495 CURVE SMOOTH",
"321.481 478.104 OFFCURVE",
"274.351 530.356 OFFCURVE",
"230.45 530.356 CURVE SMOOTH",
"220.152 530.356 OFFCURVE",
"209.7 529.311 OFFCURVE",
"198.785 527.327 CURVE",
"176.76 521.089 OFFCURVE",
"165.045 516.828 OFFCURVE",
"155.389 508.139 CURVE SMOOTH",
"103.13 461.106 OFFCURVE",
"51.717 299.092 OFFCURVE",
"51.717 184.97 CURVE SMOOTH",
"51.717 144.068 OFFCURVE",
"58.879 106.309 OFFCURVE",
"72.16 81.96 CURVE",
"73.511 80.95 LINE",
"89.479 55.695 OFFCURVE",
"123.282 19.467 OFFCURVE",
"147.486 2.178 CURVE SMOOTH",
"160.907 -7.679 OFFCURVE",
"196.102 -16 OFFCURVE",
"228.43 -16 CURVE SMOOTH",
"252.208 -16 OFFCURVE",
"267.599 -11.602 OFFCURVE",
"278.38 0.158 CURVE",
"276.906 0.158 LINE",
"277.413 0.158 LINE",
"351.136 86 LINE",
"309.3 137.289 LINE"
);
}
);
width = 404.5;
},
{
anchors = (
{
name = bottom;
position = "{301.784, 21.96}";
},
{
name = ogonek;
position = "{923.404, 21.478}";
},
{
name = top;
position = "{317.156, 494.02}";
}
);
associatedMasterId = "BC735296-CD3A-4FA4-9AA9-EE2D747BC69E";
layerId = "19FD2CE1-D98A-4EDC-AD56-D981AAEA01AD";
paths = (
{
closed = 1;
nodes = (
"182.771 189.567 LINE",
"652.016 175.08 LINE",
"629.644 327.92 LINE",
"739.816 266.06 LINE",
"182.9 266.06 LINE"
);
},
{
closed = 1;
nodes = (
"652.016 131.16 LINE",
"652.016 382.648 OFFCURVE",
"676.268 541.96 OFFCURVE",
"352.312 541.96 CURVE SMOOTH",
"117.432 541.96 OFFCURVE",
"24.02 462.92 OFFCURVE",
"24.02 249 CURVE SMOOTH",
"24.02 34.08 OFFCURVE",
"102.06 -41.96 OFFCURVE",
"336.94 -41.96 CURVE SMOOTH",
"518.252 -41.96 OFFCURVE",
"586.304 0.395 OFFCURVE",
"644.872 88.611 CURVE",
"403.432 187.392 LINE",
"456.136 334.524 OFFCURVE",
"476.056 210.82 OFFCURVE",
"400.86 210.82 CURVE SMOOTH",
"352.604 210.82 OFFCURVE",
"487.54 205.92 OFFCURVE",
"487.54 185.08 CURVE SMOOTH",
"487.54 185.08 OFFCURVE",
"363.976 241.24 OFFCURVE",
"366.488 241.24 CURVE SMOOTH",
"392.352 241.24 OFFCURVE",
"259.2 206.22 OFFCURVE",
"259.2 257.452 CURVE"
);
}
);
width = 672.083;
},
{
anchors = (
{
name = bottom;
position = "{301.784, 21.96}";
},
{
name = ogonek;
position = "{923.404, 21.478}";
},
{
name = top;
position = "{317.156, 494.02}";
}
);
associatedMasterId = "BC735296-CD3A-4FA4-9AA9-EE2D747BC69E";
layerId = "B706B621-65D4-4AF0-B4D7-FA90CE4060E7";
paths = (
{
closed = 1;
nodes = (
"182.771 189.567 LINE",
"652.016 175.08 LINE",
"629.644 327.92 LINE",
"739.816 266.06 LINE",
"182.9 266.06 LINE"
);
},
{
closed = 1;
nodes = (
"652.016 131.16 LINE",
"652.016 382.648 OFFCURVE",
"676.268 541.96 OFFCURVE",
"352.312 541.96 CURVE SMOOTH",
"117.432 541.96 OFFCURVE",
"24.02 462.92 OFFCURVE",
"24.02 249 CURVE SMOOTH",
"24.02 34.08 OFFCURVE",
"102.06 -41.96 OFFCURVE",
"336.94 -41.96 CURVE SMOOTH",
"518.252 -41.96 OFFCURVE",
"586.304 0.395 OFFCURVE",
"644.872 88.611 CURVE",
"403.432 187.392 LINE",
"456.136 334.524 OFFCURVE",
"476.056 210.82 OFFCURVE",
"400.86 210.82 CURVE SMOOTH",
"352.604 210.82 OFFCURVE",
"487.54 205.92 OFFCURVE",
"487.54 185.08 CURVE SMOOTH",
"487.54 185.08 OFFCURVE",
"363.976 241.24 OFFCURVE",
"366.488 241.24 CURVE SMOOTH",
"392.352 241.24 OFFCURVE",
"259.2 206.22 OFFCURVE",
"259.2 257.452 CURVE"
);
}
);
width = 672.083;
},
{
anchors = (
{
name = bottom;
position = "{232.289, -10}";
},
{
name = ogonek;
position = "{289.003, 4.773}";
},
{
name = top;
position = "{198.037, 510}";
}
);
associatedMasterId = "BC735296-CD3A-4FA4-9AA9-EE2D747BC69E";
background = {
anchors = (
{
name = bottom;
position = "{192.7, -10}";
},
{
name = center;
position = "{192.7, 250}";
},
{
name = ogonek;
position = "{279.7, 10}";
},
{
name = top;
position = "{187.7, 510}";
},
{
name = topright;
position = "{456.7, 500}";
}
);
paths = (
{
closed = 1;
nodes = (
"348.419 188.229 LINE",
"325.635 110.027 OFFCURVE",
"259.339 68 OFFCURVE",
"193.7 68 CURVE SMOOTH",
"110.7 68 OFFCURVE",
"28.7 132 OFFCURVE",
"28.7 249 CURVE SMOOTH",
"28.7 366 OFFCURVE",
"111.7 432 OFFCURVE",
"193.7 432 CURVE SMOOTH",
"259.289 432 OFFCURVE",
"324.239 389.134 OFFCURVE",
"347.608 312.615 CURVE",
"430.218 312.615 LINE",
"404.246 435.3 OFFCURVE",
"303.78 510 OFFCURVE",
"193.7 510 CURVE SMOOTH",
"64.7 510 OFFCURVE",
"-51.3 409 OFFCURVE",
"-51.3 249 CURVE SMOOTH",
"-51.3 88 OFFCURVE",
"64.7 -10 OFFCURVE",
"193.7 -10 CURVE SMOOTH",
"304.688 -10 OFFCURVE",
"405.903 63.682 OFFCURVE",
"430.846 188.229 CURVE"
);
}
);
};
layerId = "9425A5F1-C1AC-4D37-82B7-38E44920D6F4";
name = "May 6 17, 14:12";
paths = (
{
closed = 1;
nodes = (
"257.332 103.984 OFFCURVE",
"228.922 91.384 OFFCURVE",
"199.795 77.097 CURVE SMOOTH",
"185.641 71.2 OFFCURVE",
"167.968 67.502 OFFCURVE",
"154.724 67.502 CURVE SMOOTH",
"124.723 67.502 OFFCURVE",
"115.439 74.182 OFFCURVE",
"109.245 104.78 CURVE SMOOTH",
"105.691 120.346 OFFCURVE",
"103.916 131.44 OFFCURVE",
"103.197 145.165 CURVE SMOOTH",
"100.934 188.343 OFFCURVE",
"110.625 220.185 OFFCURVE",
"150.208 294.417 CURVE SMOOTH",
"178.657 345.051 OFFCURVE",
"187.795 352.796 OFFCURVE",
"211.637 380.374 CURVE SMOOTH",
"242.235 412.844 OFFCURVE",
"260.177 425.616 OFFCURVE",
"289.612 434.184 CURVE",
"289.023 433.558 OFFCURVE",
"293.818 434.035 OFFCURVE",
"298.359 434.035 CURVE SMOOTH",
"313.983 434.035 OFFCURVE",
"350.851 425.67 OFFCURVE",
"354.819 423.045 CURVE",
"360.576 422.751 LINE",
"361.756 400.242 OFFCURVE",
"347.03 360.992 OFFCURVE",
"325.421 339.452 CURVE SMOOTH",
"277.484 295.446 OFFCURVE",
"223.015 269.516 OFFCURVE",
"114.98 269.516 CURVE SMOOTH",
"89.202 269.516 OFFCURVE",
"63.266 270.205 OFFCURVE",
"36.399 270.205 CURVE",
"38.916 190.205 LINE",
"65.516 190.205 OFFCURVE",
"91.453 189.516 OFFCURVE",
"115.822 189.516 CURVE SMOOTH",
"241.148 189.516 OFFCURVE",
"303.689 214.602 OFFCURVE",
"363.472 289.446 CURVE SMOOTH",
"381.002 309.647 OFFCURVE",
"413.242 371.893 OFFCURVE",
"410.445 425.264 CURVE SMOOTH",
"409.009 452.649 OFFCURVE",
"397.693 478.911 OFFCURVE",
"381.64 490.435 CURVE SMOOTH",
"358.812 504.623 OFFCURVE",
"324.911 514.035 OFFCURVE",
"297.517 514.035 CURVE SMOOTH",
"288.147 514.035 OFFCURVE",
"282.404 513.034 OFFCURVE",
"275.38 510.587 CURVE SMOOTH",
"236.224 499.913 OFFCURVE",
"202.796 465.162 OFFCURVE",
"175.116 433.351 CURVE SMOOTH",
"147.481 404.149 OFFCURVE",
"128.449 366.855 OFFCURVE",
"107.119 332.642 CURVE SMOOTH",
"69.594 276.546 OFFCURVE",
"49.519 215.338 OFFCURVE",
"53.372 141.814 CURVE SMOOTH",
"54.242 125.226 OFFCURVE",
"56.724 106.392 OFFCURVE",
"60.155 88.908 CURVE SMOOTH",
"74.176 23.844 OFFCURVE",
"107.716 -12.498 OFFCURVE",
"155.566 -12.498 CURVE SMOOTH",
"175.916 -12.498 OFFCURVE",
"196.343 -6.664 OFFCURVE",
"221.209 5.651 CURVE SMOOTH",
"266.865 26.257 OFFCURVE",
"282.164 35.642 OFFCURVE",
"299.668 54.409 CURVE",
"262.68 109.375 LINE"
);
}
);
width = 418.5;
}
);
leftKerningGroup = o;
rightKerningGroup = o;
rightMetricsKey = o;
unicode = 0065;
},
{
glyphname = f;
lastChange = "2020-07-29 06:26:09 +0000";
layers = (
{
associatedMasterId = "BC735296-CD3A-4FA4-9AA9-EE2D747BC69E";
layerId = "43B16F6A-4C6A-4665-B648-7803BE390C05";
name = "Regular Mar 4 17, 16:46";
paths = (
{
closed = 1;
nodes = (
"141 428 LINE",
"279 425 LINE",
"279 500 LINE",
"159 497 LINE",
"23 500 LINE",
"23 425 LINE"
);
},
{
closed = 1;
nodes = (
"187 0 LINE",
"187 21 OFFCURVE",
"187 331 OFFCURVE",
"187 352 CURVE",
"187 560.205 LINE",
"107 560.205 LINE",
"107 352 LINE",
"107 331 OFFCURVE",
"107 21 OFFCURVE",
"107 0 CURVE"
);
},
{
closed = 1;
nodes = (
"165.674 687.608 OFFCURVE",
"105.43 657.34 OFFCURVE",
"107 560.205 CURVE",
"187 560.205 LINE",
"187 606.536 OFFCURVE",
"217 616.557 OFFCURVE",
"287 616.205 CURVE",
"287 640.872 OFFCURVE",
"287 665.539 OFFCURVE",
"287 690.205 CURVE"
);
}
);
width = 389;
},
{
anchors = (
{
name = bottom;
position = "{213.312, 2.083}";
},
{
name = top;
position = "{213.312, 507.033}";
}
);
layerId = "BC735296-CD3A-4FA4-9AA9-EE2D747BC69E";
paths = (
{
closed = 1;
nodes = (
"-79.933 -85.965 LINE",
"-112.905 -147.155 LINE",
"-88.825 -167.524 OFFCURVE",
"-77.201 -175.607 OFFCURVE",
"-60.4 -183.71 CURVE SMOOTH",
"-21.9 -202.277 OFFCURVE",
"1.973 -210.359 OFFCURVE",
"21.827 -210.359 CURVE SMOOTH",
"96.39 -210.359 OFFCURVE",
"104.128 -98.547 OFFCURVE",
"115.404 -55.951 CURVE SMOOTH",
"129.699 -1.955 OFFCURVE",
"140.982 52.569 OFFCURVE",
"149.46 109.721 CURVE SMOOTH",
"163.934 207.296 OFFCURVE",
"169.139 267.992 OFFCURVE",
"186.406 363.651 CURVE SMOOTH",
"196.807 421.268 OFFCURVE",
"215.848 485.904 OFFCURVE",
"233.477 558.734 CURVE SMOOTH",
"237.611 575.81 OFFCURVE",
"254.317 610.556 OFFCURVE",
"257.729 657.383 CURVE",
"255.385 657.383 LINE",
"215.9 650.373 LINE",
"233.902 643.668 OFFCURVE",
"254.986 636.08 OFFCURVE",
"265.771 631.57 CURVE SMOOTH",
"328.345 605.404 OFFCURVE",
"395.565 583.704 OFFCURVE",
"464.011 583.704 CURVE SMOOTH",
"466.011 583.704 LINE",
"466.011 664.496 LINE",
"464.011 664.496 LINE SMOOTH",
"402.918 664.496 OFFCURVE",
"342.247 682.92 OFFCURVE",
"286.795 706.108 CURVE SMOOTH",
"271.092 712.674 OFFCURVE",
"262.967 715.787 OFFCURVE",
"234.272 726.253 CURVE SMOOTH",
"209.86 735.178 OFFCURVE",
"193.692 736.813 OFFCURVE",
"191.316 719.29 CURVE SMOOTH",
"189.131 703.174 OFFCURVE",
"207.363 697.09 OFFCURVE",
"201.142 703.311 CURVE",
"198.314 703.311 LINE",
"203.523 698.101 OFFCURVE",
"204.8 696.092 OFFCURVE",
"204.8 685.671 CURVE SMOOTH",
"204.8 679.475 OFFCURVE",
"204.038 672.317 OFFCURVE",
"203.378 663.255 CURVE SMOOTH",
"201.432 636.553 OFFCURVE",
"188.217 609.574 OFFCURVE",
"180.512 577.741 CURVE SMOOTH",
"164.588 511.957 OFFCURVE",
"145.234 447.008 OFFCURVE",
"132.778 378.003 CURVE SMOOTH",
"115.393 281.693 OFFCURVE",
"109.864 218.039 OFFCURVE",
"95.555 121.576 CURVE SMOOTH",
"87.662 68.37 OFFCURVE",
"76.927 18.375 OFFCURVE",
"62.724 -35.275 CURVE SMOOTH",
"45.386 -100.767 OFFCURVE",
"50.55 -129.567 OFFCURVE",
"21.827 -129.567 CURVE SMOOTH",
"9.02 -129.567 OFFCURVE",
"-10.137 -123.762 OFFCURVE",
"-36.727 -110.939 CURVE SMOOTH",
"-52.826 -103.175 OFFCURVE",
"-66.634 -94.787 OFFCURVE",
"-76.867 -85.965 CURVE"
);
},
{
closed = 1;
nodes = (
"397.73 509.33 LINE SMOOTH",
"290.878 509.33 OFFCURVE",
"183.504 505.709 OFFCURVE",
"76.974 505.709 CURVE SMOOTH",
"74.974 505.709 LINE",
"74.974 435.016 LINE",
"76.974 435.016 LINE SMOOTH",
"183.979 435.016 OFFCURVE",
"291.354 438.637 OFFCURVE",
"397.73 438.637 CURVE SMOOTH",
"399.73 438.637 LINE",
"399.73 509.33 LINE"
);
}
);
width = 360.45;
}
);
rightKerningGroup = f;
unicode = 0066;
},
{
glyphname = g;
lastChange = "2020-07-29 06:26:09 +0000";
layers = (
{
anchors = (
{
name = bottom;
position = "{260, -210}";
},
{
name = top;
position = "{282.385, 510}";
}
);
associatedMasterId = "BC735296-CD3A-4FA4-9AA9-EE2D747BC69E";
layerId = "84027AD4-9964-4277-95E5-27A397B2D05B";
name = "Regular May 4 17, 14:21";
paths = (
{
closed = 1;
nodes = (
"427.4 500 LINE",
"427.4 10 LINE",
"507.4 -10 LINE",
"507.4 500 LINE"
);
},
{
closed = 1;
nodes = (
"407.4 -210 OFFCURVE",
"507.4 -140 OFFCURVE",
"507.4 -10 CURVE",
"427.4 10 LINE",
"427.4 -90 OFFCURVE",
"367.4 -133 OFFCURVE",
"287.4 -133 CURVE",
"159.672 -133 LINE",
"159.672 -210 LINE",
"287.4 -210 LINE"
);
},
{
closed = 1;
nodes = (
"403 -10 OFFCURVE",
"437 147.51 OFFCURVE",
"437 249 CURVE SMOOTH",
"437 391.628 OFFCURVE",
"406.656 510 OFFCURVE",
"257 510 CURVE SMOOTH",
"139 510 OFFCURVE",
"40 399 OFFCURVE",
"40 249 CURVE SMOOTH",
"40 98 OFFCURVE",
"139 -10 OFFCURVE",
"257 -10 CURVE SMOOTH"
);
},
{
closed = 1;
nodes = (
"186 67 OFFCURVE",
"120 142 OFFCURVE",
"120 249 CURVE SMOOTH",
"120 356 OFFCURVE",
"177 433 OFFCURVE",
"277 433 CURVE SMOOTH",
"377.366 433 OFFCURVE",
"427 359 OFFCURVE",
"427 249 CURVE SMOOTH",
"427 149 OFFCURVE",
"379 67 OFFCURVE",
"277 67 CURVE SMOOTH"
);
}
);
width = 587.4;
},
{
anchors = (
{
name = bottom;
position = "{135.18, -209.952}";
},
{
name = center;
position = "{191.746, 254.602}";
},
{
name = ogonek;
position = "{279.607, 12.226}";
},
{
name = top;
position = "{292.573, 510.176}";
},
{
name = topright;
position = "{458.36, 507.077}";
}
);
layerId = "BC735296-CD3A-4FA4-9AA9-EE2D747BC69E";
paths = (
{
closed = 1;
nodes = (
"-34.1 -75.776 LINE",
"-84.595 -75.776 LINE",
"-86.595 -75.776 LINE",
"-86.595 -148.191 OFFCURVE",
"-34.356 -204.533 OFFCURVE",
"38.027 -213.297 CURVE SMOOTH",
"47.137 -214.4 OFFCURVE",
"53.161 -214.802 OFFCURVE",
"61.213 -214.802 CURVE SMOOTH",
"93.216 -214.802 OFFCURVE",
"128.293 -207.073 OFFCURVE",
"158.104 -203.38 CURVE SMOOTH",
"328.927 -182.22 OFFCURVE",
"367.933 -79.595 OFFCURVE",
"400.887 -17.669 CURVE SMOOTH",
"446.351 67.765 OFFCURVE",
"468.359 220.525 OFFCURVE",
"479.78 342.743 CURVE SMOOTH",
"480.58 351.309 OFFCURVE",
"481.113 363.627 OFFCURVE",
"481.113 375.018 CURVE SMOOTH",
"481.113 426.307 OFFCURVE",
"472.82 468.542 OFFCURVE",
"472.82 502.137 CURVE SMOOTH",
"472.82 560.27 OFFCURVE",
"377.929 553.806 OFFCURVE",
"377.929 495.946 CURVE SMOOTH",
"377.929 492.91 OFFCURVE",
"377.929 490 OFFCURVE",
"377.929 486.839 CURVE SMOOTH",
"377.929 485.407 OFFCURVE",
"377.93 484.029 OFFCURVE",
"377.93 482.71 CURVE SMOOTH",
"377.93 438.427 OFFCURVE",
"374.957 441.047 OFFCURVE",
"351.671 407.85 CURVE SMOOTH",
"313.923 354.037 OFFCURVE",
"271.558 292.746 OFFCURVE",
"213.177 230.554 CURVE SMOOTH",
"191.99 207.983 OFFCURVE",
"162.556 185.656 OFFCURVE",
"121.858 131.887 CURVE SMOOTH",
"102.299 106.047 OFFCURVE",
"78.343 83.32 OFFCURVE",
"72.37 83.32 CURVE",
"83.816 83.32 OFFCURVE",
"82.681 76.152 OFFCURVE",
"92.531 66.302 CURVE",
"95.36 66.302 LINE",
"83.374 78.287 OFFCURVE",
"95.872 29.609 OFFCURVE",
"95.872 84.108 CURVE SMOOTH",
"95.872 108.761 OFFCURVE",
"98.496 141.925 OFFCURVE",
"102.967 170.67 CURVE SMOOTH",
"129.617 342.006 OFFCURVE",
"154.922 408.712 OFFCURVE",
"219.417 444.664 CURVE",
"207.426 437.98 OFFCURVE",
"218.572 446.277 OFFCURVE",
"210.491 438.196 CURVE",
"209.077 438.196 LINE",
"232.483 438.196 OFFCURVE",
"279.542 411.904 OFFCURVE",
"287.414 407.854 CURVE SMOOTH",
"326.023 387.995 OFFCURVE",
"341.799 383.908 OFFCURVE",
"334.314 394.081 CURVE",
"374.9 441.961 LINE",
"361.167 460.744 OFFCURVE",
"328.973 471.144 OFFCURVE",
"312.341 479.699 CURVE SMOOTH",
"295.653 488.283 OFFCURVE",
"240.696 518.988 OFFCURVE",
"209.077 518.988 CURVE SMOOTH",
"202.179 518.988 OFFCURVE",
"197.655 517.892 OFFCURVE",
"192.884 515.233 CURVE SMOOTH",
"92.346 459.19 OFFCURVE",
"64.784 283.801 OFFCURVE",
"49.119 183.088 CURVE SMOOTH",
"46.151 164.008 OFFCURVE",
"41.377 121.911 OFFCURVE",
"41.377 84.108 CURVE SMOOTH",
"41.377 45.775 OFFCURVE",
"46.232 19.766 OFFCURVE",
"56.826 9.173 CURVE SMOOTH",
"60.953 5.046 OFFCURVE",
"65.558 2.528 OFFCURVE",
"72.37 2.528 CURVE SMOOTH",
"105.306 2.528 OFFCURVE",
"160.858 77.247 OFFCURVE",
"165.309 83.127 CURVE SMOOTH",
"190.374 116.242 OFFCURVE",
"222.958 143.351 OFFCURVE",
"252.91 175.259 CURVE SMOOTH",
"306.089 231.911 OFFCURVE",
"351.597 297.749 OFFCURVE",
"396.284 361.454 CURVE SMOOTH",
"424.581 401.794 OFFCURVE",
"432.425 427.723 OFFCURVE",
"432.425 482.71 CURVE SMOOTH",
"432.425 484.095 OFFCURVE",
"432.424 485.472 OFFCURVE",
"432.424 486.839 CURVE",
"432.424 489.753 OFFCURVE",
"432.424 491.437 OFFCURVE",
"432.424 495.946 CURVE SMOOTH",
"432.424 506.358 OFFCURVE",
"432.122 504.63 OFFCURVE",
"419.924 502.137 CURVE",
"418.325 502.137 LINE",
"418.325 459.506 OFFCURVE",
"426.618 416.605 OFFCURVE",
"426.618 375.018 CURVE SMOOTH",
"426.618 365.518 OFFCURVE",
"426.196 357.486 OFFCURVE",
"425.521 350.26 CURVE SMOOTH",
"415.292 240.794 OFFCURVE",
"399.732 96.882 OFFCURVE",
"350.038 10.402 CURVE SMOOTH",
"316.676 -47.657 OFFCURVE",
"291.143 -105.891 OFFCURVE",
"151.405 -123.2 CURVE SMOOTH",
"124.673 -126.512 OFFCURVE",
"90.719 -134.01 OFFCURVE",
"61.213 -134.01 CURVE SMOOTH",
"54.534 -134.01 OFFCURVE",
"49.085 -133.636 OFFCURVE",
"44.577 -133.091 CURVE SMOOTH",
"2.299 -127.972 OFFCURVE",
"-32.1 -103.232 OFFCURVE",
"-32.1 -75.776 CURVE"
);
}
);
width = 497.5;
}
);
leftKerningGroup = o;
rightKerningGroup = n;
rightMetricsKey = o;
unicode = 0067;
},
{
glyphname = h;
lastChange = "2020-07-29 06:26:09 +0000";
layers = (
{
anchors = (
{
name = bottom;
position = "{290.861, 0.54}";
},
{
name = center;
position = "{290.861, 253.016}";
},
{
name = top;
position = "{326.208, 515.59}";
}
);
layerId = "BC735296-CD3A-4FA4-9AA9-EE2D747BC69E";
paths = (
{
closed = 1;
nodes = (
"246.649 62.144 LINE",
"272.389 9.635 OFFCURVE",
"307.443 -22.687 OFFCURVE",
"341.356 -22.687 CURVE SMOOTH",
"364.988 -22.687 OFFCURVE",
"372.772 -14.904 OFFCURVE",
"394.306 7.61 CURVE SMOOTH",
"414.657 29.027 OFFCURVE",
"441.459 96.184 OFFCURVE",
"455.163 118.699 CURVE SMOOTH",
"485.667 168.617 OFFCURVE",
"497.871 220.867 OFFCURVE",
"497.871 298.461 CURVE",
"497.871 371.065 OFFCURVE",
"476.063 439.926 OFFCURVE",
"441.799 477.214 CURVE SMOOTH",
"431.388 488.572 OFFCURVE",
"407.821 525.461 OFFCURVE",
"351.748 533.768 CURVE SMOOTH",
"323.112 538.416 OFFCURVE",
"254.718 440.797 OFFCURVE",
"137.674 250.996 CURVE SMOOTH",
"129.126 237.107 OFFCURVE",
"114.997 213.896 OFFCURVE",
"98.212 181.313 CURVE SMOOTH",
"40.262 69.475 OFFCURVE",
"19.428 36.737 OFFCURVE",
"36.532 -5.519 CURVE SMOOTH",
"68.187 -84.149 OFFCURVE",
"108.102 -68.627 OFFCURVE",
"123.179 40.936 CURVE SMOOTH",
"125.105 55.373 OFFCURVE",
"127.856 71.384 OFFCURVE",
"132.251 94.461 CURVE SMOOTH",
"142.543 146.956 OFFCURVE",
"151.506 201.86 OFFCURVE",
"163.554 261.095 CURVE SMOOTH",
"182.84 354.489 OFFCURVE",
"191.93 381.758 OFFCURVE",
"216.066 497.412 CURVE SMOOTH",
"224.352 536.774 OFFCURVE",
"230.276 577.537 OFFCURVE",
"239.292 619.61 CURVE SMOOTH",
"248.084 660.641 OFFCURVE",
"231.602 703.043 OFFCURVE",
"204.258 706.461 CURVE SMOOTH",
"190.305 708.459 OFFCURVE",
"176.896 709.491 OFFCURVE",
"160.584 709.491 CURVE SMOOTH",
"134.097 709.491 OFFCURVE",
"107.84 706.461 OFFCURVE",
"83.831 706.461 CURVE SMOOTH",
"81.831 706.461 LINE",
"81.831 625.669 LINE",
"83.831 625.669 LINE SMOOTH",
"109.308 625.669 OFFCURVE",
"135.566 628.699 OFFCURVE",
"160.584 628.699 CURVE SMOOTH",
"174.556 628.699 OFFCURVE",
"186.478 627.705 OFFCURVE",
"196.741 626.679 CURVE",
"185.911 635.768 LINE",
"176.735 597.048 OFFCURVE",
"171.545 556.022 OFFCURVE",
"162.67 515.59 CURVE SMOOTH",
"140.212 413.509 OFFCURVE",
"132.278 383.866 OFFCURVE",
"110.15 277.253 CURVE SMOOTH",
"98.838 221.725 OFFCURVE",
"89.879 165.808 OFFCURVE",
"77.836 109.61 CURVE SMOOTH",
"73.73 91.118 OFFCURVE",
"71.717 71.994 OFFCURVE",
"68.725 52.045 CURVE",
"83.08 25.788 LINE",
"86.698 25.788 LINE",
"84.633 30.95 OFFCURVE",
"136.486 124.489 OFFCURVE",
"147.188 143.946 CURVE SMOOTH",
"158.297 164.144 OFFCURVE",
"169.816 185.088 OFFCURVE",
"183.519 208.58 CURVE SMOOTH",
"238.529 303.125 OFFCURVE",
"339.623 454.996 OFFCURVE",
"346.406 454.996 CURVE SMOOTH",
"383.99 454.996 OFFCURVE",
"396.758 428.476 OFFCURVE",
"401.546 423.689 CURVE SMOOTH",
"429.576 395.659 OFFCURVE",
"443.376 353.685 OFFCURVE",
"443.376 298.461 CURVE SMOOTH",
"443.376 242.728 OFFCURVE",
"437.236 211.007 OFFCURVE",
"407.287 159.095 CURVE SMOOTH",
"389.703 128.077 OFFCURVE",
"373.17 92.163 OFFCURVE",
"353.831 63.154 CURVE SMOOTH",
"351.484 59.634 OFFCURVE",
"348.365 58.105 OFFCURVE",
"341.356 58.105 CURVE SMOOTH",
"327.585 58.105 OFFCURVE",
"306.04 75.768 OFFCURVE",
"295.696 97.491 CURVE",
"292.663 97.491 LINE",
"247.217 62.144 LINE"
);
}
);
width = 524.5;
}
);
leftKerningGroup = n;
leftMetricsKey = l;
rightKerningGroup = n;
rightMetricsKey = o;
unicode = 0068;
},
{
glyphname = i;
lastChange = "2020-07-29 06:26:09 +0000";
layers = (
{
anchors = (
{
name = bottom;
position = "{110.39, 0.095}";
}
);
components = (
{
alignment = -1;
name = idotless;
transform = "{1.0099, 0, 0, 1.0099, 0.31, 0.095}";
}
);
layerId = "BC735296-CD3A-4FA4-9AA9-EE2D747BC69E";
paths = (
{
closed = 1;
nodes = (
"236.415 717.725 LINE SMOOTH",
"196.334 717.725 OFFCURVE",
"171.489 695.375 OFFCURVE",
"141.118 679.932 CURVE",
"140.119 679.932 LINE",
"167.812 592.792 LINE",
"170.624 592.792 LINE",
"198.868 607.153 OFFCURVE",
"207.874 619.966 OFFCURVE",
"236.415 619.966 CURVE SMOOTH",
"238.415 619.966 LINE",
"238.415 717.725 LINE"
);
}
);
width = 229.8;
},
{
anchors = (
{
name = bottom;
position = "{109, 0}";
}
);
associatedMasterId = "BC735296-CD3A-4FA4-9AA9-EE2D747BC69E";
components = (
{
alignment = -1;
name = idotless;
}
);
layerId = "D8FD7148-965D-4154-BDC6-C0BABDE1E01B";
name = "May 6 17, 14:51";
paths = (
{
closed = 1;
nodes = (
"195.434 710.594 OFFCURVE",
"171.967 689.262 OFFCURVE",
"140.325 673.173 CURVE",
"167.746 586.887 LINE",
"194.031 600.252 OFFCURVE",
"204.622 613.794 OFFCURVE",
"233.79 613.794 CURVE",
"233.79 710.594 LINE"
);
}
);
width = 207.6;
}
);
leftMetricsKey = idotless;
rightMetricsKey = idotless;
unicode = 0069;
},
{
glyphname = idotless;
lastChange = "2020-07-29 06:26:09 +0000";
layers = (
{
anchors = (
{
name = bottom;
position = "{105.1, 0}";
},
{
name = ogonek;
position = "{121.1, 10}";
},
{
name = top;
position = "{135.1, 510}";
}
);
layerId = "BC735296-CD3A-4FA4-9AA9-EE2D747BC69E";
paths = (
{
closed = 1;
nodes = (
"143.644 114.555 LINE",
"122.774 101.297 OFFCURVE",
"93.867 91.05 OFFCURVE",
"61.92 74.869 CURVE",
"76.713 46.108 LINE",
"76.713 74.254 OFFCURVE",
"88.656 107.215 OFFCURVE",
"96.528 142.684 CURVE SMOOTH",
"119.965 248.291 OFFCURVE",
"123.569 270.574 OFFCURVE",
"154.852 379.858 CURVE SMOOTH",
"180.657 470.007 OFFCURVE",
"191.083 496.011 OFFCURVE",
"176.73 508.842 CURVE SMOOTH",
"164.217 520.028 OFFCURVE",
"160.975 514.306 OFFCURVE",
"128.697 501.053 CURVE SMOOTH",
"91.454 485.762 OFFCURVE",
"76.213 482.065 OFFCURVE",
"51.712 482.065 CURVE",
"51.712 402.065 LINE",
"80.233 402.065 OFFCURVE",
"100.679 407.674 OFFCURVE",
"147.687 427.048 CURVE SMOOTH",
"193.757 446.035 OFFCURVE",
"169.373 425.986 OFFCURVE",
"143.407 449.199 CURVE SMOOTH",
"83.46 502.787 OFFCURVE",
"130.348 484.198 OFFCURVE",
"106.782 401.874 CURVE SMOOTH",
"77.742 300.423 OFFCURVE",
"73.261 275.122 OFFCURVE",
"47.715 160.016 CURVE SMOOTH",
"42.462 136.347 OFFCURVE",
"26.713 91.593 OFFCURVE",
"26.713 46.108 CURVE SMOOTH",
"26.713 -45.787 OFFCURVE",
"85.184 3.842 OFFCURVE",
"84.512 3.501 CURVE",
"102.435 12.579 OFFCURVE",
"133.147 23.328 OFFCURVE",
"170.454 47.028 CURVE"
);
}
);
width = 227.6;
}
);
unicode = 0131;
},
{
glyphname = ij;
lastChange = "2020-07-29 06:26:09 +0000";
layers = (
{
background = {
anchors = (
{
name = bottom;
position = "{94.41, 0.095}";
}
);
components = (
{
name = idotless;
transform = "{1.0099, 0, 0, 1.0099, -15.67, 0.095}";
}
);
paths = (
{
closed = 1;
nodes = (
"94.959 -214.171 LINE",
"291.04 -159.268 OFFCURVE",
"289.398 -53.025 OFFCURVE",
"315.364 65.233 CURVE SMOOTH",
"331.509 138.76 OFFCURVE",
"335.126 147.626 OFFCURVE",
"353.846 232.915 CURVE SMOOTH",
"365.206 284.671 OFFCURVE",
"373.23 314.09 OFFCURVE",
"385.315 382.594 CURVE",
"390.821 436.011 LINE",
"386.832 436.011 LINE",
"386.832 240.754 OFFCURVE",
"420.281 497.804 OFFCURVE",
"353.328 517.755 CURVE SMOOTH",
"304.106 532.422 OFFCURVE",
"241.184 472.722 OFFCURVE",
"233.131 472.722 CURVE SMOOTH",
"231.131 472.722 LINE",
"231.131 391.93 LINE",
"233.131 391.93 LINE SMOOTH",
"251.63 391.93 OFFCURVE",
"315.802 446.872 OFFCURVE",
"337.766 440.327 CURVE",
"335.676 440.949 OFFCURVE",
"336.445 439.795 OFFCURVE",
"336.337 436.011 CURVE SMOOTH",
"336.337 305.625 OFFCURVE",
"350.46 503.271 OFFCURVE",
"331.648 396.63 CURVE SMOOTH",
"321.142 337.072 OFFCURVE",
"313.391 308.426 OFFCURVE",
"300.618 250.236 CURVE SMOOTH",
"283.066 170.266 OFFCURVE",
"279.449 161.404 OFFCURVE",
"262.137 82.56 CURVE SMOOTH",
"234.218 -44.588 OFFCURVE",
"232.604 -93.717 OFFCURVE",
"80.265 -136.371 CURVE",
"78.835 -136.371 LINE",
"92.449 -214.171 LINE"
);
}
);
};
layerId = "BC735296-CD3A-4FA4-9AA9-EE2D747BC69E";
paths = (
{
closed = 1;
nodes = (
"127.286 -210.92 OFFCURVE",
"169.597 -170.853 OFFCURVE",
"209.709 -135.17 CURVE SMOOTH",
"223.857 -122.585 OFFCURVE",
"233.5 -95.047 OFFCURVE",
"240.713 -83.623 CURVE SMOOTH",
"273.645 -31.462 OFFCURVE",
"300.831 25.207 OFFCURVE",
"326.77 86.02 CURVE SMOOTH",
"334.112 103.232 OFFCURVE",
"335.112 125.63 OFFCURVE",
"338.202 135.891 CURVE SMOOTH",
"346.108 162.152 OFFCURVE",
"356.342 181.347 OFFCURVE",
"363.88 221.748 CURVE SMOOTH",
"365.159 228.603 OFFCURVE",
"365.875 242.679 OFFCURVE",
"365.875 262.81 CURVE SMOOTH",
"365.875 295.621 OFFCURVE",
"364.19 336.995 OFFCURVE",
"364.246 347.56 CURVE SMOOTH",
"364.425 380.988 OFFCURVE",
"364.85 414.538 OFFCURVE",
"365.118 448.278 CURVE SMOOTH",
"365.175 455.452 OFFCURVE",
"366.31 472.09 OFFCURVE",
"366.31 485.112 CURVE",
"366.31 513.833 OFFCURVE",
"357.972 531.584 OFFCURVE",
"341.074 531.584 CURVE SMOOTH",
"317.822 531.584 OFFCURVE",
"300.106 494.684 OFFCURVE",
"237.723 387.45 CURVE SMOOTH",
"192.785 310.203 OFFCURVE",
"115.754 105.411 OFFCURVE",
"35.108 67.078 CURVE",
"65.245 81.403 OFFCURVE",
"65.566 56.372 OFFCURVE",
"65.566 58.011 CURVE",
"65.566 60.421 OFFCURVE",
"73.584 73.924 OFFCURVE",
"75.699 94.066 CURVE SMOOTH",
"79.832 133.436 OFFCURVE",
"81.997 173.501 OFFCURVE",
"86.091 213.881 CURVE SMOOTH",
"91.746 269.657 OFFCURVE",
"104.286 316.942 OFFCURVE",
"130.726 383.31 CURVE SMOOTH",
"137.984 401.529 OFFCURVE",
"145.302 424.196 OFFCURVE",
"152.631 445.822 CURVE SMOOTH",
"172.209 503.59 OFFCURVE",
"166.858 515.162 OFFCURVE",
"140.849 514.271 CURVE SMOOTH",
"102.362 512.954 OFFCURVE",
"77.331 482.65 OFFCURVE",
"51.854 482.65 CURVE",
"51.854 410.65 LINE",
"94.398 410.65 OFFCURVE",
"119.297 441.512 OFFCURVE",
"142.697 442.314 CURVE",
"68.326 439.767 OFFCURVE",
"108.659 490.09 OFFCURVE",
"101.488 468.932 CURVE SMOOTH",
"95.474 451.187 OFFCURVE",
"89.284 431.855 OFFCURVE",
"80.56 409.957 CURVE SMOOTH",
"53.439 341.879 OFFCURVE",
"38.797 284.566 OFFCURVE",
"32.366 221.144 CURVE SMOOTH",
"28.374 181.774 OFFCURVE",
"26.223 141.867 OFFCURVE",
"21.994 101.585 CURVE SMOOTH",
"21.96 101.267 OFFCURVE",
"11.566 81.837 OFFCURVE",
"11.566 58.011 CURVE SMOOTH",
"11.566 9.943 OFFCURVE",
"26.56 -13.032 OFFCURVE",
"58.29 2.05 CURVE SMOOTH",
"152.526 46.843 OFFCURVE",
"238.318 272.033 OFFCURVE",
"284.399 351.245 CURVE SMOOTH",
"307.05 390.181 OFFCURVE",
"361.049 459.584 OFFCURVE",
"341.074 459.584 CURVE SMOOTH",
"315.888 459.584 OFFCURVE",
"312.31 492.587 OFFCURVE",
"312.31 485.112 CURVE SMOOTH",
"312.31 473.963 OFFCURVE",
"311.2 459 OFFCURVE",
"311.12 448.849 CURVE SMOOTH",
"310.855 415.465 OFFCURVE",
"310.428 381.798 OFFCURVE",
"310.247 347.944 CURVE SMOOTH",
"310.18 335.403 OFFCURVE",
"311.875 293.789 OFFCURVE",
"311.875 262.81 CURVE SMOOTH",
"311.875 247.598 OFFCURVE",
"311.572 239.112 OFFCURVE",
"310.796 234.954 CURVE SMOOTH",
"306.048 209.504 OFFCURVE",
"297.867 194.422 OFFCURVE",
"286.494 156.648 CURVE SMOOTH",
"278.365 129.645 OFFCURVE",
"284.442 131.482 OFFCURVE",
"277.1 114.269 CURVE SMOOTH",
"249.849 50.38 OFFCURVE",
"225.509 3.054 OFFCURVE",
"195.052 -45.185 CURVE SMOOTH",
"180.734 -67.864 OFFCURVE",
"187.622 -69.095 OFFCURVE",
"173.818 -81.375 CURVE SMOOTH",
"139.682 -111.742 OFFCURVE",
"102.806 -146.662 OFFCURVE",
"57.789 -169.008 CURVE",
"81.798 -233.5 LINE"
);
},
{
closed = 1;
nodes = (
"210.435 717.725 LINE SMOOTH",
"170.354 717.725 OFFCURVE",
"145.509 695.375 OFFCURVE",
"115.138 679.932 CURVE",
"114.139 679.932 LINE",
"141.832 592.792 LINE",
"144.644 592.792 LINE",
"172.888 607.153 OFFCURVE",
"181.894 619.966 OFFCURVE",
"210.435 619.966 CURVE SMOOTH",
"212.435 619.966 LINE",
"212.435 717.725 LINE"
);
},
{
closed = 1;
nodes = (
"411.938 686.012 LINE",
"410.485 686.459 OFFCURVE",
"369.251 718.875 OFFCURVE",
"344.197 718.875 CURVE SMOOTH",
"342.197 718.875 LINE",
"342.197 621.117 LINE",
"344.197 621.117 LINE SMOOTH",
"358.239 621.117 OFFCURVE",
"373.974 598.363 OFFCURVE",
"392.803 592.572 CURVE",
"395.355 592.572 LINE",
"413.314 686.012 LINE"
);
}
);
width = 393.72;
}
);
leftMetricsKey = i;
rightMetricsKey = j;
unicode = 0133;
},
{
glyphname = j;
lastChange = "2020-07-29 06:26:09 +0000";
layers = (
{
layerId = "BC735296-CD3A-4FA4-9AA9-EE2D747BC69E";
paths = (
{
closed = 1;
nodes = (
"-78.861 -214.171 LINE",
"117.22 -159.268 OFFCURVE",
"115.578 -53.025 OFFCURVE",
"141.544 65.233 CURVE SMOOTH",
"157.689 138.76 OFFCURVE",
"161.306 147.626 OFFCURVE",
"180.026 232.915 CURVE SMOOTH",
"191.386 284.671 OFFCURVE",
"199.41 314.09 OFFCURVE",
"211.495 382.594 CURVE",
"217.001 436.011 LINE",
"213.012 436.011 LINE",
"213.012 240.754 OFFCURVE",
"246.461 497.804 OFFCURVE",
"179.508 517.755 CURVE SMOOTH",
"130.286 532.422 OFFCURVE",
"67.364 472.722 OFFCURVE",
"59.311 472.722 CURVE SMOOTH",
"57.311 472.722 LINE",
"57.311 391.93 LINE",
"59.311 391.93 LINE SMOOTH",
"77.81 391.93 OFFCURVE",
"141.982 446.872 OFFCURVE",
"163.946 440.327 CURVE",
"161.856 440.949 OFFCURVE",
"162.625 439.795 OFFCURVE",
"162.517 436.011 CURVE SMOOTH",
"162.517 305.625 OFFCURVE",
"176.64 503.271 OFFCURVE",
"157.828 396.63 CURVE SMOOTH",
"147.322 337.072 OFFCURVE",
"139.571 308.426 OFFCURVE",
"126.798 250.236 CURVE SMOOTH",
"109.246 170.266 OFFCURVE",
"105.629 161.404 OFFCURVE",
"88.317 82.56 CURVE SMOOTH",
"60.398 -44.588 OFFCURVE",
"58.784 -93.717 OFFCURVE",
"-93.555 -136.371 CURVE",
"-94.985 -136.371 LINE",
"-81.371 -214.171 LINE"
);
},
{
closed = 1;
nodes = (
"248.118 686.012 LINE",
"246.665 686.459 OFFCURVE",
"205.431 718.875 OFFCURVE",
"180.377 718.875 CURVE SMOOTH",
"178.377 718.875 LINE",
"178.377 621.117 LINE",
"180.377 621.117 LINE SMOOTH",
"194.419 621.117 OFFCURVE",
"210.154 598.363 OFFCURVE",
"228.983 592.572 CURVE",
"231.535 592.572 LINE",
"249.494 686.012 LINE"
);
}
);
width = 226.3;
}
);
leftKerningGroup = j;
rightMetricsKey = i;
unicode = 006A;
},
{
glyphname = k;
lastChange = "2020-07-29 06:26:09 +0000";
layers = (
{
anchors = (
{
name = bottom;
position = "{279.637, 0.328}";
},
{
name = top;
position = "{279.637, 505.279}";
}
);
layerId = "BC735296-CD3A-4FA4-9AA9-EE2D747BC69E";
paths = (
{
closed = 1;
nodes = (
"493.006 55.701 LINE",
"426.543 99.632 OFFCURVE",
"383.838 167.938 OFFCURVE",
"336.58 221.515 CURVE SMOOTH",
"327.694 231.59 OFFCURVE",
"299.345 289.864 OFFCURVE",
"263.663 289.864 CURVE SMOOTH",
"248.768 289.864 OFFCURVE",
"246.286 285.933 OFFCURVE",
"232.477 274.122 CURVE",
"235.077 274.122 LINE",
"239.578 277.972 OFFCURVE",
"199.937 263.777 OFFCURVE",
"199.937 215.282 CURVE SMOOTH",
"199.937 130.722 OFFCURVE",
"264.043 178.039 OFFCURVE",
"277.053 185.279 CURVE SMOOTH",
"299.112 197.556 OFFCURVE",
"314.623 206.347 OFFCURVE",
"339.319 220.615 CURVE SMOOTH",
"406.965 259.7 OFFCURVE",
"450.721 316.337 OFFCURVE",
"453.194 370.728 CURVE SMOOTH",
"453.665 381.09 OFFCURVE",
"455.224 395.324 OFFCURVE",
"455.224 410.863 CURVE SMOOTH",
"455.224 423.155 OFFCURVE",
"453.947 437.99 OFFCURVE",
"451.701 447.296 CURVE",
"447.813 447.296 LINE",
"451.748 430.984 OFFCURVE",
"452.805 514.479 OFFCURVE",
"412.875 515.813 CURVE SMOOTH",
"369.592 517.258 OFFCURVE",
"338.688 496.253 OFFCURVE",
"285.714 438.576 CURVE SMOOTH",
"210.477 356.66 OFFCURVE",
"162.938 296.22 OFFCURVE",
"95.982 192.163 CURVE SMOOTH",
"66.579 146.466 OFFCURVE",
"60.721 129.106 OFFCURVE",
"27.148 54.741 CURVE SMOOTH",
"-0.641 -6.815 OFFCURVE",
"36.787 -61.467 OFFCURVE",
"75.473 -18.631 CURVE SMOOTH",
"86.434 -6.493 OFFCURVE",
"90.449 12.024 OFFCURVE",
"90.449 52.912 CURVE",
"90.449 131.471 OFFCURVE",
"81.532 4.987 OFFCURVE",
"90.633 53.972 CURVE SMOOTH",
"107.683 145.745 OFFCURVE",
"109.231 152.346 OFFCURVE",
"150.079 309.661 CURVE SMOOTH",
"166.856 374.274 OFFCURVE",
"170.072 389.389 OFFCURVE",
"189.215 464.64 CURVE SMOOTH",
"199.892 506.607 OFFCURVE",
"211.158 556.385 OFFCURVE",
"221.34 621.415 CURVE SMOOTH",
"221.714 623.806 OFFCURVE",
"234.527 644.137 OFFCURVE",
"234.527 675.145 CURVE SMOOTH",
"234.527 692.903 OFFCURVE",
"232.708 703.956 OFFCURVE",
"228.299 707.352 CURVE SMOOTH",
"213.149 719.024 OFFCURVE",
"203.398 721.901 OFFCURVE",
"176.926 703.973 CURVE SMOOTH",
"171.202 700.097 OFFCURVE",
"161.087 695.507 OFFCURVE",
"149.889 691.254 CURVE SMOOTH",
"127.795 682.863 OFFCURVE",
"104.659 669.757 OFFCURVE",
"75.779 660.056 CURVE",
"74.459 660.056 LINE",
"90.537 583.469 LINE",
"93.131 583.469 LINE",
"117.355 591.606 OFFCURVE",
"140.571 604.838 OFFCURVE",
"169.239 615.726 CURVE SMOOTH",
"179.679 619.692 OFFCURVE",
"191.271 626.099 OFFCURVE",
"207.484 637.078 CURVE",
"205.241 637.078 LINE",
"196.22 630.969 OFFCURVE",
"192.157 633.912 OFFCURVE",
"183.417 651.992 CURVE",
"179.816 651.992 LINE",
"189.753 631.435 OFFCURVE",
"180.032 735.008 OFFCURVE",
"180.032 654.946 CURVE SMOOTH",
"180.032 652.603 OFFCURVE",
"173.24 641.467 OFFCURVE",
"168.166 619.067 CURVE SMOOTH",
"157.926 573.864 OFFCURVE",
"148.292 531.296 OFFCURVE",
"136.403 484.558 CURVE SMOOTH",
"119.532 418.243 OFFCURVE",
"116.226 402.729 OFFCURVE",
"97.333 329.966 CURVE SMOOTH",
"66.523 211.309 OFFCURVE",
"63.248 209.718 OFFCURVE",
"37.055 68.73 CURVE SMOOTH",
"36.409 65.256 OFFCURVE",
"35.954 59.154 OFFCURVE",
"35.954 52.912 CURVE SMOOTH",
"35.954 30.59 OFFCURVE",
"37.701 38.477 OFFCURVE",
"35.029 35.519 CURVE",
"37.998 35.519 LINE",
"51.094 50.02 OFFCURVE",
"80.19 37.045 OFFCURVE",
"73.171 21.498 CURVE",
"76.817 21.498 LINE",
"108.463 91.597 OFFCURVE",
"111.808 101.818 OFFCURVE",
"141.81 148.445 CURVE SMOOTH",
"200.053 238.961 OFFCURVE",
"242.956 293.673 OFFCURVE",
"325.849 383.925 CURVE SMOOTH",
"363.619 425.047 OFFCURVE",
"382.214 435.946 OFFCURVE",
"399.88 428.349 CURVE",
"398.726 428.349 LINE",
"400.179 422.324 OFFCURVE",
"400.729 418.894 OFFCURVE",
"400.729 410.863 CURVE SMOOTH",
"400.729 399.939 OFFCURVE",
"399.409 388.789 OFFCURVE",
"398.755 374.397 CURVE SMOOTH",
"397.583 348.626 OFFCURVE",
"356.937 316.502 OFFCURVE",
"312.056 290.57 CURVE SMOOTH",
"296.547 281.609 OFFCURVE",
"273.87 268.829 OFFCURVE",
"250.553 255.874 CURVE SMOOTH",
"183.267 218.428 OFFCURVE",
"250.432 276.587 OFFCURVE",
"250.432 215.282 CURVE SMOOTH",
"250.432 194.718 OFFCURVE",
"247.719 195.464 OFFCURVE",
"267.9 212.726 CURVE",
"255.589 202.078 OFFCURVE",
"248.205 225.944 OFFCURVE",
"265.077 209.072 CURVE",
"263.663 209.072 LINE",
"273.239 209.072 OFFCURVE",
"287.873 176.958 OFFCURVE",
"295.711 168.071 CURVE SMOOTH",
"347.352 109.526 OFFCURVE",
"399.489 30.253 OFFCURVE",
"462.957 -11.699 CURVE",
"465.909 -11.699 LINE",
"493.752 55.701 LINE"
);
}
);
width = 533.4;
}
);
leftMetricsKey = l;
rightKerningGroup = k;
unicode = 006B;
},
{
glyphname = l;
lastChange = "2020-07-29 06:26:09 +0000";
layers = (
{
anchors = (
{
name = bottom;
position = "{107.624, 0.105}";
},
{
name = center;
position = "{154.298, 374.894}";
},
{
name = top;
position = "{183.326, 693.859}";
},
{
name = topright;
position = "{299.724, 505.056}";
}
);
background = {
paths = (
{
closed = 1;
nodes = (
"24 424 LINE",
"136 424 LINE",
"308 424 LINE",
"308 499 LINE",
"135 499 LINE",
"24 499 LINE"
);
},
{
closed = 1;
nodes = (
"108 145 LINE",
"188 145 LINE",
"188 630 LINE",
"108 630 LINE"
);
},
{
closed = 1;
nodes = (
"298 59 LINE",
"218 58.648 OFFCURVE",
"188 78.669 OFFCURVE",
"188 145 CURVE",
"108 145 LINE",
"108 35 OFFCURVE",
"168 -15 OFFCURVE",
"298 -15 CURVE"
);
}
);
};
layerId = "BC735296-CD3A-4FA4-9AA9-EE2D747BC69E";
paths = (
{
closed = 1;
nodes = (
"210.612 163.959 LINE",
"132.529 135.496 OFFCURVE",
"144.482 70.171 OFFCURVE",
"66.521 70.171 CURVE SMOOTH",
"61.675 70.171 OFFCURVE",
"54.999 70.537 OFFCURVE",
"49.492 71.352 CURVE",
"48.907 71.352 LINE",
"83.824 66.185 OFFCURVE",
"71.756 -39.021 OFFCURVE",
"71.756 55.34 CURVE",
"71.756 62.897 OFFCURVE",
"71.932 66.457 OFFCURVE",
"72.39 70.905 CURVE SMOOTH",
"77.562 121.092 OFFCURVE",
"91.114 175.743 OFFCURVE",
"99.328 234.687 CURVE SMOOTH",
"114.486 343.452 OFFCURVE",
"135.059 406.385 OFFCURVE",
"170.522 525.09 CURVE SMOOTH",
"176.877 546.359 OFFCURVE",
"205.122 633.422 OFFCURVE",
"201.966 670.868 CURVE SMOOTH",
"194.323 761.529 OFFCURVE",
"243.284 738.076 OFFCURVE",
"158.454 701.762 CURVE SMOOTH",
"151.771 698.901 OFFCURVE",
"142.511 692.128 OFFCURVE",
"129.107 683.968 CURVE SMOOTH",
"103.715 668.511 OFFCURVE",
"88.431 661.988 OFFCURVE",
"76.753 661.988 CURVE SMOOTH",
"74.753 661.988 LINE",
"74.753 581.196 LINE",
"76.753 581.196 LINE SMOOTH",
"95.128 581.196 OFFCURVE",
"116.483 590.024 OFFCURVE",
"157.442 614.956 CURVE SMOOTH",
"184.36 631.342 OFFCURVE",
"157.476 617.89 OFFCURVE",
"179.899 627.489 CURVE",
"178.325 627.489 LINE",
"173.519 625.432 OFFCURVE",
"155.711 615.896 OFFCURVE",
"151.649 664.081 CURVE",
"147.663 664.081 LINE",
"148.549 653.577 OFFCURVE",
"142.86 630.397 OFFCURVE",
"118.308 548.217 CURVE SMOOTH",
"86.202 440.752 OFFCURVE",
"63.03 372.667 OFFCURVE",
"45.355 245.838 CURVE SMOOTH",
"38.218 194.628 OFFCURVE",
"24.394 139.467 OFFCURVE",
"18.182 79.187 CURVE SMOOTH",
"17.542 72.975 OFFCURVE",
"17.261 63.035 OFFCURVE",
"17.261 55.34 CURVE SMOOTH",
"17.261 12.552 OFFCURVE",
"23.658 -5.928 OFFCURVE",
"41.515 -8.57 CURVE SMOOTH",
"51.453 -10.041 OFFCURVE",
"58.289 -10.621 OFFCURVE",
"66.521 -10.621 CURVE SMOOTH",
"148.666 -10.621 OFFCURVE",
"200.804 77.674 OFFCURVE",
"229.275 88.052 CURVE",
"230.54 88.052 LINE",
"213.247 163.959 LINE"
);
}
);
width = 268;
}
);
unicode = 006C;
},
{
glyphname = m;
lastChange = "2020-07-29 06:26:09 +0000";
layers = (
{
anchors = (
{
name = bottom;
position = "{472.513, 0.314}";
},
{
name = top;
position = "{501.8, 505.264}";
}
);
background = {
paths = (
{
closed = 1;
nodes = (
"90.32 484 OFFCURVE",
"90.32 383 OFFCURVE",
"90.32 367 CURVE",
"90.32 0 LINE",
"170.32 0 LINE",
"170.32 347 LINE",
"170.32 359 OFFCURVE",
"170.32 488 OFFCURVE",
"170.32 500 CURVE",
"90.32 500 LINE"
);
},
{
closed = 1;
nodes = (
"434.32 0 LINE",
"514.32 0 LINE",
"514.32 312 LINE",
"434.32 312 LINE"
);
},
{
closed = 1;
nodes = (
"514.32 472 OFFCURVE",
"427.32 510 OFFCURVE",
"327.32 510 CURVE SMOOTH",
"231.32 510 OFFCURVE",
"165.32 416 OFFCURVE",
"141.32 375 CURVE",
"133.32 376 LINE",
"133.32 365 OFFCURVE",
"136.32 355 OFFCURVE",
"136.32 355 CURVE",
"165.32 307 LINE",
"165.32 307 OFFCURVE",
"228.32 430 OFFCURVE",
"319.32 430 CURVE SMOOTH",
"379.32 430 OFFCURVE",
"434.32 402 OFFCURVE",
"434.32 312 CURVE",
"514.32 312 LINE"
);
},
{
closed = 1;
nodes = (
"770.32 0 LINE",
"850.32 0 LINE",
"850.32 312 LINE",
"770.32 312 LINE"
);
},
{
closed = 1;
nodes = (
"850.32 472 OFFCURVE",
"763.32 510 OFFCURVE",
"673.32 510 CURVE SMOOTH",
"574.32 510 OFFCURVE",
"510.32 420 OFFCURVE",
"489.32 378 CURVE",
"485.32 362 LINE",
"475.32 347 OFFCURVE",
"469.32 337 OFFCURVE",
"469.32 337 CURVE",
"501.32 297 LINE",
"501.32 297 OFFCURVE",
"556.32 430 OFFCURVE",
"663.32 430 CURVE SMOOTH",
"713.32 430 OFFCURVE",
"770.32 412 OFFCURVE",
"770.32 312 CURVE",
"850.32 312 LINE"
);
}
);
};
layerId = "BC735296-CD3A-4FA4-9AA9-EE2D747BC69E";
paths = (
{
closed = 1;
nodes = (
"798.197 124.631 LINE",
"773.914 100.347 OFFCURVE",
"730.663 76.561 OFFCURVE",
"683.571 60.908 CURVE",
"665.702 37.68 LINE",
"667.073 36.31 OFFCURVE",
"670.166 23.43 OFFCURVE",
"670.166 15.462 CURVE SMOOTH",
"670.166 -10.354 OFFCURVE",
"672.141 -7.393 OFFCURVE",
"680.161 23.542 CURVE SMOOTH",
"687.184 50.627 OFFCURVE",
"690.675 82.535 OFFCURVE",
"703.383 113.423 CURVE SMOOTH",
"733.044 185.512 OFFCURVE",
"763.875 266.266 OFFCURVE",
"773.937 360.849 CURVE",
"773.948 383.238 OFFCURVE",
"771.942 405.003 OFFCURVE",
"767.836 422.453 CURVE SMOOTH",
"741.376 536.437 OFFCURVE",
"651.051 525.851 OFFCURVE",
"657.654 513.07 CURVE",
"661.208 513.07 LINE",
"645.154 544.14 OFFCURVE",
"629.179 542.995 OFFCURVE",
"609.509 513.046 CURVE SMOOTH",
"603.663 504.145 OFFCURVE",
"592.901 488.703 OFFCURVE",
"580.97 468.711 CURVE SMOOTH",
"564.495 441.103 OFFCURVE",
"547.612 405.684 OFFCURVE",
"529.177 369.894 CURVE SMOOTH",
"495.237 304.004 OFFCURVE",
"486.321 273.017 OFFCURVE",
"453.992 192.195 CURVE SMOOTH",
"442.863 163.877 OFFCURVE",
"427.277 128.329 OFFCURVE",
"413.556 87.165 CURVE SMOOTH",
"409.332 74.493 OFFCURVE",
"405.337 61.511 OFFCURVE",
"403.372 46.769 CURVE SMOOTH",
"402.318 39.372 OFFCURVE",
"400.325 29.407 OFFCURVE",
"400.325 23.542 CURVE SMOOTH",
"400.325 -130.461 OFFCURVE",
"476.11 76.616 OFFCURVE",
"479.99 90.195 CURVE SMOOTH",
"508.345 188.428 OFFCURVE",
"508.402 256.659 OFFCURVE",
"508.402 368.135 CURVE SMOOTH",
"508.402 375.834 OFFCURVE",
"509.075 389.515 OFFCURVE",
"509.075 404.553 CURVE SMOOTH",
"509.075 490.444 OFFCURVE",
"481.115 538.599 OFFCURVE",
"432.404 538.409 CURVE SMOOTH",
"419.745 538.36 OFFCURVE",
"391.384 508.913 OFFCURVE",
"369.118 473.762 CURVE SMOOTH",
"335.612 420.861 OFFCURVE",
"310.234 360.027 OFFCURVE",
"272.56 304.189 CURVE",
"233.242 233.452 LINE",
"264.064 204.073 LINE",
"267.453 204.073 LINE",
"267.453 268.763 OFFCURVE",
"247.499 268.868 OFFCURVE",
"199.277 206.686 CURVE SMOOTH",
"195.319 201.582 OFFCURVE",
"152.05 144.521 OFFCURVE",
"130.926 113.819 CURVE SMOOTH",
"123.456 102.961 OFFCURVE",
"109.516 85.918 OFFCURVE",
"95.395 59.698 CURVE SMOOTH",
"91.205 51.931 OFFCURVE",
"85.662 38.949 OFFCURVE",
"82.676 29.939 CURVE",
"83.222 29.939 LINE",
"81.987 28.806 OFFCURVE",
"97.98 -68.394 OFFCURVE",
"133.662 -2.55 CURVE SMOOTH",
"146.063 20.453 OFFCURVE",
"143.475 45.75 OFFCURVE",
"149.471 67.207 CURVE SMOOTH",
"174.879 158.136 OFFCURVE",
"205.395 250.807 OFFCURVE",
"238.689 347.955 CURVE",
"229.848 363.811 LINE",
"229.29 363.811 LINE",
"208.19 379.536 LINE",
"206.995 379.536 LINE",
"282.796 379.536 OFFCURVE",
"232.264 325.69 OFFCURVE",
"273.355 451.649 CURVE SMOOTH",
"305.903 551.422 OFFCURVE",
"362.814 513.182 OFFCURVE",
"270.716 541.091 CURVE SMOOTH",
"258.547 544.779 OFFCURVE",
"249.373 546.328 OFFCURVE",
"238.63 546.328 CURVE SMOOTH",
"185.283 546.328 OFFCURVE",
"131.919 505.358 OFFCURVE",
"92.662 480.737 CURVE",
"32.218 438.426 LINE",
"29.347 435.261 LINE",
"53.599 365.269 LINE",
"121.69 412.292 LINE",
"152.961 431.95 OFFCURVE",
"196.707 465.536 OFFCURVE",
"238.63 465.536 CURVE SMOOTH",
"244.278 465.536 OFFCURVE",
"251.89 464.686 OFFCURVE",
"254.912 463.771 CURVE",
"256.241 463.771 LINE",
"224.196 476.704 LINE",
"221.546 476.704 LINE",
"172.982 327.834 OFFCURVE",
"156.408 298.744 OFFCURVE",
"206.995 298.744 CURVE SMOOTH",
"234.857 298.744 OFFCURVE",
"282.511 444.603 OFFCURVE",
"228.094 444.603 CURVE SMOOTH",
"210.557 444.603 OFFCURVE",
"206.228 429.853 OFFCURVE",
"187.137 374.148 CURVE SMOOTH",
"156.265 284.064 OFFCURVE",
"124.847 188.657 OFFCURVE",
"96.987 88.95 CURVE SMOOTH",
"90.533 65.858 OFFCURVE",
"88.539 42.48 OFFCURVE",
"82.03 22.66 CURVE",
"85.83 22.66 LINE",
"116.34 115.557 OFFCURVE",
"128.948 -11.947 OFFCURVE",
"134.405 4.525 CURVE SMOOTH",
"134.796 5.693 OFFCURVE",
"134.448 4.818 OFFCURVE",
"143.372 21.386 CURVE SMOOTH",
"148.463 30.838 OFFCURVE",
"159.198 43.862 OFFCURVE",
"175.821 68.024 CURVE SMOOTH",
"187.163 84.507 OFFCURVE",
"225.932 136.387 OFFCURVE",
"242.302 156.849 CURVE",
"241.321 156.849 LINE",
"179.887 175.498 LINE",
"234.216 152.66 LINE",
"235.016 152.66 LINE SMOOTH",
"249.305 152.84 OFFCURVE",
"253.62 164.019 OFFCURVE",
"317.734 259.001 CURVE SMOOTH",
"353.469 311.964 OFFCURVE",
"378.631 372.865 OFFCURVE",
"415.155 430.531 CURVE",
"411.776 430.531 LINE",
"399.25 410.753 OFFCURVE",
"431.322 437.208 OFFCURVE",
"434.61 467.898 CURVE",
"430.88 467.898 LINE",
"445.24 442.493 OFFCURVE",
"454.58 451.787 OFFCURVE",
"454.58 404.553 CURVE SMOOTH",
"454.58 390.948 OFFCURVE",
"453.907 378.6 OFFCURVE",
"453.907 368.135 CURVE SMOOTH",
"453.907 281.352 OFFCURVE",
"448.781 238.376 OFFCURVE",
"428.628 115.443 CURVE",
"428.602 114.69 OFFCURVE",
"450.82 32.888 OFFCURVE",
"450.82 23.542 CURVE SMOOTH",
"450.82 12.404 OFFCURVE",
"453.125 17.756 OFFCURVE",
"456.737 28.591 CURVE SMOOTH",
"460.13 38.771 OFFCURVE",
"461.762 48.567 OFFCURVE",
"465.861 63.938 CURVE SMOOTH",
"473.09 91.809 OFFCURVE",
"488.025 122.581 OFFCURVE",
"504.155 161.898 CURVE SMOOTH",
"531.397 227.488 OFFCURVE",
"538.821 257.569 OFFCURVE",
"577.623 332.898 CURVE SMOOTH",
"591.807 360.434 OFFCURVE",
"607.47 393.297 OFFCURVE",
"627.766 427.309 CURVE SMOOTH",
"632.247 434.818 OFFCURVE",
"641.623 448.237 OFFCURVE",
"655.059 468.694 CURVE",
"651.752 468.694 LINE",
"643.538 457.036 OFFCURVE",
"629.002 431.84 OFFCURVE",
"715.819 405.284 CURVE",
"714.463 405.284 LINE",
"718.374 389.641 OFFCURVE",
"722.542 377.138 OFFCURVE",
"719.487 360.849 CURVE SMOOTH",
"706.292 288.788 OFFCURVE",
"683.29 221.018 OFFCURVE",
"650.036 134.631 CURVE SMOOTH",
"639.864 108.206 OFFCURVE",
"635.777 75.607 OFFCURVE",
"626.811 42.73 CURVE",
"630.681 42.73 LINE",
"635.452 61.814 OFFCURVE",
"619.671 41.4 OFFCURVE",
"619.671 15.462 CURVE SMOOTH",
"619.671 5.47 OFFCURVE",
"623.657 -10.18 OFFCURVE",
"628.189 -15.844 CURVE SMOOTH",
"649.417 -42.38 OFFCURVE",
"656.888 -30.019 OFFCURVE",
"704.196 -13.825 CURVE SMOOTH",
"753.616 3.092 OFFCURVE",
"798.572 30.28 OFFCURVE",
"836.353 67.066 CURVE",
"801.316 124.631 LINE"
);
}
);
width = 885.33;
}
);
leftKerningGroup = n;
rightKerningGroup = n;
unicode = 006D;
},
